%TF.GenerationSoftware,KiCad,Pcbnew,(6.0.7)*%
%TF.CreationDate,2022-09-04T15:55:50+05:30*%
%TF.ProjectId,burp_fart,62757270-5f66-4617-9274-2e6b69636164,rev?*%
%TF.SameCoordinates,Original*%
%TF.FileFunction,Legend,Top*%
%TF.FilePolarity,Positive*%
%FSLAX46Y46*%
G04 Gerber Fmt 4.6, Leading zero omitted, Abs format (unit mm)*
G04 Created by KiCad (PCBNEW (6.0.7)) date 2022-09-04 15:55:50*
%MOMM*%
%LPD*%
G01*
G04 APERTURE LIST*
%ADD10C,0.150000*%
%ADD11C,0.203200*%
%ADD12C,0.120000*%
%ADD13C,0.381000*%
%ADD14R,1.752600X1.752600*%
%ADD15C,1.752600*%
G04 APERTURE END LIST*
D10*
%TO.C,L_SW_RE1*%
X137793428Y-84144380D02*
X137317238Y-84144380D01*
X137317238Y-83144380D01*
X137888666Y-84239619D02*
X138650571Y-84239619D01*
X138841047Y-84096761D02*
X138983904Y-84144380D01*
X139222000Y-84144380D01*
X139317238Y-84096761D01*
X139364857Y-84049142D01*
X139412476Y-83953904D01*
X139412476Y-83858666D01*
X139364857Y-83763428D01*
X139317238Y-83715809D01*
X139222000Y-83668190D01*
X139031523Y-83620571D01*
X138936285Y-83572952D01*
X138888666Y-83525333D01*
X138841047Y-83430095D01*
X138841047Y-83334857D01*
X138888666Y-83239619D01*
X138936285Y-83192000D01*
X139031523Y-83144380D01*
X139269619Y-83144380D01*
X139412476Y-83192000D01*
X139745809Y-83144380D02*
X139983904Y-84144380D01*
X140174380Y-83430095D01*
X140364857Y-84144380D01*
X140602952Y-83144380D01*
X140745809Y-84239619D02*
X141507714Y-84239619D01*
X142317238Y-84144380D02*
X141983904Y-83668190D01*
X141745809Y-84144380D02*
X141745809Y-83144380D01*
X142126761Y-83144380D01*
X142222000Y-83192000D01*
X142269619Y-83239619D01*
X142317238Y-83334857D01*
X142317238Y-83477714D01*
X142269619Y-83572952D01*
X142222000Y-83620571D01*
X142126761Y-83668190D01*
X141745809Y-83668190D01*
X142745809Y-83620571D02*
X143079142Y-83620571D01*
X143222000Y-84144380D02*
X142745809Y-84144380D01*
X142745809Y-83144380D01*
X143222000Y-83144380D01*
X144174380Y-84144380D02*
X143602952Y-84144380D01*
X143888666Y-84144380D02*
X143888666Y-83144380D01*
X143793428Y-83287238D01*
X143698190Y-83382476D01*
X143602952Y-83430095D01*
%TO.C,L_SW__20*%
X27173295Y-52595849D02*
X26704339Y-52678539D01*
X26530691Y-51693731D01*
X27297558Y-51655219D02*
X27336185Y-51600055D01*
X27421707Y-51536621D01*
X27656185Y-51495276D01*
X27758245Y-51525634D01*
X27813410Y-51564261D01*
X27876843Y-51649783D01*
X27893381Y-51743574D01*
X27871293Y-51892530D01*
X27407773Y-52554505D01*
X28017416Y-52447008D01*
X28453411Y-51354704D02*
X28547202Y-51338166D01*
X28649262Y-51368524D01*
X28704426Y-51407150D01*
X28767860Y-51492673D01*
X28847831Y-51671986D01*
X28889176Y-51906464D01*
X28875357Y-52102315D01*
X28844999Y-52204376D01*
X28806372Y-52259540D01*
X28720850Y-52322974D01*
X28627059Y-52339512D01*
X28524999Y-52309154D01*
X28469834Y-52270527D01*
X28406400Y-52185005D01*
X28326429Y-52005692D01*
X28285084Y-51771214D01*
X28298904Y-51575362D01*
X28329262Y-51473302D01*
X28367888Y-51418137D01*
X28453411Y-51354704D01*
X30475243Y-52400456D02*
X30420079Y-52361829D01*
X30301481Y-52237680D01*
X30238047Y-52152158D01*
X30166345Y-52019740D01*
X30078104Y-51793531D01*
X30045029Y-51605949D01*
X30050579Y-51363202D01*
X30072668Y-51214246D01*
X30103026Y-51112186D01*
X30172010Y-50954961D01*
X30210637Y-50899797D01*
X31457333Y-51937165D02*
X31355273Y-51906808D01*
X31244944Y-51829554D01*
X31079450Y-51713674D01*
X30977390Y-51683317D01*
X30883599Y-51699855D01*
X30971839Y-51926064D02*
X30869779Y-51895706D01*
X30759450Y-51818453D01*
X30679478Y-51639139D01*
X30621596Y-51310870D01*
X30635415Y-51115019D01*
X30712669Y-51004689D01*
X30798191Y-50941256D01*
X30985773Y-50908180D01*
X31087834Y-50938538D01*
X31198163Y-51015791D01*
X31278134Y-51195104D01*
X31336017Y-51523374D01*
X31322197Y-51719225D01*
X31244944Y-51829554D01*
X31159422Y-51892988D01*
X30971839Y-51926064D01*
X31788320Y-52168925D02*
X31826947Y-52113761D01*
X31895931Y-51956536D01*
X31926289Y-51854476D01*
X31948378Y-51705520D01*
X31953929Y-51462773D01*
X31920853Y-51275190D01*
X31832612Y-51048981D01*
X31760910Y-50916563D01*
X31697476Y-50831041D01*
X31578878Y-50706892D01*
X31523714Y-50668266D01*
%TO.C,L_SW__01*%
X54556793Y-78858931D02*
X54082415Y-78900434D01*
X53995259Y-77904239D01*
X54991454Y-77817084D02*
X55086329Y-77808783D01*
X55185355Y-77847920D01*
X55236944Y-77891208D01*
X55292682Y-77981933D01*
X55356721Y-78167535D01*
X55377472Y-78404724D01*
X55346635Y-78598625D01*
X55307498Y-78697651D01*
X55264211Y-78749240D01*
X55173485Y-78804978D01*
X55078610Y-78813278D01*
X54979584Y-78774141D01*
X54927995Y-78730854D01*
X54872257Y-78640128D01*
X54808218Y-78454527D01*
X54787467Y-78217338D01*
X54818304Y-78023436D01*
X54857441Y-77924410D01*
X54900728Y-77872822D01*
X54991454Y-77817084D01*
X56359431Y-78701221D02*
X55790177Y-78751024D01*
X56074804Y-78726123D02*
X55987648Y-77729928D01*
X55905224Y-77880542D01*
X55818648Y-77983718D01*
X55727923Y-78039457D01*
X57863207Y-78952065D02*
X57811618Y-78908778D01*
X57704292Y-78774765D01*
X57648554Y-78684039D01*
X57588665Y-78545876D01*
X57520476Y-78312837D01*
X57503875Y-78123086D01*
X57530561Y-77881746D01*
X57565548Y-77735283D01*
X57604685Y-77636257D01*
X57687110Y-77485642D01*
X57730398Y-77434054D01*
X58027476Y-77551466D02*
X58778761Y-78489557D01*
X58691606Y-77493362D02*
X58114631Y-78547661D01*
X59096591Y-78844158D02*
X59139878Y-78792570D01*
X59222303Y-78641956D01*
X59261440Y-78542930D01*
X59296427Y-78396466D01*
X59323114Y-78155127D01*
X59306513Y-77965375D01*
X59238323Y-77732336D01*
X59178435Y-77594173D01*
X59122696Y-77503448D01*
X59015370Y-77369435D01*
X58963782Y-77326147D01*
%TO.C,L_SW__04*%
X117189523Y-82494380D02*
X116713333Y-82494380D01*
X116713333Y-81494380D01*
X117713333Y-81494380D02*
X117808571Y-81494380D01*
X117903809Y-81542000D01*
X117951428Y-81589619D01*
X117999047Y-81684857D01*
X118046666Y-81875333D01*
X118046666Y-82113428D01*
X117999047Y-82303904D01*
X117951428Y-82399142D01*
X117903809Y-82446761D01*
X117808571Y-82494380D01*
X117713333Y-82494380D01*
X117618095Y-82446761D01*
X117570476Y-82399142D01*
X117522857Y-82303904D01*
X117475238Y-82113428D01*
X117475238Y-81875333D01*
X117522857Y-81684857D01*
X117570476Y-81589619D01*
X117618095Y-81542000D01*
X117713333Y-81494380D01*
X118903809Y-81827714D02*
X118903809Y-82494380D01*
X118665714Y-81446761D02*
X118427619Y-82161047D01*
X119046666Y-82161047D01*
X120475238Y-82875333D02*
X120427619Y-82827714D01*
X120332380Y-82684857D01*
X120284761Y-82589619D01*
X120237142Y-82446761D01*
X120189523Y-82208666D01*
X120189523Y-82018190D01*
X120237142Y-81780095D01*
X120284761Y-81637238D01*
X120332380Y-81542000D01*
X120427619Y-81399142D01*
X120475238Y-81351523D01*
X121189523Y-81970571D02*
X121332380Y-82018190D01*
X121380000Y-82065809D01*
X121427619Y-82161047D01*
X121427619Y-82303904D01*
X121380000Y-82399142D01*
X121332380Y-82446761D01*
X121237142Y-82494380D01*
X120856190Y-82494380D01*
X120856190Y-81494380D01*
X121189523Y-81494380D01*
X121284761Y-81542000D01*
X121332380Y-81589619D01*
X121380000Y-81684857D01*
X121380000Y-81780095D01*
X121332380Y-81875333D01*
X121284761Y-81922952D01*
X121189523Y-81970571D01*
X120856190Y-81970571D01*
X121760952Y-82875333D02*
X121808571Y-82827714D01*
X121903809Y-82684857D01*
X121951428Y-82589619D01*
X121999047Y-82446761D01*
X122046666Y-82208666D01*
X122046666Y-82018190D01*
X121999047Y-81780095D01*
X121951428Y-81637238D01*
X121903809Y-81542000D01*
X121808571Y-81399142D01*
X121760952Y-81351523D01*
%TO.C,L_SW__13*%
X96940952Y-60784380D02*
X96464761Y-60784380D01*
X96464761Y-59784380D01*
X97798095Y-60784380D02*
X97226666Y-60784380D01*
X97512380Y-60784380D02*
X97512380Y-59784380D01*
X97417142Y-59927238D01*
X97321904Y-60022476D01*
X97226666Y-60070095D01*
X98131428Y-59784380D02*
X98750476Y-59784380D01*
X98417142Y-60165333D01*
X98560000Y-60165333D01*
X98655238Y-60212952D01*
X98702857Y-60260571D01*
X98750476Y-60355809D01*
X98750476Y-60593904D01*
X98702857Y-60689142D01*
X98655238Y-60736761D01*
X98560000Y-60784380D01*
X98274285Y-60784380D01*
X98179047Y-60736761D01*
X98131428Y-60689142D01*
X100226666Y-61165333D02*
X100179047Y-61117714D01*
X100083809Y-60974857D01*
X100036190Y-60879619D01*
X99988571Y-60736761D01*
X99940952Y-60498666D01*
X99940952Y-60308190D01*
X99988571Y-60070095D01*
X100036190Y-59927238D01*
X100083809Y-59832000D01*
X100179047Y-59689142D01*
X100226666Y-59641523D01*
X100940952Y-60260571D02*
X100607619Y-60260571D01*
X100607619Y-60784380D02*
X100607619Y-59784380D01*
X101083809Y-59784380D01*
X101369523Y-61165333D02*
X101417142Y-61117714D01*
X101512380Y-60974857D01*
X101560000Y-60879619D01*
X101607619Y-60736761D01*
X101655238Y-60498666D01*
X101655238Y-60308190D01*
X101607619Y-60070095D01*
X101560000Y-59927238D01*
X101512380Y-59832000D01*
X101417142Y-59689142D01*
X101369523Y-59641523D01*
%TO.C,L_SW__T2*%
X119568557Y-113487579D02*
X119156164Y-113249484D01*
X119656164Y-112383459D01*
X120233514Y-112716792D02*
X120728386Y-113002506D01*
X119980950Y-113725675D02*
X120480950Y-112859649D01*
X120928203Y-113227842D02*
X120993252Y-113210412D01*
X121099540Y-113216792D01*
X121305736Y-113335840D01*
X121364405Y-113424698D01*
X121381835Y-113489747D01*
X121375455Y-113596035D01*
X121327836Y-113678514D01*
X121215168Y-113778422D01*
X120434582Y-113987579D01*
X120970693Y-114297103D01*
%TO.C,L_SW__23*%
X96869523Y-41854380D02*
X96393333Y-41854380D01*
X96393333Y-40854380D01*
X97155238Y-40949619D02*
X97202857Y-40902000D01*
X97298095Y-40854380D01*
X97536190Y-40854380D01*
X97631428Y-40902000D01*
X97679047Y-40949619D01*
X97726666Y-41044857D01*
X97726666Y-41140095D01*
X97679047Y-41282952D01*
X97107619Y-41854380D01*
X97726666Y-41854380D01*
X98060000Y-40854380D02*
X98679047Y-40854380D01*
X98345714Y-41235333D01*
X98488571Y-41235333D01*
X98583809Y-41282952D01*
X98631428Y-41330571D01*
X98679047Y-41425809D01*
X98679047Y-41663904D01*
X98631428Y-41759142D01*
X98583809Y-41806761D01*
X98488571Y-41854380D01*
X98202857Y-41854380D01*
X98107619Y-41806761D01*
X98060000Y-41759142D01*
X100155238Y-42235333D02*
X100107619Y-42187714D01*
X100012380Y-42044857D01*
X99964761Y-41949619D01*
X99917142Y-41806761D01*
X99869523Y-41568666D01*
X99869523Y-41378190D01*
X99917142Y-41140095D01*
X99964761Y-40997238D01*
X100012380Y-40902000D01*
X100107619Y-40759142D01*
X100155238Y-40711523D01*
X101107619Y-41854380D02*
X100774285Y-41378190D01*
X100536190Y-41854380D02*
X100536190Y-40854380D01*
X100917142Y-40854380D01*
X101012380Y-40902000D01*
X101060000Y-40949619D01*
X101107619Y-41044857D01*
X101107619Y-41187714D01*
X101060000Y-41282952D01*
X101012380Y-41330571D01*
X100917142Y-41378190D01*
X100536190Y-41378190D01*
X101440952Y-42235333D02*
X101488571Y-42187714D01*
X101583809Y-42044857D01*
X101631428Y-41949619D01*
X101679047Y-41806761D01*
X101726666Y-41568666D01*
X101726666Y-41378190D01*
X101679047Y-41140095D01*
X101631428Y-40997238D01*
X101583809Y-40902000D01*
X101488571Y-40759142D01*
X101440952Y-40711523D01*
%TO.C,L_SW__03*%
X96940952Y-79954380D02*
X96464761Y-79954380D01*
X96464761Y-78954380D01*
X97464761Y-78954380D02*
X97560000Y-78954380D01*
X97655238Y-79002000D01*
X97702857Y-79049619D01*
X97750476Y-79144857D01*
X97798095Y-79335333D01*
X97798095Y-79573428D01*
X97750476Y-79763904D01*
X97702857Y-79859142D01*
X97655238Y-79906761D01*
X97560000Y-79954380D01*
X97464761Y-79954380D01*
X97369523Y-79906761D01*
X97321904Y-79859142D01*
X97274285Y-79763904D01*
X97226666Y-79573428D01*
X97226666Y-79335333D01*
X97274285Y-79144857D01*
X97321904Y-79049619D01*
X97369523Y-79002000D01*
X97464761Y-78954380D01*
X98131428Y-78954380D02*
X98750476Y-78954380D01*
X98417142Y-79335333D01*
X98560000Y-79335333D01*
X98655238Y-79382952D01*
X98702857Y-79430571D01*
X98750476Y-79525809D01*
X98750476Y-79763904D01*
X98702857Y-79859142D01*
X98655238Y-79906761D01*
X98560000Y-79954380D01*
X98274285Y-79954380D01*
X98179047Y-79906761D01*
X98131428Y-79859142D01*
X100226666Y-80335333D02*
X100179047Y-80287714D01*
X100083809Y-80144857D01*
X100036190Y-80049619D01*
X99988571Y-79906761D01*
X99940952Y-79668666D01*
X99940952Y-79478190D01*
X99988571Y-79240095D01*
X100036190Y-79097238D01*
X100083809Y-79002000D01*
X100179047Y-78859142D01*
X100226666Y-78811523D01*
X100464761Y-78954380D02*
X100798095Y-79954380D01*
X101131428Y-78954380D01*
X101369523Y-80335333D02*
X101417142Y-80287714D01*
X101512380Y-80144857D01*
X101560000Y-80049619D01*
X101607619Y-79906761D01*
X101655238Y-79668666D01*
X101655238Y-79478190D01*
X101607619Y-79240095D01*
X101560000Y-79097238D01*
X101512380Y-79002000D01*
X101417142Y-78859142D01*
X101369523Y-78811523D01*
%TO.C,L_SW__10*%
X30600807Y-71375312D02*
X30131851Y-71458001D01*
X29958203Y-70473193D01*
X31444928Y-71226470D02*
X30882181Y-71325698D01*
X31163554Y-71276084D02*
X30989906Y-70291276D01*
X30920922Y-70448501D01*
X30843669Y-70558830D01*
X30758146Y-70622264D01*
X31880923Y-70134166D02*
X31974714Y-70117628D01*
X32076774Y-70147986D01*
X32131939Y-70186612D01*
X32195372Y-70272135D01*
X32275344Y-70451448D01*
X32316688Y-70685926D01*
X32302869Y-70881778D01*
X32272511Y-70983838D01*
X32233884Y-71039002D01*
X32148362Y-71102436D01*
X32054571Y-71118974D01*
X31952511Y-71088616D01*
X31897346Y-71049989D01*
X31833913Y-70964467D01*
X31753941Y-70785154D01*
X31712596Y-70550676D01*
X31726416Y-70354824D01*
X31756774Y-70252764D01*
X31795400Y-70197600D01*
X31880923Y-70134166D01*
X33902756Y-71179918D02*
X33847591Y-71141291D01*
X33728993Y-71017143D01*
X33665559Y-70931620D01*
X33593857Y-70799202D01*
X33505617Y-70572993D01*
X33472541Y-70385411D01*
X33478092Y-70142664D01*
X33500180Y-69993708D01*
X33530538Y-69891648D01*
X33599522Y-69734423D01*
X33638149Y-69679259D01*
X34115259Y-70465497D02*
X34584216Y-70382807D01*
X34071082Y-70763408D02*
X34225703Y-69720718D01*
X34727621Y-70647643D01*
X35028250Y-70981463D02*
X35066877Y-70926298D01*
X35135861Y-70769074D01*
X35166219Y-70667014D01*
X35188308Y-70518058D01*
X35193858Y-70275311D01*
X35160783Y-70087728D01*
X35072542Y-69861519D01*
X35000840Y-69729101D01*
X34937406Y-69643579D01*
X34818808Y-69519430D01*
X34763644Y-69480804D01*
%TO.C,L_SW__12*%
X76549523Y-55824380D02*
X76073333Y-55824380D01*
X76073333Y-54824380D01*
X77406666Y-55824380D02*
X76835238Y-55824380D01*
X77120952Y-55824380D02*
X77120952Y-54824380D01*
X77025714Y-54967238D01*
X76930476Y-55062476D01*
X76835238Y-55110095D01*
X77787619Y-54919619D02*
X77835238Y-54872000D01*
X77930476Y-54824380D01*
X78168571Y-54824380D01*
X78263809Y-54872000D01*
X78311428Y-54919619D01*
X78359047Y-55014857D01*
X78359047Y-55110095D01*
X78311428Y-55252952D01*
X77740000Y-55824380D01*
X78359047Y-55824380D01*
X79835238Y-56205333D02*
X79787619Y-56157714D01*
X79692380Y-56014857D01*
X79644761Y-55919619D01*
X79597142Y-55776761D01*
X79549523Y-55538666D01*
X79549523Y-55348190D01*
X79597142Y-55110095D01*
X79644761Y-54967238D01*
X79692380Y-54872000D01*
X79787619Y-54729142D01*
X79835238Y-54681523D01*
X80216190Y-55824380D02*
X80216190Y-54824380D01*
X80454285Y-54824380D01*
X80597142Y-54872000D01*
X80692380Y-54967238D01*
X80740000Y-55062476D01*
X80787619Y-55252952D01*
X80787619Y-55395809D01*
X80740000Y-55586285D01*
X80692380Y-55681523D01*
X80597142Y-55776761D01*
X80454285Y-55824380D01*
X80216190Y-55824380D01*
X81120952Y-56205333D02*
X81168571Y-56157714D01*
X81263809Y-56014857D01*
X81311428Y-55919619D01*
X81359047Y-55776761D01*
X81406666Y-55538666D01*
X81406666Y-55348190D01*
X81359047Y-55110095D01*
X81311428Y-54967238D01*
X81263809Y-54872000D01*
X81168571Y-54729142D01*
X81120952Y-54681523D01*
%TO.C,L_SW__11*%
X52778793Y-59808931D02*
X52304415Y-59850434D01*
X52217259Y-58854239D01*
X53632674Y-59734227D02*
X53063420Y-59784030D01*
X53348047Y-59759128D02*
X53260892Y-58762933D01*
X53178467Y-58913548D01*
X53091892Y-59016724D01*
X53001166Y-59072462D01*
X54581431Y-59651221D02*
X54012177Y-59701024D01*
X54296804Y-59676123D02*
X54209648Y-58679928D01*
X54127224Y-58830542D01*
X54040648Y-58933718D01*
X53949923Y-58989457D01*
X56085207Y-59902065D02*
X56033618Y-59858778D01*
X55926292Y-59724765D01*
X55870554Y-59634039D01*
X55810665Y-59495876D01*
X55742476Y-59262837D01*
X55725875Y-59073086D01*
X55752561Y-58831746D01*
X55787548Y-58685283D01*
X55826685Y-58586257D01*
X55909110Y-58435642D01*
X55952398Y-58384054D01*
X56379919Y-59446073D02*
X56526383Y-59481060D01*
X56763572Y-59460308D01*
X56854297Y-59404570D01*
X56897585Y-59352982D01*
X56936722Y-59253956D01*
X56928422Y-59159080D01*
X56872683Y-59068355D01*
X56821095Y-59025067D01*
X56722069Y-58985930D01*
X56528168Y-58955093D01*
X56429142Y-58915956D01*
X56377554Y-58872668D01*
X56321815Y-58781943D01*
X56313515Y-58687067D01*
X56352652Y-58588041D01*
X56395940Y-58536453D01*
X56486665Y-58480715D01*
X56723854Y-58459964D01*
X56870318Y-58494951D01*
X57318591Y-59794158D02*
X57361878Y-59742570D01*
X57444303Y-59591956D01*
X57483440Y-59492930D01*
X57518427Y-59346466D01*
X57545114Y-59105127D01*
X57528513Y-58915375D01*
X57460323Y-58682336D01*
X57400435Y-58544173D01*
X57344696Y-58453448D01*
X57237370Y-58319435D01*
X57185782Y-58276147D01*
%TO.C,L_EC1*%
X136004991Y-60642452D02*
X135957851Y-60548171D01*
X135957851Y-60501030D01*
X135981421Y-60430320D01*
X136052132Y-60359609D01*
X136122842Y-60336039D01*
X136169983Y-60336039D01*
X136240693Y-60359609D01*
X136429255Y-60548171D01*
X135934280Y-61043146D01*
X135769289Y-60878154D01*
X135745719Y-60807443D01*
X135745719Y-60760303D01*
X135769289Y-60689592D01*
X135816429Y-60642452D01*
X135887140Y-60618882D01*
X135934280Y-60618882D01*
X136004991Y-60642452D01*
X136169983Y-60807443D01*
X135203603Y-60312469D02*
X135439306Y-60548171D01*
X135698578Y-60336039D01*
X135651438Y-60336039D01*
X135580727Y-60312469D01*
X135462876Y-60194617D01*
X135439306Y-60123907D01*
X135439306Y-60076766D01*
X135462876Y-60006056D01*
X135580727Y-59888205D01*
X135651438Y-59864634D01*
X135698578Y-59864634D01*
X135769289Y-59888205D01*
X135887140Y-60006056D01*
X135910710Y-60076766D01*
X135910710Y-60123907D01*
X147434333Y-46379607D02*
X147167666Y-46379607D01*
X147167666Y-46798654D02*
X147167666Y-45998654D01*
X147548619Y-45998654D01*
X148234333Y-45998654D02*
X147853380Y-45998654D01*
X147815285Y-46379607D01*
X147853380Y-46341511D01*
X147929571Y-46303416D01*
X148120047Y-46303416D01*
X148196238Y-46341511D01*
X148234333Y-46379607D01*
X148272428Y-46455797D01*
X148272428Y-46646273D01*
X148234333Y-46722464D01*
X148196238Y-46760559D01*
X148120047Y-46798654D01*
X147929571Y-46798654D01*
X147853380Y-46760559D01*
X147815285Y-46722464D01*
X147377190Y-53999607D02*
X147491476Y-54037702D01*
X147529571Y-54075797D01*
X147567666Y-54151988D01*
X147567666Y-54266273D01*
X147529571Y-54342464D01*
X147491476Y-54380559D01*
X147415285Y-54418654D01*
X147110523Y-54418654D01*
X147110523Y-53618654D01*
X147377190Y-53618654D01*
X147453380Y-53656750D01*
X147491476Y-53694845D01*
X147529571Y-53771035D01*
X147529571Y-53847226D01*
X147491476Y-53923416D01*
X147453380Y-53961511D01*
X147377190Y-53999607D01*
X147110523Y-53999607D01*
X148329571Y-54418654D02*
X147872428Y-54418654D01*
X148101000Y-54418654D02*
X148101000Y-53618654D01*
X148024809Y-53732940D01*
X147948619Y-53809130D01*
X147872428Y-53847226D01*
X139109523Y-60468654D02*
X139109523Y-59668654D01*
X139300000Y-59668654D01*
X139414285Y-59706750D01*
X139490476Y-59782940D01*
X139528571Y-59859130D01*
X139566666Y-60011511D01*
X139566666Y-60125797D01*
X139528571Y-60278178D01*
X139490476Y-60354369D01*
X139414285Y-60430559D01*
X139300000Y-60468654D01*
X139109523Y-60468654D01*
X140290476Y-59668654D02*
X139909523Y-59668654D01*
X139871428Y-60049607D01*
X139909523Y-60011511D01*
X139985714Y-59973416D01*
X140176190Y-59973416D01*
X140252380Y-60011511D01*
X140290476Y-60049607D01*
X140328571Y-60125797D01*
X140328571Y-60316273D01*
X140290476Y-60392464D01*
X140252380Y-60430559D01*
X140176190Y-60468654D01*
X139985714Y-60468654D01*
X139909523Y-60430559D01*
X139871428Y-60392464D01*
X136169476Y-38416750D02*
X136093285Y-38378654D01*
X135979000Y-38378654D01*
X135864714Y-38416750D01*
X135788523Y-38492940D01*
X135750428Y-38569130D01*
X135712333Y-38721511D01*
X135712333Y-38835797D01*
X135750428Y-38988178D01*
X135788523Y-39064369D01*
X135864714Y-39140559D01*
X135979000Y-39178654D01*
X136055190Y-39178654D01*
X136169476Y-39140559D01*
X136207571Y-39102464D01*
X136207571Y-38835797D01*
X136055190Y-38835797D01*
X136550428Y-39178654D02*
X136550428Y-38378654D01*
X137007571Y-39178654D01*
X137007571Y-38378654D01*
X137388523Y-39178654D02*
X137388523Y-38378654D01*
X137579000Y-38378654D01*
X137693285Y-38416750D01*
X137769476Y-38492940D01*
X137807571Y-38569130D01*
X137845666Y-38721511D01*
X137845666Y-38835797D01*
X137807571Y-38988178D01*
X137769476Y-39064369D01*
X137693285Y-39140559D01*
X137579000Y-39178654D01*
X137388523Y-39178654D01*
X146634333Y-40918654D02*
X146901000Y-41718654D01*
X147167666Y-40918654D01*
X147891476Y-41642464D02*
X147853380Y-41680559D01*
X147739095Y-41718654D01*
X147662904Y-41718654D01*
X147548619Y-41680559D01*
X147472428Y-41604369D01*
X147434333Y-41528178D01*
X147396238Y-41375797D01*
X147396238Y-41261511D01*
X147434333Y-41109130D01*
X147472428Y-41032940D01*
X147548619Y-40956750D01*
X147662904Y-40918654D01*
X147739095Y-40918654D01*
X147853380Y-40956750D01*
X147891476Y-40994845D01*
X148691476Y-41642464D02*
X148653380Y-41680559D01*
X148539095Y-41718654D01*
X148462904Y-41718654D01*
X148348619Y-41680559D01*
X148272428Y-41604369D01*
X148234333Y-41528178D01*
X148196238Y-41375797D01*
X148196238Y-41261511D01*
X148234333Y-41109130D01*
X148272428Y-41032940D01*
X148348619Y-40956750D01*
X148462904Y-40918654D01*
X148539095Y-40918654D01*
X148653380Y-40956750D01*
X148691476Y-40994845D01*
D11*
X141697142Y-39049607D02*
X141697142Y-38478178D01*
X142897142Y-38478178D01*
X141754285Y-39906750D02*
X141697142Y-39792464D01*
X141697142Y-39563892D01*
X141754285Y-39449607D01*
X141868571Y-39392464D01*
X142325714Y-39392464D01*
X142440000Y-39449607D01*
X142497142Y-39563892D01*
X142497142Y-39792464D01*
X142440000Y-39906750D01*
X142325714Y-39963892D01*
X142211428Y-39963892D01*
X142097142Y-39392464D01*
X142497142Y-40306750D02*
X142497142Y-40763892D01*
X141697142Y-40478178D02*
X142725714Y-40478178D01*
X142840000Y-40535321D01*
X142897142Y-40649607D01*
X142897142Y-40763892D01*
X142497142Y-40992464D02*
X142497142Y-41449607D01*
X142897142Y-41163892D02*
X141868571Y-41163892D01*
X141754285Y-41221035D01*
X141697142Y-41335321D01*
X141697142Y-41449607D01*
X141754285Y-41906750D02*
X141697142Y-41906750D01*
X141582857Y-41849607D01*
X141525714Y-41792464D01*
X141811428Y-44021035D02*
X141754285Y-43963892D01*
X141697142Y-43792464D01*
X141697142Y-43678178D01*
X141754285Y-43506750D01*
X141868571Y-43392464D01*
X141982857Y-43335321D01*
X142211428Y-43278178D01*
X142382857Y-43278178D01*
X142611428Y-43335321D01*
X142725714Y-43392464D01*
X142840000Y-43506750D01*
X142897142Y-43678178D01*
X142897142Y-43792464D01*
X142840000Y-43963892D01*
X142782857Y-44021035D01*
X141697142Y-44706750D02*
X141754285Y-44592464D01*
X141811428Y-44535321D01*
X141925714Y-44478178D01*
X142268571Y-44478178D01*
X142382857Y-44535321D01*
X142440000Y-44592464D01*
X142497142Y-44706750D01*
X142497142Y-44878178D01*
X142440000Y-44992464D01*
X142382857Y-45049607D01*
X142268571Y-45106750D01*
X141925714Y-45106750D01*
X141811428Y-45049607D01*
X141754285Y-44992464D01*
X141697142Y-44878178D01*
X141697142Y-44706750D01*
X141697142Y-45621035D02*
X142497142Y-45621035D01*
X142382857Y-45621035D02*
X142440000Y-45678178D01*
X142497142Y-45792464D01*
X142497142Y-45963892D01*
X142440000Y-46078178D01*
X142325714Y-46135321D01*
X141697142Y-46135321D01*
X142325714Y-46135321D02*
X142440000Y-46192464D01*
X142497142Y-46306750D01*
X142497142Y-46478178D01*
X142440000Y-46592464D01*
X142325714Y-46649607D01*
X141697142Y-46649607D01*
X142497142Y-47221035D02*
X141297142Y-47221035D01*
X142440000Y-47221035D02*
X142497142Y-47335321D01*
X142497142Y-47563892D01*
X142440000Y-47678178D01*
X142382857Y-47735321D01*
X142268571Y-47792464D01*
X141925714Y-47792464D01*
X141811428Y-47735321D01*
X141754285Y-47678178D01*
X141697142Y-47563892D01*
X141697142Y-47335321D01*
X141754285Y-47221035D01*
X141697142Y-48478178D02*
X141754285Y-48363892D01*
X141811428Y-48306750D01*
X141925714Y-48249607D01*
X142268571Y-48249607D01*
X142382857Y-48306750D01*
X142440000Y-48363892D01*
X142497142Y-48478178D01*
X142497142Y-48649607D01*
X142440000Y-48763892D01*
X142382857Y-48821035D01*
X142268571Y-48878178D01*
X141925714Y-48878178D01*
X141811428Y-48821035D01*
X141754285Y-48763892D01*
X141697142Y-48649607D01*
X141697142Y-48478178D01*
X142497142Y-49392464D02*
X141697142Y-49392464D01*
X142382857Y-49392464D02*
X142440000Y-49449607D01*
X142497142Y-49563892D01*
X142497142Y-49735321D01*
X142440000Y-49849607D01*
X142325714Y-49906750D01*
X141697142Y-49906750D01*
X141754285Y-50935321D02*
X141697142Y-50821035D01*
X141697142Y-50592464D01*
X141754285Y-50478178D01*
X141868571Y-50421035D01*
X142325714Y-50421035D01*
X142440000Y-50478178D01*
X142497142Y-50592464D01*
X142497142Y-50821035D01*
X142440000Y-50935321D01*
X142325714Y-50992464D01*
X142211428Y-50992464D01*
X142097142Y-50421035D01*
X142497142Y-51506750D02*
X141697142Y-51506750D01*
X142382857Y-51506750D02*
X142440000Y-51563892D01*
X142497142Y-51678178D01*
X142497142Y-51849607D01*
X142440000Y-51963892D01*
X142325714Y-52021035D01*
X141697142Y-52021035D01*
X142497142Y-52421035D02*
X142497142Y-52878178D01*
X142897142Y-52592464D02*
X141868571Y-52592464D01*
X141754285Y-52649607D01*
X141697142Y-52763892D01*
X141697142Y-52878178D01*
X141754285Y-53221035D02*
X141697142Y-53335321D01*
X141697142Y-53563892D01*
X141754285Y-53678178D01*
X141868571Y-53735321D01*
X141925714Y-53735321D01*
X142040000Y-53678178D01*
X142097142Y-53563892D01*
X142097142Y-53392464D01*
X142154285Y-53278178D01*
X142268571Y-53221035D01*
X142325714Y-53221035D01*
X142440000Y-53278178D01*
X142497142Y-53392464D01*
X142497142Y-53563892D01*
X142440000Y-53678178D01*
X142897142Y-55163892D02*
X141925714Y-55163892D01*
X141811428Y-55221035D01*
X141754285Y-55278178D01*
X141697142Y-55392464D01*
X141697142Y-55621035D01*
X141754285Y-55735321D01*
X141811428Y-55792464D01*
X141925714Y-55849607D01*
X142897142Y-55849607D01*
X142497142Y-56421035D02*
X141297142Y-56421035D01*
X142440000Y-56421035D02*
X142497142Y-56535321D01*
X142497142Y-56763892D01*
X142440000Y-56878178D01*
X142382857Y-56935321D01*
X142268571Y-56992464D01*
X141925714Y-56992464D01*
X141811428Y-56935321D01*
X141754285Y-56878178D01*
X141697142Y-56763892D01*
X141697142Y-56535321D01*
X141754285Y-56421035D01*
D10*
X136477651Y-33298654D02*
X136934794Y-33298654D01*
X136706223Y-34098654D02*
X136706223Y-33298654D01*
X137125270Y-33298654D02*
X137658604Y-34098654D01*
X137658604Y-33298654D02*
X137125270Y-34098654D01*
X138115747Y-33298654D02*
X138191937Y-33298654D01*
X138268128Y-33336750D01*
X138306223Y-33374845D01*
X138344318Y-33451035D01*
X138382413Y-33603416D01*
X138382413Y-33793892D01*
X138344318Y-33946273D01*
X138306223Y-34022464D01*
X138268128Y-34060559D01*
X138191937Y-34098654D01*
X138115747Y-34098654D01*
X138039556Y-34060559D01*
X138001461Y-34022464D01*
X137963366Y-33946273D01*
X137925270Y-33793892D01*
X137925270Y-33603416D01*
X137963366Y-33451035D01*
X138001461Y-33374845D01*
X138039556Y-33336750D01*
X138115747Y-33298654D01*
X139296699Y-33260559D02*
X138610985Y-34289130D01*
X139563366Y-34098654D02*
X139563366Y-33298654D01*
X139753842Y-33298654D01*
X139868128Y-33336750D01*
X139944318Y-33412940D01*
X139982413Y-33489130D01*
X140020508Y-33641511D01*
X140020508Y-33755797D01*
X139982413Y-33908178D01*
X139944318Y-33984369D01*
X139868128Y-34060559D01*
X139753842Y-34098654D01*
X139563366Y-34098654D01*
X140287175Y-33298654D02*
X140782413Y-33298654D01*
X140515747Y-33603416D01*
X140630032Y-33603416D01*
X140706223Y-33641511D01*
X140744318Y-33679607D01*
X140782413Y-33755797D01*
X140782413Y-33946273D01*
X140744318Y-34022464D01*
X140706223Y-34060559D01*
X140630032Y-34098654D01*
X140401461Y-34098654D01*
X140325270Y-34060559D01*
X140287175Y-34022464D01*
X136455190Y-59079607D02*
X136569476Y-59117702D01*
X136607571Y-59155797D01*
X136645666Y-59231988D01*
X136645666Y-59346273D01*
X136607571Y-59422464D01*
X136569476Y-59460559D01*
X136493285Y-59498654D01*
X136188523Y-59498654D01*
X136188523Y-58698654D01*
X136455190Y-58698654D01*
X136531380Y-58736750D01*
X136569476Y-58774845D01*
X136607571Y-58851035D01*
X136607571Y-58927226D01*
X136569476Y-59003416D01*
X136531380Y-59041511D01*
X136455190Y-59079607D01*
X136188523Y-59079607D01*
X137331380Y-58965321D02*
X137331380Y-59498654D01*
X137140904Y-58660559D02*
X136950428Y-59231988D01*
X137445666Y-59231988D01*
X136188523Y-54418654D02*
X136188523Y-53618654D01*
X136379000Y-53618654D01*
X136493285Y-53656750D01*
X136569476Y-53732940D01*
X136607571Y-53809130D01*
X136645666Y-53961511D01*
X136645666Y-54075797D01*
X136607571Y-54228178D01*
X136569476Y-54304369D01*
X136493285Y-54380559D01*
X136379000Y-54418654D01*
X136188523Y-54418654D01*
X136912333Y-53618654D02*
X137445666Y-53618654D01*
X137102809Y-54418654D01*
X147377190Y-33679607D02*
X147491476Y-33717702D01*
X147529571Y-33755797D01*
X147567666Y-33831988D01*
X147567666Y-33946273D01*
X147529571Y-34022464D01*
X147491476Y-34060559D01*
X147415285Y-34098654D01*
X147110523Y-34098654D01*
X147110523Y-33298654D01*
X147377190Y-33298654D01*
X147453380Y-33336750D01*
X147491476Y-33374845D01*
X147529571Y-33451035D01*
X147529571Y-33527226D01*
X147491476Y-33603416D01*
X147453380Y-33641511D01*
X147377190Y-33679607D01*
X147110523Y-33679607D01*
X148062904Y-33298654D02*
X148139095Y-33298654D01*
X148215285Y-33336750D01*
X148253380Y-33374845D01*
X148291476Y-33451035D01*
X148329571Y-33603416D01*
X148329571Y-33793892D01*
X148291476Y-33946273D01*
X148253380Y-34022464D01*
X148215285Y-34060559D01*
X148139095Y-34098654D01*
X148062904Y-34098654D01*
X147986714Y-34060559D01*
X147948619Y-34022464D01*
X147910523Y-33946273D01*
X147872428Y-33793892D01*
X147872428Y-33603416D01*
X147910523Y-33451035D01*
X147948619Y-33374845D01*
X147986714Y-33336750D01*
X148062904Y-33298654D01*
X147439786Y-39110559D02*
X147554072Y-39148654D01*
X147744548Y-39148654D01*
X147820739Y-39110559D01*
X147858834Y-39072464D01*
X147896929Y-38996273D01*
X147896929Y-38920083D01*
X147858834Y-38843892D01*
X147820739Y-38805797D01*
X147744548Y-38767702D01*
X147592167Y-38729607D01*
X147515977Y-38691511D01*
X147477881Y-38653416D01*
X147439786Y-38577226D01*
X147439786Y-38501035D01*
X147477881Y-38424845D01*
X147515977Y-38386750D01*
X147592167Y-38348654D01*
X147782643Y-38348654D01*
X147896929Y-38386750D01*
X148125500Y-38348654D02*
X148582643Y-38348654D01*
X148354072Y-39148654D02*
X148354072Y-38348654D01*
X147377190Y-56539607D02*
X147491476Y-56577702D01*
X147529571Y-56615797D01*
X147567666Y-56691988D01*
X147567666Y-56806273D01*
X147529571Y-56882464D01*
X147491476Y-56920559D01*
X147415285Y-56958654D01*
X147110523Y-56958654D01*
X147110523Y-56158654D01*
X147377190Y-56158654D01*
X147453380Y-56196750D01*
X147491476Y-56234845D01*
X147529571Y-56311035D01*
X147529571Y-56387226D01*
X147491476Y-56463416D01*
X147453380Y-56501511D01*
X147377190Y-56539607D01*
X147110523Y-56539607D01*
X147834333Y-56158654D02*
X148329571Y-56158654D01*
X148062904Y-56463416D01*
X148177190Y-56463416D01*
X148253380Y-56501511D01*
X148291476Y-56539607D01*
X148329571Y-56615797D01*
X148329571Y-56806273D01*
X148291476Y-56882464D01*
X148253380Y-56920559D01*
X148177190Y-56958654D01*
X147948619Y-56958654D01*
X147872428Y-56920559D01*
X147834333Y-56882464D01*
X147434333Y-51459607D02*
X147167666Y-51459607D01*
X147167666Y-51878654D02*
X147167666Y-51078654D01*
X147548619Y-51078654D01*
X147777190Y-51078654D02*
X148310523Y-51078654D01*
X147967666Y-51878654D01*
X147434333Y-43839607D02*
X147167666Y-43839607D01*
X147167666Y-44258654D02*
X147167666Y-43458654D01*
X147548619Y-43458654D01*
X148196238Y-43725321D02*
X148196238Y-44258654D01*
X148005761Y-43420559D02*
X147815285Y-43991988D01*
X148310523Y-43991988D01*
X136188523Y-44258654D02*
X136188523Y-43458654D01*
X136379000Y-43458654D01*
X136493285Y-43496750D01*
X136569476Y-43572940D01*
X136607571Y-43649130D01*
X136645666Y-43801511D01*
X136645666Y-43915797D01*
X136607571Y-44068178D01*
X136569476Y-44144369D01*
X136493285Y-44220559D01*
X136379000Y-44258654D01*
X136188523Y-44258654D01*
X137407571Y-44258654D02*
X136950428Y-44258654D01*
X137179000Y-44258654D02*
X137179000Y-43458654D01*
X137102809Y-43572940D01*
X137026619Y-43649130D01*
X136950428Y-43687226D01*
X148404297Y-60571741D02*
X148498578Y-60524601D01*
X148545719Y-60524601D01*
X148616429Y-60548171D01*
X148687140Y-60618882D01*
X148710710Y-60689592D01*
X148710710Y-60736733D01*
X148687140Y-60807443D01*
X148498578Y-60996005D01*
X148003603Y-60501030D01*
X148168595Y-60336039D01*
X148239306Y-60312469D01*
X148286446Y-60312469D01*
X148357157Y-60336039D01*
X148404297Y-60383179D01*
X148427867Y-60453890D01*
X148427867Y-60501030D01*
X148404297Y-60571741D01*
X148239306Y-60736733D01*
X148710710Y-59793924D02*
X148616429Y-59888205D01*
X148592859Y-59958915D01*
X148592859Y-60006056D01*
X148616429Y-60123907D01*
X148687140Y-60241758D01*
X148875702Y-60430320D01*
X148946412Y-60453890D01*
X148993553Y-60453890D01*
X149064264Y-60430320D01*
X149158544Y-60336039D01*
X149182115Y-60265328D01*
X149182115Y-60218188D01*
X149158544Y-60147477D01*
X149040693Y-60029626D01*
X148969983Y-60006056D01*
X148922842Y-60006056D01*
X148852132Y-60029626D01*
X148757851Y-60123907D01*
X148734280Y-60194617D01*
X148734280Y-60241758D01*
X148757851Y-60312469D01*
X136188523Y-46798654D02*
X136188523Y-45998654D01*
X136379000Y-45998654D01*
X136493285Y-46036750D01*
X136569476Y-46112940D01*
X136607571Y-46189130D01*
X136645666Y-46341511D01*
X136645666Y-46455797D01*
X136607571Y-46608178D01*
X136569476Y-46684369D01*
X136493285Y-46760559D01*
X136379000Y-46798654D01*
X136188523Y-46798654D01*
X137140904Y-45998654D02*
X137217095Y-45998654D01*
X137293285Y-46036750D01*
X137331380Y-46074845D01*
X137369476Y-46151035D01*
X137407571Y-46303416D01*
X137407571Y-46493892D01*
X137369476Y-46646273D01*
X137331380Y-46722464D01*
X137293285Y-46760559D01*
X137217095Y-46798654D01*
X137140904Y-46798654D01*
X137064714Y-46760559D01*
X137026619Y-46722464D01*
X136988523Y-46646273D01*
X136950428Y-46493892D01*
X136950428Y-46303416D01*
X136988523Y-46151035D01*
X137026619Y-46074845D01*
X137064714Y-46036750D01*
X137140904Y-45998654D01*
X147377190Y-59079607D02*
X147491476Y-59117702D01*
X147529571Y-59155797D01*
X147567666Y-59231988D01*
X147567666Y-59346273D01*
X147529571Y-59422464D01*
X147491476Y-59460559D01*
X147415285Y-59498654D01*
X147110523Y-59498654D01*
X147110523Y-58698654D01*
X147377190Y-58698654D01*
X147453380Y-58736750D01*
X147491476Y-58774845D01*
X147529571Y-58851035D01*
X147529571Y-58927226D01*
X147491476Y-59003416D01*
X147453380Y-59041511D01*
X147377190Y-59079607D01*
X147110523Y-59079607D01*
X147872428Y-58774845D02*
X147910523Y-58736750D01*
X147986714Y-58698654D01*
X148177190Y-58698654D01*
X148253380Y-58736750D01*
X148291476Y-58774845D01*
X148329571Y-58851035D01*
X148329571Y-58927226D01*
X148291476Y-59041511D01*
X147834333Y-59498654D01*
X148329571Y-59498654D01*
X144513333Y-60049607D02*
X144246666Y-60049607D01*
X144246666Y-60468654D02*
X144246666Y-59668654D01*
X144627619Y-59668654D01*
X145351428Y-60468654D02*
X144894285Y-60468654D01*
X145122857Y-60468654D02*
X145122857Y-59668654D01*
X145046666Y-59782940D01*
X144970476Y-59859130D01*
X144894285Y-59897226D01*
X136188523Y-49338654D02*
X136188523Y-48538654D01*
X136379000Y-48538654D01*
X136493285Y-48576750D01*
X136569476Y-48652940D01*
X136607571Y-48729130D01*
X136645666Y-48881511D01*
X136645666Y-48995797D01*
X136607571Y-49148178D01*
X136569476Y-49224369D01*
X136493285Y-49300559D01*
X136379000Y-49338654D01*
X136188523Y-49338654D01*
X137331380Y-48805321D02*
X137331380Y-49338654D01*
X137140904Y-48500559D02*
X136950428Y-49071988D01*
X137445666Y-49071988D01*
X136226619Y-56539607D02*
X136493285Y-56539607D01*
X136607571Y-56958654D02*
X136226619Y-56958654D01*
X136226619Y-56158654D01*
X136607571Y-56158654D01*
X137293285Y-56158654D02*
X137140904Y-56158654D01*
X137064714Y-56196750D01*
X137026619Y-56234845D01*
X136950428Y-56349130D01*
X136912333Y-56501511D01*
X136912333Y-56806273D01*
X136950428Y-56882464D01*
X136988523Y-56920559D01*
X137064714Y-56958654D01*
X137217095Y-56958654D01*
X137293285Y-56920559D01*
X137331380Y-56882464D01*
X137369476Y-56806273D01*
X137369476Y-56615797D01*
X137331380Y-56539607D01*
X137293285Y-56501511D01*
X137217095Y-56463416D01*
X137064714Y-56463416D01*
X136988523Y-56501511D01*
X136950428Y-56539607D01*
X136912333Y-56615797D01*
X136188523Y-36638654D02*
X136188523Y-35838654D01*
X136379000Y-35838654D01*
X136493285Y-35876750D01*
X136569476Y-35952940D01*
X136607571Y-36029130D01*
X136645666Y-36181511D01*
X136645666Y-36295797D01*
X136607571Y-36448178D01*
X136569476Y-36524369D01*
X136493285Y-36600559D01*
X136379000Y-36638654D01*
X136188523Y-36638654D01*
X136950428Y-35914845D02*
X136988523Y-35876750D01*
X137064714Y-35838654D01*
X137255190Y-35838654D01*
X137331380Y-35876750D01*
X137369476Y-35914845D01*
X137407571Y-35991035D01*
X137407571Y-36067226D01*
X137369476Y-36181511D01*
X136912333Y-36638654D01*
X137407571Y-36638654D01*
X137456666Y-60256750D02*
X137556666Y-60290083D01*
X137590000Y-60323416D01*
X137623333Y-60390083D01*
X137623333Y-60490083D01*
X137590000Y-60556750D01*
X137556666Y-60590083D01*
X137490000Y-60623416D01*
X137223333Y-60623416D01*
X137223333Y-59923416D01*
X137456666Y-59923416D01*
X137523333Y-59956750D01*
X137556666Y-59990083D01*
X137590000Y-60056750D01*
X137590000Y-60123416D01*
X137556666Y-60190083D01*
X137523333Y-60223416D01*
X137456666Y-60256750D01*
X137223333Y-60256750D01*
X137856666Y-59923416D02*
X138323333Y-59923416D01*
X138023333Y-60623416D01*
X136169476Y-40956750D02*
X136093285Y-40918654D01*
X135979000Y-40918654D01*
X135864714Y-40956750D01*
X135788523Y-41032940D01*
X135750428Y-41109130D01*
X135712333Y-41261511D01*
X135712333Y-41375797D01*
X135750428Y-41528178D01*
X135788523Y-41604369D01*
X135864714Y-41680559D01*
X135979000Y-41718654D01*
X136055190Y-41718654D01*
X136169476Y-41680559D01*
X136207571Y-41642464D01*
X136207571Y-41375797D01*
X136055190Y-41375797D01*
X136550428Y-41718654D02*
X136550428Y-40918654D01*
X137007571Y-41718654D01*
X137007571Y-40918654D01*
X137388523Y-41718654D02*
X137388523Y-40918654D01*
X137579000Y-40918654D01*
X137693285Y-40956750D01*
X137769476Y-41032940D01*
X137807571Y-41109130D01*
X137845666Y-41261511D01*
X137845666Y-41375797D01*
X137807571Y-41528178D01*
X137769476Y-41604369D01*
X137693285Y-41680559D01*
X137579000Y-41718654D01*
X137388523Y-41718654D01*
X136645666Y-51802464D02*
X136607571Y-51840559D01*
X136493285Y-51878654D01*
X136417095Y-51878654D01*
X136302809Y-51840559D01*
X136226619Y-51764369D01*
X136188523Y-51688178D01*
X136150428Y-51535797D01*
X136150428Y-51421511D01*
X136188523Y-51269130D01*
X136226619Y-51192940D01*
X136302809Y-51116750D01*
X136417095Y-51078654D01*
X136493285Y-51078654D01*
X136607571Y-51116750D01*
X136645666Y-51154845D01*
X137331380Y-51078654D02*
X137179000Y-51078654D01*
X137102809Y-51116750D01*
X137064714Y-51154845D01*
X136988523Y-51269130D01*
X136950428Y-51421511D01*
X136950428Y-51726273D01*
X136988523Y-51802464D01*
X137026619Y-51840559D01*
X137102809Y-51878654D01*
X137255190Y-51878654D01*
X137331380Y-51840559D01*
X137369476Y-51802464D01*
X137407571Y-51726273D01*
X137407571Y-51535797D01*
X137369476Y-51459607D01*
X137331380Y-51421511D01*
X137255190Y-51383416D01*
X137102809Y-51383416D01*
X137026619Y-51421511D01*
X136988523Y-51459607D01*
X136950428Y-51535797D01*
X146506666Y-60256750D02*
X146273333Y-60256750D01*
X146273333Y-60623416D02*
X146273333Y-59923416D01*
X146606666Y-59923416D01*
X147006666Y-59923416D02*
X147073333Y-59923416D01*
X147140000Y-59956750D01*
X147173333Y-59990083D01*
X147206666Y-60056750D01*
X147240000Y-60190083D01*
X147240000Y-60356750D01*
X147206666Y-60490083D01*
X147173333Y-60556750D01*
X147140000Y-60590083D01*
X147073333Y-60623416D01*
X147006666Y-60623416D01*
X146940000Y-60590083D01*
X146906666Y-60556750D01*
X146873333Y-60490083D01*
X146840000Y-60356750D01*
X146840000Y-60190083D01*
X146873333Y-60056750D01*
X146906666Y-59990083D01*
X146940000Y-59956750D01*
X147006666Y-59923416D01*
X147091476Y-35876750D02*
X147015285Y-35838654D01*
X146901000Y-35838654D01*
X146786714Y-35876750D01*
X146710523Y-35952940D01*
X146672428Y-36029130D01*
X146634333Y-36181511D01*
X146634333Y-36295797D01*
X146672428Y-36448178D01*
X146710523Y-36524369D01*
X146786714Y-36600559D01*
X146901000Y-36638654D01*
X146977190Y-36638654D01*
X147091476Y-36600559D01*
X147129571Y-36562464D01*
X147129571Y-36295797D01*
X146977190Y-36295797D01*
X147472428Y-36638654D02*
X147472428Y-35838654D01*
X147929571Y-36638654D01*
X147929571Y-35838654D01*
X148310523Y-36638654D02*
X148310523Y-35838654D01*
X148501000Y-35838654D01*
X148615285Y-35876750D01*
X148691476Y-35952940D01*
X148729571Y-36029130D01*
X148767666Y-36181511D01*
X148767666Y-36295797D01*
X148729571Y-36448178D01*
X148691476Y-36524369D01*
X148615285Y-36600559D01*
X148501000Y-36638654D01*
X148310523Y-36638654D01*
X142106666Y-60392464D02*
X142068571Y-60430559D01*
X141954285Y-60468654D01*
X141878095Y-60468654D01*
X141763809Y-60430559D01*
X141687619Y-60354369D01*
X141649523Y-60278178D01*
X141611428Y-60125797D01*
X141611428Y-60011511D01*
X141649523Y-59859130D01*
X141687619Y-59782940D01*
X141763809Y-59706750D01*
X141878095Y-59668654D01*
X141954285Y-59668654D01*
X142068571Y-59706750D01*
X142106666Y-59744845D01*
X142373333Y-59668654D02*
X142906666Y-59668654D01*
X142563809Y-60468654D01*
X147434333Y-48919607D02*
X147167666Y-48919607D01*
X147167666Y-49338654D02*
X147167666Y-48538654D01*
X147548619Y-48538654D01*
X148196238Y-48538654D02*
X148043857Y-48538654D01*
X147967666Y-48576750D01*
X147929571Y-48614845D01*
X147853380Y-48729130D01*
X147815285Y-48881511D01*
X147815285Y-49186273D01*
X147853380Y-49262464D01*
X147891476Y-49300559D01*
X147967666Y-49338654D01*
X148120047Y-49338654D01*
X148196238Y-49300559D01*
X148234333Y-49262464D01*
X148272428Y-49186273D01*
X148272428Y-48995797D01*
X148234333Y-48919607D01*
X148196238Y-48881511D01*
X148120047Y-48843416D01*
X147967666Y-48843416D01*
X147891476Y-48881511D01*
X147853380Y-48919607D01*
X147815285Y-48995797D01*
%TO.C,L_SW__14*%
X117189523Y-63444380D02*
X116713333Y-63444380D01*
X116713333Y-62444380D01*
X118046666Y-63444380D02*
X117475238Y-63444380D01*
X117760952Y-63444380D02*
X117760952Y-62444380D01*
X117665714Y-62587238D01*
X117570476Y-62682476D01*
X117475238Y-62730095D01*
X118903809Y-62777714D02*
X118903809Y-63444380D01*
X118665714Y-62396761D02*
X118427619Y-63111047D01*
X119046666Y-63111047D01*
X120475238Y-63825333D02*
X120427619Y-63777714D01*
X120332380Y-63634857D01*
X120284761Y-63539619D01*
X120237142Y-63396761D01*
X120189523Y-63158666D01*
X120189523Y-62968190D01*
X120237142Y-62730095D01*
X120284761Y-62587238D01*
X120332380Y-62492000D01*
X120427619Y-62349142D01*
X120475238Y-62301523D01*
X121380000Y-62492000D02*
X121284761Y-62444380D01*
X121141904Y-62444380D01*
X120999047Y-62492000D01*
X120903809Y-62587238D01*
X120856190Y-62682476D01*
X120808571Y-62872952D01*
X120808571Y-63015809D01*
X120856190Y-63206285D01*
X120903809Y-63301523D01*
X120999047Y-63396761D01*
X121141904Y-63444380D01*
X121237142Y-63444380D01*
X121380000Y-63396761D01*
X121427619Y-63349142D01*
X121427619Y-63015809D01*
X121237142Y-63015809D01*
X121760952Y-63825333D02*
X121808571Y-63777714D01*
X121903809Y-63634857D01*
X121951428Y-63539619D01*
X121999047Y-63396761D01*
X122046666Y-63158666D01*
X122046666Y-62968190D01*
X121999047Y-62730095D01*
X121951428Y-62587238D01*
X121903809Y-62492000D01*
X121808571Y-62349142D01*
X121760952Y-62301523D01*
%TO.C,L_SW__T3*%
X98199335Y-104484719D02*
X97739371Y-104361472D01*
X97998190Y-103395546D01*
X98642140Y-103568092D02*
X99194098Y-103715988D01*
X98659300Y-104607966D02*
X98918119Y-103642040D01*
X99424080Y-103777612D02*
X100022034Y-103937833D01*
X99601461Y-104219532D01*
X99739451Y-104256506D01*
X99819119Y-104327152D01*
X99852791Y-104385473D01*
X99874138Y-104489791D01*
X99812514Y-104719773D01*
X99741868Y-104799441D01*
X99683547Y-104833113D01*
X99579229Y-104854460D01*
X99303251Y-104780512D01*
X99223582Y-104709866D01*
X99189911Y-104651545D01*
%TO.C,L_SW__00*%
X33876619Y-90173580D02*
X33407663Y-90256270D01*
X33234015Y-89271462D01*
X34218823Y-89097814D02*
X34312614Y-89081276D01*
X34414674Y-89111634D01*
X34469839Y-89150261D01*
X34533272Y-89235783D01*
X34613244Y-89415096D01*
X34654589Y-89649574D01*
X34640769Y-89845426D01*
X34610411Y-89947486D01*
X34571785Y-90002650D01*
X34486262Y-90066084D01*
X34392471Y-90082622D01*
X34290411Y-90052264D01*
X34235246Y-90013638D01*
X34171813Y-89928115D01*
X34091841Y-89748802D01*
X34050497Y-89514324D01*
X34064316Y-89318472D01*
X34094674Y-89216412D01*
X34133301Y-89161248D01*
X34218823Y-89097814D01*
X35156735Y-88932435D02*
X35250526Y-88915897D01*
X35352587Y-88946255D01*
X35407751Y-88984881D01*
X35471185Y-89070404D01*
X35551156Y-89249717D01*
X35592501Y-89484195D01*
X35578681Y-89680047D01*
X35548323Y-89782107D01*
X35509697Y-89837271D01*
X35424175Y-89900705D01*
X35330383Y-89917243D01*
X35228323Y-89886885D01*
X35173159Y-89848258D01*
X35109725Y-89762736D01*
X35029754Y-89583423D01*
X34988409Y-89348945D01*
X35002229Y-89153093D01*
X35032586Y-89051033D01*
X35071213Y-88995868D01*
X35156735Y-88932435D01*
X37178568Y-89978187D02*
X37123404Y-89939560D01*
X37004805Y-89815412D01*
X36941372Y-89729889D01*
X36869669Y-89597471D01*
X36781429Y-89371262D01*
X36748353Y-89183680D01*
X36753904Y-88940933D01*
X36775993Y-88791977D01*
X36806350Y-88689917D01*
X36875335Y-88532692D01*
X36913961Y-88477528D01*
X37220142Y-88568601D02*
X37876680Y-88452835D01*
X37393790Y-89553408D01*
X38050329Y-89437643D01*
X38397854Y-89763194D02*
X38436481Y-89708029D01*
X38505465Y-89550805D01*
X38535823Y-89448745D01*
X38557911Y-89299789D01*
X38563462Y-89057042D01*
X38530386Y-88869459D01*
X38442146Y-88643250D01*
X38370443Y-88510832D01*
X38307010Y-88425310D01*
X38188412Y-88301161D01*
X38133247Y-88262535D01*
%TO.C,L_SW__22*%
X76597142Y-36774380D02*
X76120952Y-36774380D01*
X76120952Y-35774380D01*
X76882857Y-35869619D02*
X76930476Y-35822000D01*
X77025714Y-35774380D01*
X77263809Y-35774380D01*
X77359047Y-35822000D01*
X77406666Y-35869619D01*
X77454285Y-35964857D01*
X77454285Y-36060095D01*
X77406666Y-36202952D01*
X76835238Y-36774380D01*
X77454285Y-36774380D01*
X77835238Y-35869619D02*
X77882857Y-35822000D01*
X77978095Y-35774380D01*
X78216190Y-35774380D01*
X78311428Y-35822000D01*
X78359047Y-35869619D01*
X78406666Y-35964857D01*
X78406666Y-36060095D01*
X78359047Y-36202952D01*
X77787619Y-36774380D01*
X78406666Y-36774380D01*
X79882857Y-37155333D02*
X79835238Y-37107714D01*
X79740000Y-36964857D01*
X79692380Y-36869619D01*
X79644761Y-36726761D01*
X79597142Y-36488666D01*
X79597142Y-36298190D01*
X79644761Y-36060095D01*
X79692380Y-35917238D01*
X79740000Y-35822000D01*
X79835238Y-35679142D01*
X79882857Y-35631523D01*
X80263809Y-36250571D02*
X80597142Y-36250571D01*
X80740000Y-36774380D02*
X80263809Y-36774380D01*
X80263809Y-35774380D01*
X80740000Y-35774380D01*
X81073333Y-37155333D02*
X81120952Y-37107714D01*
X81216190Y-36964857D01*
X81263809Y-36869619D01*
X81311428Y-36726761D01*
X81359047Y-36488666D01*
X81359047Y-36298190D01*
X81311428Y-36060095D01*
X81263809Y-35917238D01*
X81216190Y-35822000D01*
X81120952Y-35679142D01*
X81073333Y-35631523D01*
%TO.C,L_SW__24*%
X117308571Y-44394380D02*
X116832380Y-44394380D01*
X116832380Y-43394380D01*
X117594285Y-43489619D02*
X117641904Y-43442000D01*
X117737142Y-43394380D01*
X117975238Y-43394380D01*
X118070476Y-43442000D01*
X118118095Y-43489619D01*
X118165714Y-43584857D01*
X118165714Y-43680095D01*
X118118095Y-43822952D01*
X117546666Y-44394380D01*
X118165714Y-44394380D01*
X119022857Y-43727714D02*
X119022857Y-44394380D01*
X118784761Y-43346761D02*
X118546666Y-44061047D01*
X119165714Y-44061047D01*
X120594285Y-44775333D02*
X120546666Y-44727714D01*
X120451428Y-44584857D01*
X120403809Y-44489619D01*
X120356190Y-44346761D01*
X120308571Y-44108666D01*
X120308571Y-43918190D01*
X120356190Y-43680095D01*
X120403809Y-43537238D01*
X120451428Y-43442000D01*
X120546666Y-43299142D01*
X120594285Y-43251523D01*
X120832380Y-43394380D02*
X121403809Y-43394380D01*
X121118095Y-44394380D02*
X121118095Y-43394380D01*
X121641904Y-44775333D02*
X121689523Y-44727714D01*
X121784761Y-44584857D01*
X121832380Y-44489619D01*
X121880000Y-44346761D01*
X121927619Y-44108666D01*
X121927619Y-43918190D01*
X121880000Y-43680095D01*
X121832380Y-43537238D01*
X121784761Y-43442000D01*
X121689523Y-43299142D01*
X121641904Y-43251523D01*
%TO.C,L_SW__02*%
X76549523Y-74874380D02*
X76073333Y-74874380D01*
X76073333Y-73874380D01*
X77073333Y-73874380D02*
X77168571Y-73874380D01*
X77263809Y-73922000D01*
X77311428Y-73969619D01*
X77359047Y-74064857D01*
X77406666Y-74255333D01*
X77406666Y-74493428D01*
X77359047Y-74683904D01*
X77311428Y-74779142D01*
X77263809Y-74826761D01*
X77168571Y-74874380D01*
X77073333Y-74874380D01*
X76978095Y-74826761D01*
X76930476Y-74779142D01*
X76882857Y-74683904D01*
X76835238Y-74493428D01*
X76835238Y-74255333D01*
X76882857Y-74064857D01*
X76930476Y-73969619D01*
X76978095Y-73922000D01*
X77073333Y-73874380D01*
X77787619Y-73969619D02*
X77835238Y-73922000D01*
X77930476Y-73874380D01*
X78168571Y-73874380D01*
X78263809Y-73922000D01*
X78311428Y-73969619D01*
X78359047Y-74064857D01*
X78359047Y-74160095D01*
X78311428Y-74302952D01*
X77740000Y-74874380D01*
X78359047Y-74874380D01*
X79835238Y-75255333D02*
X79787619Y-75207714D01*
X79692380Y-75064857D01*
X79644761Y-74969619D01*
X79597142Y-74826761D01*
X79549523Y-74588666D01*
X79549523Y-74398190D01*
X79597142Y-74160095D01*
X79644761Y-74017238D01*
X79692380Y-73922000D01*
X79787619Y-73779142D01*
X79835238Y-73731523D01*
X80787619Y-74779142D02*
X80740000Y-74826761D01*
X80597142Y-74874380D01*
X80501904Y-74874380D01*
X80359047Y-74826761D01*
X80263809Y-74731523D01*
X80216190Y-74636285D01*
X80168571Y-74445809D01*
X80168571Y-74302952D01*
X80216190Y-74112476D01*
X80263809Y-74017238D01*
X80359047Y-73922000D01*
X80501904Y-73874380D01*
X80597142Y-73874380D01*
X80740000Y-73922000D01*
X80787619Y-73969619D01*
X81120952Y-75255333D02*
X81168571Y-75207714D01*
X81263809Y-75064857D01*
X81311428Y-74969619D01*
X81359047Y-74826761D01*
X81406666Y-74588666D01*
X81406666Y-74398190D01*
X81359047Y-74160095D01*
X81311428Y-74017238D01*
X81263809Y-73922000D01*
X81168571Y-73779142D01*
X81120952Y-73731523D01*
%TO.C,L_SW__T1*%
X137458026Y-127527523D02*
X137121308Y-127190805D01*
X137828415Y-126483699D01*
X138299820Y-126955103D02*
X138703881Y-127359164D01*
X137794743Y-127864241D02*
X138501850Y-127157134D01*
X138602865Y-128672363D02*
X138198804Y-128268302D01*
X138400835Y-128470332D02*
X139107942Y-127763225D01*
X138939583Y-127796897D01*
X138804896Y-127796897D01*
X138703881Y-127763225D01*
%TO.C,L_SW__21*%
X50905918Y-40767232D02*
X50431539Y-40808735D01*
X50344383Y-39812540D01*
X51111689Y-39841011D02*
X51154977Y-39789423D01*
X51245702Y-39733685D01*
X51482892Y-39712933D01*
X51581918Y-39752071D01*
X51633506Y-39795358D01*
X51689244Y-39886084D01*
X51697545Y-39980959D01*
X51662558Y-40127423D01*
X51143107Y-40746481D01*
X51759799Y-40692527D01*
X52708556Y-40609522D02*
X52139301Y-40659325D01*
X52423929Y-40634423D02*
X52336773Y-39638229D01*
X52254348Y-39788843D01*
X52167773Y-39892019D01*
X52077047Y-39947757D01*
X54212331Y-40860366D02*
X54160743Y-40817078D01*
X54053416Y-40683065D01*
X53997678Y-40592340D01*
X53937789Y-40454177D01*
X53869600Y-40221138D01*
X53852999Y-40031386D01*
X53879685Y-39790047D01*
X53914672Y-39643583D01*
X53953810Y-39544557D01*
X54036235Y-39393943D01*
X54079522Y-39342355D01*
X54376600Y-39459767D02*
X54700945Y-40435210D01*
X54828442Y-39707041D01*
X55080448Y-40402008D01*
X55230481Y-39385062D01*
X55635466Y-40735858D02*
X55678754Y-40684270D01*
X55761179Y-40533655D01*
X55800316Y-40434630D01*
X55835303Y-40288166D01*
X55861989Y-40046826D01*
X55845388Y-39857075D01*
X55777199Y-39624036D01*
X55717310Y-39485873D01*
X55661572Y-39395147D01*
X55554246Y-39261134D01*
X55502657Y-39217847D01*
D12*
%TO.C,L_SW_RE1*%
X151522000Y-94392000D02*
X151522000Y-96792000D01*
X145422000Y-90392000D02*
X145422000Y-91392000D01*
X151522000Y-96792000D02*
X147422000Y-96792000D01*
X138222000Y-86792000D02*
X137922000Y-87092000D01*
X151522000Y-89592000D02*
X151522000Y-92192000D01*
X139322000Y-84992000D02*
X139322000Y-96792000D01*
X147422000Y-84992000D02*
X151522000Y-84992000D01*
X151522000Y-84992000D02*
X151522000Y-87392000D01*
X137922000Y-87092000D02*
X137622000Y-86792000D01*
X144922000Y-90892000D02*
X145922000Y-90892000D01*
X143422000Y-84992000D02*
X139322000Y-84992000D01*
X137622000Y-86792000D02*
X138222000Y-86792000D01*
X143422000Y-96792000D02*
X139322000Y-96792000D01*
X148422000Y-90892000D02*
G75*
G03*
X148422000Y-90892000I-3000000J0D01*
G01*
D10*
%TO.C,L_SW__20*%
X23023883Y-56623192D02*
X24008691Y-56449543D01*
X23023883Y-56623192D02*
X22850235Y-55638384D01*
X20766457Y-43820691D02*
X20592808Y-42835883D01*
X36637543Y-53207309D02*
X36811192Y-54192117D01*
X35826384Y-54365765D02*
X36811192Y-54192117D01*
X34380117Y-40404808D02*
X33395309Y-40578457D01*
X21577616Y-42662235D02*
X20592808Y-42835883D01*
X34380117Y-40404808D02*
X34553765Y-41389616D01*
%TO.C,L_SW__01*%
X49800742Y-68479572D02*
X48804547Y-68566727D01*
X50024727Y-82513453D02*
X49937572Y-81517258D01*
X63884297Y-80297078D02*
X63971453Y-81293273D01*
X48891703Y-69562922D02*
X48804547Y-68566727D01*
X50024727Y-82513453D02*
X51020922Y-82426297D01*
X62975258Y-81380428D02*
X63971453Y-81293273D01*
X62751273Y-67346547D02*
X61755078Y-67433703D01*
X62751273Y-67346547D02*
X62838428Y-68342742D01*
%TO.C,L_SW__04*%
X126380000Y-84740000D02*
X126380000Y-85740000D01*
X113380000Y-71740000D02*
X112380000Y-71740000D01*
X112380000Y-85740000D02*
X112380000Y-84740000D01*
X126380000Y-71740000D02*
X126380000Y-72740000D01*
X125380000Y-85740000D02*
X126380000Y-85740000D01*
X112380000Y-72740000D02*
X112380000Y-71740000D01*
X112380000Y-85740000D02*
X113380000Y-85740000D01*
X126380000Y-71740000D02*
X125380000Y-71740000D01*
%TO.C,L_SW__13*%
X106060000Y-50030000D02*
X105060000Y-50030000D01*
X92060000Y-64030000D02*
X93060000Y-64030000D01*
X106060000Y-50030000D02*
X106060000Y-51030000D01*
X92060000Y-64030000D02*
X92060000Y-63030000D01*
X105060000Y-64030000D02*
X106060000Y-64030000D01*
X92060000Y-51030000D02*
X92060000Y-50030000D01*
X93060000Y-50030000D02*
X92060000Y-50030000D01*
X106060000Y-63030000D02*
X106060000Y-64030000D01*
%TO.C,L_SW__T2*%
X131482178Y-107947822D02*
X130616152Y-107447822D01*
X120223848Y-101447822D02*
X119357822Y-100947822D01*
X131482178Y-107947822D02*
X130982178Y-108813848D01*
X112357822Y-113072178D02*
X112857822Y-112206152D01*
X118857822Y-101813848D02*
X119357822Y-100947822D01*
X124982178Y-119206152D02*
X124482178Y-120072178D01*
X112357822Y-113072178D02*
X113223848Y-113572178D01*
X123616152Y-119572178D02*
X124482178Y-120072178D01*
%TO.C,L_SW__23*%
X106060000Y-44100000D02*
X106060000Y-45100000D01*
X92060000Y-45100000D02*
X93060000Y-45100000D01*
X105060000Y-45100000D02*
X106060000Y-45100000D01*
X106060000Y-31100000D02*
X105060000Y-31100000D01*
X92060000Y-32100000D02*
X92060000Y-31100000D01*
X93060000Y-31100000D02*
X92060000Y-31100000D01*
X106060000Y-31100000D02*
X106060000Y-32100000D01*
X92060000Y-45100000D02*
X92060000Y-44100000D01*
%TO.C,L_TRRS1*%
X153194500Y-72130000D02*
X155194500Y-72130000D01*
X153194500Y-71880000D02*
X141094500Y-71880000D01*
X153194500Y-77980000D02*
X141094500Y-77980000D01*
X153194500Y-77980000D02*
X153194500Y-71880000D01*
X153194500Y-77730000D02*
X155194500Y-77730000D01*
X155194500Y-77730000D02*
X155194500Y-72130000D01*
X141094500Y-77980000D02*
X141094500Y-71880000D01*
%TO.C,L_SW__03*%
X92060000Y-83200000D02*
X92060000Y-82200000D01*
X106060000Y-69200000D02*
X105060000Y-69200000D01*
X106060000Y-82200000D02*
X106060000Y-83200000D01*
X106060000Y-69200000D02*
X106060000Y-70200000D01*
X105060000Y-83200000D02*
X106060000Y-83200000D01*
X93060000Y-69200000D02*
X92060000Y-69200000D01*
X92060000Y-70200000D02*
X92060000Y-69200000D01*
X92060000Y-83200000D02*
X93060000Y-83200000D01*
%TO.C,L_SW__10*%
X26357604Y-75419192D02*
X26183956Y-74434384D01*
X24911337Y-61458235D02*
X23926529Y-61631883D01*
X26357604Y-75419192D02*
X27342412Y-75245543D01*
X37713838Y-59200808D02*
X36729030Y-59374457D01*
X39160105Y-73161765D02*
X40144913Y-72988117D01*
X39971264Y-72003309D02*
X40144913Y-72988117D01*
X24100178Y-62616691D02*
X23926529Y-61631883D01*
X37713838Y-59200808D02*
X37887486Y-60185616D01*
%TO.C,L_SW__12*%
X85740000Y-45070000D02*
X84740000Y-45070000D01*
X85740000Y-58070000D02*
X85740000Y-59070000D01*
X71740000Y-46070000D02*
X71740000Y-45070000D01*
X71740000Y-59070000D02*
X72740000Y-59070000D01*
X85740000Y-45070000D02*
X85740000Y-46070000D01*
X71740000Y-59070000D02*
X71740000Y-58070000D01*
X72740000Y-45070000D02*
X71740000Y-45070000D01*
X84740000Y-59070000D02*
X85740000Y-59070000D01*
%TO.C,L_SW__11*%
X48246727Y-63463453D02*
X49242922Y-63376297D01*
X61197258Y-62330428D02*
X62193453Y-62243273D01*
X48022742Y-49429572D02*
X47026547Y-49516727D01*
X48246727Y-63463453D02*
X48159572Y-62467258D01*
X47113703Y-50512922D02*
X47026547Y-49516727D01*
X62106297Y-61247078D02*
X62193453Y-62243273D01*
X60973273Y-48296547D02*
X61060428Y-49292742D01*
X60973273Y-48296547D02*
X59977078Y-48383703D01*
D13*
%TO.C,L_EC1*%
X151130000Y-62946750D02*
X151130000Y-32466750D01*
X133350000Y-29926750D02*
X133350000Y-32466750D01*
X151130000Y-29926750D02*
X133350000Y-29926750D01*
X133350000Y-32466750D02*
X133350000Y-62946750D01*
X135890000Y-32466750D02*
X133350000Y-32466750D01*
X133350000Y-62946750D02*
X151130000Y-62946750D01*
X151130000Y-32466750D02*
X151130000Y-29926750D01*
X135890000Y-35006750D02*
X133350000Y-35006750D01*
X135890000Y-32466750D02*
X135890000Y-35006750D01*
G36*
X146771568Y-39146110D02*
G01*
X146671568Y-39146110D01*
X146671568Y-38346110D01*
X146771568Y-38346110D01*
X146771568Y-39146110D01*
G37*
D10*
X146771568Y-39146110D02*
X146671568Y-39146110D01*
X146671568Y-38346110D01*
X146771568Y-38346110D01*
X146771568Y-39146110D01*
G36*
X146971568Y-38846110D02*
G01*
X146871568Y-38846110D01*
X146871568Y-38746110D01*
X146971568Y-38746110D01*
X146971568Y-38846110D01*
G37*
X146971568Y-38846110D02*
X146871568Y-38846110D01*
X146871568Y-38746110D01*
X146971568Y-38746110D01*
X146971568Y-38846110D01*
G36*
X147171568Y-39146110D02*
G01*
X147071568Y-39146110D01*
X147071568Y-38946110D01*
X147171568Y-38946110D01*
X147171568Y-39146110D01*
G37*
X147171568Y-39146110D02*
X147071568Y-39146110D01*
X147071568Y-38946110D01*
X147171568Y-38946110D01*
X147171568Y-39146110D01*
G36*
X147171568Y-38646110D02*
G01*
X147071568Y-38646110D01*
X147071568Y-38346110D01*
X147171568Y-38346110D01*
X147171568Y-38646110D01*
G37*
X147171568Y-38646110D02*
X147071568Y-38646110D01*
X147071568Y-38346110D01*
X147171568Y-38346110D01*
X147171568Y-38646110D01*
G36*
X147171568Y-38446110D02*
G01*
X146671568Y-38446110D01*
X146671568Y-38346110D01*
X147171568Y-38346110D01*
X147171568Y-38446110D01*
G37*
X147171568Y-38446110D02*
X146671568Y-38446110D01*
X146671568Y-38346110D01*
X147171568Y-38346110D01*
X147171568Y-38446110D01*
%TO.C,L_SW__14*%
X126380000Y-65690000D02*
X126380000Y-66690000D01*
X126380000Y-52690000D02*
X125380000Y-52690000D01*
X112380000Y-53690000D02*
X112380000Y-52690000D01*
X112380000Y-66690000D02*
X113380000Y-66690000D01*
X112380000Y-66690000D02*
X112380000Y-65690000D01*
X125380000Y-66690000D02*
X126380000Y-66690000D01*
X126380000Y-52690000D02*
X126380000Y-53690000D01*
X113380000Y-52690000D02*
X112380000Y-52690000D01*
%TO.C,L_SW__T3*%
X108273214Y-96050253D02*
X107307288Y-95791433D01*
X91126786Y-105949747D02*
X92092712Y-106208567D01*
X104908567Y-108607288D02*
X104649747Y-109573214D01*
X91126786Y-105949747D02*
X91385605Y-104983822D01*
X95716178Y-92685605D02*
X94750253Y-92426786D01*
X94491433Y-93392712D02*
X94750253Y-92426786D01*
X108273214Y-96050253D02*
X108014395Y-97016178D01*
X103683822Y-109314395D02*
X104649747Y-109573214D01*
%TO.C,L_SW__00*%
X29680312Y-94209192D02*
X30665120Y-94035543D01*
X42482813Y-91951765D02*
X43467621Y-91778117D01*
X28234045Y-80248235D02*
X27249237Y-80421883D01*
X43293972Y-90793309D02*
X43467621Y-91778117D01*
X41036546Y-77990808D02*
X41210194Y-78975616D01*
X27422886Y-81406691D02*
X27249237Y-80421883D01*
X41036546Y-77990808D02*
X40051738Y-78164457D01*
X29680312Y-94209192D02*
X29506664Y-93224384D01*
%TO.C,L_SW__22*%
X85740000Y-26020000D02*
X84740000Y-26020000D01*
X84740000Y-40020000D02*
X85740000Y-40020000D01*
X85740000Y-39020000D02*
X85740000Y-40020000D01*
X85740000Y-26020000D02*
X85740000Y-27020000D01*
X71740000Y-40020000D02*
X72740000Y-40020000D01*
X71740000Y-27020000D02*
X71740000Y-26020000D01*
X72740000Y-26020000D02*
X71740000Y-26020000D01*
X71740000Y-40020000D02*
X71740000Y-39020000D01*
%TO.C,L_SW__24*%
X112380000Y-47640000D02*
X113380000Y-47640000D01*
X113380000Y-33640000D02*
X112380000Y-33640000D01*
X112380000Y-47640000D02*
X112380000Y-46640000D01*
X125380000Y-47640000D02*
X126380000Y-47640000D01*
X126380000Y-33640000D02*
X126380000Y-34640000D01*
X126380000Y-46640000D02*
X126380000Y-47640000D01*
X126380000Y-33640000D02*
X125380000Y-33640000D01*
X112380000Y-34640000D02*
X112380000Y-33640000D01*
%TO.C,L_SW__02*%
X71740000Y-78120000D02*
X71740000Y-77120000D01*
X85740000Y-77120000D02*
X85740000Y-78120000D01*
X71740000Y-65120000D02*
X71740000Y-64120000D01*
X72740000Y-64120000D02*
X71740000Y-64120000D01*
X85740000Y-64120000D02*
X85740000Y-65120000D01*
X85740000Y-64120000D02*
X84740000Y-64120000D01*
X71740000Y-78120000D02*
X72740000Y-78120000D01*
X84740000Y-78120000D02*
X85740000Y-78120000D01*
%TO.C,L_SW__T1*%
X150399495Y-125260000D02*
X149692388Y-125967107D01*
X139792893Y-134452388D02*
X140500000Y-135159495D01*
X139792893Y-116067612D02*
X140500000Y-115360505D01*
X141207107Y-134452388D02*
X140500000Y-135159495D01*
X150399495Y-125260000D02*
X149692388Y-124552893D01*
X130600505Y-125260000D02*
X131307612Y-125967107D01*
X141207107Y-116067612D02*
X140500000Y-115360505D01*
X130600505Y-125260000D02*
X131307612Y-124552893D01*
%TO.C,L_SW__21*%
X59195273Y-29246547D02*
X58199078Y-29333703D01*
X59419258Y-43280428D02*
X60415453Y-43193273D01*
X46244742Y-30379572D02*
X45248547Y-30466727D01*
X46468727Y-44413453D02*
X47464922Y-44326297D01*
X45335703Y-31462922D02*
X45248547Y-30466727D01*
X59195273Y-29246547D02*
X59282428Y-30242742D01*
X60328297Y-42197078D02*
X60415453Y-43193273D01*
X46468727Y-44413453D02*
X46381572Y-43417258D01*
%TO.C,R_SW__T1*%
X141809038Y-116690757D02*
X141539631Y-116960164D01*
X139384369Y-119115426D02*
X138665949Y-119833846D01*
X148095218Y-122976936D02*
X141809038Y-116690757D01*
X145131733Y-128993708D02*
X145401141Y-129263115D01*
X138665949Y-119833846D02*
X142258051Y-123425949D01*
X145670549Y-128993708D02*
X145401141Y-129263115D01*
X148095218Y-126569038D02*
X147825810Y-126838446D01*
X142653438Y-126515413D02*
X143874497Y-127736472D01*
X148095218Y-126569038D02*
G75*
G03*
X148095218Y-122976936I-1796053J1796051D01*
G01*
X142640031Y-126528820D02*
G75*
G03*
X142258051Y-123425949I-2178034J1306820D01*
G01*
%TO.C,R_SW__03*%
X105029000Y-75565000D02*
X105410000Y-75565000D01*
X101524162Y-75565000D02*
X103251000Y-75565000D01*
X93980000Y-73660000D02*
X99060000Y-73660000D01*
X93980000Y-69215000D02*
X93980000Y-69596000D01*
X102870000Y-69215000D02*
X93980000Y-69215000D01*
X105410000Y-71755000D02*
X105410000Y-72136000D01*
X105410000Y-75184000D02*
X105410000Y-75565000D01*
X93980000Y-72644000D02*
X93980000Y-73660000D01*
X105410000Y-71755000D02*
G75*
G03*
X102870000Y-69215000I-2540001J-1D01*
G01*
X101524161Y-75583960D02*
G75*
G03*
X99060000Y-73660000I-2464161J-616039D01*
G01*
%TO.C,R_SW__T2*%
X118770591Y-105760295D02*
X123170000Y-108300295D01*
X124351527Y-111182155D02*
X125847012Y-112045574D01*
X127907261Y-112795118D02*
X127716761Y-113125074D01*
X127386806Y-112934574D02*
X127716761Y-113125074D01*
X119278591Y-104880414D02*
X118770591Y-105760295D01*
X129621761Y-109825517D02*
X129431261Y-110155473D01*
X128692057Y-106355813D02*
X120993091Y-101910813D01*
X120993091Y-101910813D02*
X120802591Y-102240768D01*
X124342047Y-111198575D02*
G75*
G03*
X123170000Y-108300295I-2442050J698574D01*
G01*
X129621761Y-109825517D02*
G75*
G03*
X128692057Y-106355813I-2199706J1270000D01*
G01*
%TO.C,R_SW__22*%
X85090000Y-32004000D02*
X85090000Y-32385000D01*
X82550000Y-26035000D02*
X73660000Y-26035000D01*
X73660000Y-29464000D02*
X73660000Y-30480000D01*
X84709000Y-32385000D02*
X85090000Y-32385000D01*
X73660000Y-26035000D02*
X73660000Y-26416000D01*
X85090000Y-28575000D02*
X85090000Y-28956000D01*
X81204162Y-32385000D02*
X82931000Y-32385000D01*
X73660000Y-30480000D02*
X78740000Y-30480000D01*
X81204161Y-32403960D02*
G75*
G03*
X78740000Y-30480000I-2464161J-616039D01*
G01*
X85090000Y-28575000D02*
G75*
G03*
X82550000Y-26035000I-2540001J-1D01*
G01*
%TO.C,R_SW__21*%
X47461405Y-33730283D02*
X47549955Y-34742417D01*
X58722942Y-35677184D02*
X59102492Y-35643977D01*
X59069286Y-35264427D02*
X59102492Y-35643977D01*
X58770429Y-31848476D02*
X58803635Y-32228026D01*
X47549955Y-34742417D02*
X52610624Y-34299665D01*
X55231441Y-35982650D02*
X56951708Y-35832147D01*
X56018719Y-29539517D02*
X47162548Y-30314331D01*
X47162548Y-30314331D02*
X47195754Y-30693881D01*
X55233094Y-36001538D02*
G75*
G03*
X52610624Y-34299665I-2401094J-828461D01*
G01*
X58770429Y-31848476D02*
G75*
G03*
X56018719Y-29539517I-2530335J-221376D01*
G01*
%TO.C,R_SW__01*%
X62278942Y-73777184D02*
X62658492Y-73743977D01*
X59574719Y-67639517D02*
X50718548Y-68414331D01*
X51017405Y-71830283D02*
X51105955Y-72842417D01*
X51105955Y-72842417D02*
X56166624Y-72399665D01*
X50718548Y-68414331D02*
X50751754Y-68793881D01*
X62326429Y-69948476D02*
X62359635Y-70328026D01*
X62625286Y-73364427D02*
X62658492Y-73743977D01*
X58787441Y-74082650D02*
X60507708Y-73932147D01*
X62326429Y-69948476D02*
G75*
G03*
X59574719Y-67639517I-2530335J-221376D01*
G01*
X58789094Y-74101538D02*
G75*
G03*
X56166624Y-72399665I-2401094J-828461D01*
G01*
%TO.C,R_SW__12*%
X73660000Y-48514000D02*
X73660000Y-49530000D01*
X73660000Y-45085000D02*
X73660000Y-45466000D01*
X73660000Y-49530000D02*
X78740000Y-49530000D01*
X81204162Y-51435000D02*
X82931000Y-51435000D01*
X85090000Y-47625000D02*
X85090000Y-48006000D01*
X82550000Y-45085000D02*
X73660000Y-45085000D01*
X85090000Y-51054000D02*
X85090000Y-51435000D01*
X84709000Y-51435000D02*
X85090000Y-51435000D01*
X81204161Y-51453960D02*
G75*
G03*
X78740000Y-49530000I-2464161J-616039D01*
G01*
X85090000Y-47625000D02*
G75*
G03*
X82550000Y-45085000I-2540001J-1D01*
G01*
%TO.C,R_SW__20*%
X22486244Y-42517251D02*
X22552404Y-42892462D01*
X31241185Y-40973518D02*
X22486244Y-42517251D01*
X34183663Y-43033864D02*
X34249823Y-43409075D01*
X23258110Y-46894721D02*
X28260934Y-46012588D01*
X34779103Y-46410769D02*
X34845263Y-46785981D01*
X23081684Y-45894156D02*
X23258110Y-46894721D01*
X31018459Y-47460750D02*
X32719063Y-47160888D01*
X34470051Y-46852141D02*
X34845263Y-46785981D01*
X31021751Y-47479422D02*
G75*
G03*
X28260934Y-46012588I-2319751J-1034577D01*
G01*
X34183664Y-43033864D02*
G75*
G03*
X31241185Y-40973518I-2501413J-441067D01*
G01*
%TO.C,R_SW__13*%
X105029000Y-56395000D02*
X105410000Y-56395000D01*
X101524162Y-56395000D02*
X103251000Y-56395000D01*
X93980000Y-53474000D02*
X93980000Y-54490000D01*
X93980000Y-54490000D02*
X99060000Y-54490000D01*
X105410000Y-52585000D02*
X105410000Y-52966000D01*
X105410000Y-56014000D02*
X105410000Y-56395000D01*
X102870000Y-50045000D02*
X93980000Y-50045000D01*
X93980000Y-50045000D02*
X93980000Y-50426000D01*
X101524161Y-56413960D02*
G75*
G03*
X99060000Y-54490000I-2464161J-616039D01*
G01*
X105410000Y-52585000D02*
G75*
G03*
X102870000Y-50045000I-2540001J-1D01*
G01*
%TO.C,R_SW__23*%
X102870000Y-31115000D02*
X93980000Y-31115000D01*
X93980000Y-35560000D02*
X99060000Y-35560000D01*
X93980000Y-31115000D02*
X93980000Y-31496000D01*
X105029000Y-37465000D02*
X105410000Y-37465000D01*
X101524162Y-37465000D02*
X103251000Y-37465000D01*
X93980000Y-34544000D02*
X93980000Y-35560000D01*
X105410000Y-33655000D02*
X105410000Y-34036000D01*
X105410000Y-37084000D02*
X105410000Y-37465000D01*
X105410000Y-33655000D02*
G75*
G03*
X102870000Y-31115000I-2540001J-1D01*
G01*
X101524161Y-37483960D02*
G75*
G03*
X99060000Y-35560000I-2464161J-616039D01*
G01*
%TO.C,R_SW__02*%
X84709000Y-70485000D02*
X85090000Y-70485000D01*
X82550000Y-64135000D02*
X73660000Y-64135000D01*
X73660000Y-67564000D02*
X73660000Y-68580000D01*
X73660000Y-68580000D02*
X78740000Y-68580000D01*
X85090000Y-70104000D02*
X85090000Y-70485000D01*
X81204162Y-70485000D02*
X82931000Y-70485000D01*
X73660000Y-64135000D02*
X73660000Y-64516000D01*
X85090000Y-66675000D02*
X85090000Y-67056000D01*
X81204161Y-70503960D02*
G75*
G03*
X78740000Y-68580000I-2464161J-616039D01*
G01*
X85090000Y-66675000D02*
G75*
G03*
X82550000Y-64135000I-2540001J-1D01*
G01*
%TO.C,R_SW__00*%
X40787663Y-80625864D02*
X40853823Y-81001075D01*
X37622459Y-85052750D02*
X39323063Y-84752888D01*
X29685684Y-83486156D02*
X29862110Y-84486721D01*
X29090244Y-80109251D02*
X29156404Y-80484462D01*
X41383103Y-84002769D02*
X41449263Y-84377981D01*
X41074051Y-84444141D02*
X41449263Y-84377981D01*
X29862110Y-84486721D02*
X34864934Y-83604588D01*
X37845185Y-78565518D02*
X29090244Y-80109251D01*
X37625751Y-85071422D02*
G75*
G03*
X34864934Y-83604588I-2319751J-1034577D01*
G01*
X40787664Y-80625864D02*
G75*
G03*
X37845185Y-78565518I-2501413J-441067D01*
G01*
%TO.C,R_SW__10*%
X26383684Y-64690156D02*
X26560110Y-65690721D01*
X26560110Y-65690721D02*
X31562934Y-64808588D01*
X37485663Y-61829864D02*
X37551823Y-62205075D01*
X37772051Y-65648141D02*
X38147263Y-65581981D01*
X25788244Y-61313251D02*
X25854404Y-61688462D01*
X38081103Y-65206769D02*
X38147263Y-65581981D01*
X34320459Y-66256750D02*
X36021063Y-65956888D01*
X34543185Y-59769518D02*
X25788244Y-61313251D01*
X37485664Y-61829864D02*
G75*
G03*
X34543185Y-59769518I-2501413J-441067D01*
G01*
X34323751Y-66275422D02*
G75*
G03*
X31562934Y-64808588I-2319751J-1034577D01*
G01*
%TO.C,R_SW__11*%
X57009441Y-55032650D02*
X58729708Y-54882147D01*
X48940548Y-49364331D02*
X48973754Y-49743881D01*
X60847286Y-54314427D02*
X60880492Y-54693977D01*
X60500942Y-54727184D02*
X60880492Y-54693977D01*
X57796719Y-48589517D02*
X48940548Y-49364331D01*
X60548429Y-50898476D02*
X60581635Y-51278026D01*
X49327955Y-53792417D02*
X54388624Y-53349665D01*
X49239405Y-52780283D02*
X49327955Y-53792417D01*
X60548429Y-50898476D02*
G75*
G03*
X57796719Y-48589517I-2530335J-221376D01*
G01*
X57011094Y-55051538D02*
G75*
G03*
X54388624Y-53349665I-2401094J-828461D01*
G01*
%TO.C,R_SW__14*%
X114300000Y-57150000D02*
X119380000Y-57150000D01*
X125730000Y-55245000D02*
X125730000Y-55626000D01*
X125349000Y-59055000D02*
X125730000Y-59055000D01*
X123190000Y-52705000D02*
X114300000Y-52705000D01*
X125730000Y-58674000D02*
X125730000Y-59055000D01*
X114300000Y-56134000D02*
X114300000Y-57150000D01*
X114300000Y-52705000D02*
X114300000Y-53086000D01*
X121844162Y-59055000D02*
X123571000Y-59055000D01*
X121844161Y-59073960D02*
G75*
G03*
X119380000Y-57150000I-2464161J-616039D01*
G01*
X125730000Y-55245000D02*
G75*
G03*
X123190000Y-52705000I-2540001J-1D01*
G01*
%TO.C,R_SW__04*%
X114300000Y-71755000D02*
X114300000Y-72136000D01*
X121844162Y-78105000D02*
X123571000Y-78105000D01*
X114300000Y-76200000D02*
X119380000Y-76200000D01*
X125730000Y-74295000D02*
X125730000Y-74676000D01*
X125730000Y-77724000D02*
X125730000Y-78105000D01*
X125349000Y-78105000D02*
X125730000Y-78105000D01*
X114300000Y-75184000D02*
X114300000Y-76200000D01*
X123190000Y-71755000D02*
X114300000Y-71755000D01*
X125730000Y-74295000D02*
G75*
G03*
X123190000Y-71755000I-2540001J-1D01*
G01*
X121844161Y-78123960D02*
G75*
G03*
X119380000Y-76200000I-2464161J-616039D01*
G01*
%TO.C,R_SW__T3*%
X105188028Y-95239109D02*
X96600948Y-92938207D01*
X105629961Y-101931528D02*
X105997979Y-102030138D01*
X95450497Y-97231748D02*
X100357400Y-98546548D01*
X106984080Y-98349961D02*
X106885470Y-98717978D01*
X102244548Y-101024409D02*
X103912545Y-101471348D01*
X95713457Y-96250367D02*
X95450497Y-97231748D01*
X96600948Y-92938207D02*
X96502338Y-93306225D01*
X106096589Y-101662120D02*
X105997979Y-102030138D01*
X102239640Y-101042723D02*
G75*
G03*
X100357400Y-98546548I-2539640J42724D01*
G01*
X106984080Y-98349961D02*
G75*
G03*
X105188028Y-95239109I-2453453J657400D01*
G01*
%TO.C,R_SW__24*%
X125730000Y-39624000D02*
X125730000Y-40005000D01*
X123190000Y-33655000D02*
X114300000Y-33655000D01*
X114300000Y-38100000D02*
X119380000Y-38100000D01*
X114300000Y-37084000D02*
X114300000Y-38100000D01*
X125349000Y-40005000D02*
X125730000Y-40005000D01*
X114300000Y-33655000D02*
X114300000Y-34036000D01*
X121844162Y-40005000D02*
X123571000Y-40005000D01*
X125730000Y-36195000D02*
X125730000Y-36576000D01*
X121844161Y-40023960D02*
G75*
G03*
X119380000Y-38100000I-2464161J-616039D01*
G01*
X125730000Y-36195000D02*
G75*
G03*
X123190000Y-33655000I-2540001J-1D01*
G01*
%TD*%
D14*
%TO.C,L_EC1*%
X134620000Y-33736750D03*
D15*
X134620000Y-36276750D03*
X134620000Y-38816750D03*
X134620000Y-41356750D03*
X134620000Y-43896750D03*
X134620000Y-46436750D03*
X134620000Y-48976750D03*
X134620000Y-51516750D03*
X134620000Y-54056750D03*
X134620000Y-56596750D03*
X134620000Y-59136750D03*
X134848600Y-61676750D03*
X149860000Y-61676750D03*
X149860000Y-59136750D03*
X149860000Y-56596750D03*
X149860000Y-54056750D03*
X149860000Y-51516750D03*
X149860000Y-48976750D03*
X149860000Y-46436750D03*
X149860000Y-43896750D03*
X149860000Y-41356750D03*
X149860000Y-38816750D03*
X149860000Y-36276750D03*
X149860000Y-33736750D03*
X137160000Y-61676750D03*
X139700000Y-61676750D03*
X142240000Y-61676750D03*
X144780000Y-61676750D03*
X147320000Y-61676750D03*
%TD*%
M02*
