%TF.GenerationSoftware,KiCad,Pcbnew,(6.0.7)*%
%TF.CreationDate,2022-09-04T15:55:50+05:30*%
%TF.ProjectId,burp_fart,62757270-5f66-4617-9274-2e6b69636164,rev?*%
%TF.SameCoordinates,Original*%
%TF.FileFunction,Profile,NP*%
%FSLAX46Y46*%
G04 Gerber Fmt 4.6, Leading zero omitted, Abs format (unit mm)*
G04 Created by KiCad (PCBNEW (6.0.7)) date 2022-09-04 15:55:50*
%MOMM*%
%LPD*%
G01*
G04 APERTURE LIST*
%TA.AperFunction,Profile*%
%ADD10C,0.100000*%
%TD*%
G04 APERTURE END LIST*
D10*
X90166700Y-25500000D02*
G75*
G03*
X87666742Y-23000000I-2500000J0D01*
G01*
X87300000Y-105200000D02*
X91100000Y-91800000D01*
X47600000Y-88300000D02*
X47500000Y-93000000D01*
X137002391Y-137579124D02*
X129100000Y-129200000D01*
X43100000Y-27700000D02*
X64000000Y-25800000D01*
X46100000Y-94800000D02*
X28952592Y-97872693D01*
X156337000Y-30400000D02*
G75*
G03*
X153837000Y-27900000I-2500000J0D01*
G01*
X40800000Y-33600000D02*
X40600000Y-30300000D01*
X26652591Y-96372693D02*
G75*
G03*
X28952592Y-97872693I1947409J472693D01*
G01*
X90166700Y-25500000D02*
G75*
G03*
X92670242Y-28003500I2503500J0D01*
G01*
X51000000Y-85399976D02*
G75*
G03*
X47600000Y-88300000I-27700J-3410624D01*
G01*
X18499996Y-39799986D02*
G75*
G03*
X17000000Y-42100000I472704J-1947414D01*
G01*
X154499973Y-127099965D02*
G75*
G03*
X156050253Y-123923839I-2478473J3176165D01*
G01*
X87299938Y-105199976D02*
G75*
G03*
X89400000Y-109400000I2938362J-1155824D01*
G01*
X46099994Y-94799982D02*
G75*
G03*
X47500000Y-93000000I-722994J2006782D01*
G01*
X70000000Y-23000000D02*
X87666742Y-23000000D01*
X69999999Y-22999988D02*
G75*
G03*
X67700000Y-23900000I328801J-4229112D01*
G01*
X111699996Y-116800006D02*
G75*
G03*
X99500000Y-111800000I-17851696J-26174094D01*
G01*
X18500000Y-39800000D02*
X39300000Y-36100000D01*
X156337000Y-30400000D02*
X156050253Y-123923839D01*
X87199985Y-84000009D02*
G75*
G03*
X84100000Y-82300000I-2993085J-1781491D01*
G01*
X26652592Y-96372693D02*
X17000000Y-42100000D01*
X39299999Y-36099998D02*
G75*
G03*
X40800000Y-33600000I-1059929J2335958D01*
G01*
X129100002Y-129199999D02*
G75*
G03*
X119500000Y-121500000I-25592402J-22073001D01*
G01*
X84100000Y-82300000D02*
X51000000Y-85400000D01*
X154500000Y-127100000D02*
X143800000Y-137500000D01*
X137002372Y-137579143D02*
G75*
G03*
X143800000Y-137500000I3361228J3267843D01*
G01*
X99500000Y-111800000D02*
X89400000Y-109400000D01*
X119500000Y-121500000D02*
X111700000Y-116800000D01*
X91099958Y-91799987D02*
G75*
G03*
X89700000Y-86500000I-4817458J1562387D01*
G01*
X43100000Y-27699996D02*
G75*
G03*
X40600000Y-30300000I-60600J-2443654D01*
G01*
X87200000Y-84000000D02*
G75*
G03*
X89700000Y-86500000I7266700J4766700D01*
G01*
X63999998Y-25799989D02*
G75*
G03*
X67700000Y-23900000I-1491098J7456389D01*
G01*
X153837000Y-27900000D02*
X92670242Y-28003500D01*
M02*
