M48
; DRILL file {KiCad (6.0.7)} date Sun Sep  4 15:55:52 2022
; FORMAT={-:-/ absolute / inch / decimal}
; #@! TF.CreationDate,2022-09-04T15:55:52+05:30
; #@! TF.GenerationSoftware,Kicad,Pcbnew,(6.0.7)
; #@! TF.FileFunction,Plated,1,2,PTH
FMAT,2
INCH
; #@! TA.AperFunction,Plated,PTH,ViaDrill
T1C0.0157
; #@! TA.AperFunction,Plated,PTH,ComponentDrill
T2C0.0354
; #@! TA.AperFunction,Plated,PTH,ComponentDrill
T3C0.0394
; #@! TA.AperFunction,Plated,PTH,ComponentDrill
T4C0.0430
; #@! TA.AperFunction,Plated,PTH,ComponentDrill
T5C0.0591
%
G90
G05
T1
X1.43Y-1.89
X1.55Y-2.59
X1.7Y-3.36
X2.38Y-1.43
X2.45Y-2.18
X2.54Y-2.97
X3.4Y-1.45
X3.4Y-2.1
X3.4Y-2.9
X4.2Y-1.6
X4.2Y-2.4
X4.2Y-3.2
X4.41Y-3.96
X5.0Y-1.74
X5.0Y-2.4
X5.0Y-3.2
X5.23Y-4.35
X6.01Y-4.87
T3
X5.43Y-3.48
X5.43Y-3.5784
X5.43Y-3.6769
X6.0009Y-3.48
X6.0009Y-3.6769
T4
X5.3Y-1.3282
X5.3Y-1.4282
X5.3Y-1.5282
X5.3Y-1.6282
X5.3Y-1.7282
X5.3Y-1.8282
X5.3Y-1.9282
X5.3Y-2.0282
X5.3Y-2.1282
X5.3Y-2.2282
X5.3Y-2.3282
X5.309Y-2.4282
X5.4Y-2.4282
X5.5Y-2.4282
X5.6Y-2.4282
X5.7Y-2.4282
X5.8Y-2.4282
X5.9Y-1.3282
X5.9Y-1.4282
X5.9Y-1.5282
X5.9Y-1.6282
X5.9Y-1.7282
X5.9Y-1.8282
X5.9Y-1.9282
X5.9Y-2.0282
X5.9Y-2.1282
X5.9Y-2.2282
X5.9Y-2.3282
X5.9Y-2.4282
T2
G00X5.5925Y-3.0406
M15
G01X5.5767Y-3.0406
M16
G05
G00X5.5943Y-2.8594
M15
G01X5.5785Y-2.8594
M16
G05
G00X5.6358Y-2.8595
M15
G01X5.62Y-2.8595
M16
G05
G00X5.6376Y-3.0406
M15
G01X5.6218Y-3.0406
M16
G05
G00X5.7932Y-2.8595
M15
G01X5.7775Y-2.8595
M16
G05
G00X5.7951Y-3.0406
M15
G01X5.7793Y-3.0406
M16
G05
G00X5.9114Y-2.8595
M15
G01X5.8956Y-2.8595
M16
G05
G00X5.9132Y-3.0406
M15
G01X5.8974Y-3.0406
M16
G05
T5
G00X5.6997Y-3.358
M15
G01X5.7509Y-3.358
M16
G05
G00X5.6997Y-3.7989
M15
G01X5.7509Y-3.7989
M16
G05
T0
M30
