%TF.GenerationSoftware,KiCad,Pcbnew,(6.0.7)*%
%TF.CreationDate,2022-09-04T15:55:50+05:30*%
%TF.ProjectId,burp_fart,62757270-5f66-4617-9274-2e6b69636164,rev?*%
%TF.SameCoordinates,Original*%
%TF.FileFunction,Legend,Bot*%
%TF.FilePolarity,Positive*%
%FSLAX46Y46*%
G04 Gerber Fmt 4.6, Leading zero omitted, Abs format (unit mm)*
G04 Created by KiCad (PCBNEW (6.0.7)) date 2022-09-04 15:55:50*
%MOMM*%
%LPD*%
G01*
G04 APERTURE LIST*
%ADD10C,0.203200*%
%ADD11C,0.150000*%
%ADD12C,0.381000*%
%ADD13R,1.752600X1.752600*%
%ADD14C,1.752600*%
G04 APERTURE END LIST*
D10*
%TO.C,L_EC1*%
X141697142Y-58021035D02*
X142268571Y-58421035D01*
X141697142Y-58706750D02*
X142897142Y-58706750D01*
X142897142Y-58249607D01*
X142840000Y-58135321D01*
X142782857Y-58078178D01*
X142668571Y-58021035D01*
X142497142Y-58021035D01*
X142382857Y-58078178D01*
X142325714Y-58135321D01*
X142268571Y-58249607D01*
X142268571Y-58706750D01*
X141697142Y-57506750D02*
X142497142Y-57506750D01*
X142897142Y-57506750D02*
X142840000Y-57563892D01*
X142782857Y-57506750D01*
X142840000Y-57449607D01*
X142897142Y-57506750D01*
X142782857Y-57506750D01*
X142497142Y-56421035D02*
X141525714Y-56421035D01*
X141411428Y-56478178D01*
X141354285Y-56535321D01*
X141297142Y-56649607D01*
X141297142Y-56821035D01*
X141354285Y-56935321D01*
X141754285Y-56421035D02*
X141697142Y-56535321D01*
X141697142Y-56763892D01*
X141754285Y-56878178D01*
X141811428Y-56935321D01*
X141925714Y-56992464D01*
X142268571Y-56992464D01*
X142382857Y-56935321D01*
X142440000Y-56878178D01*
X142497142Y-56763892D01*
X142497142Y-56535321D01*
X142440000Y-56421035D01*
X141697142Y-55849607D02*
X142897142Y-55849607D01*
X141697142Y-55335321D02*
X142325714Y-55335321D01*
X142440000Y-55392464D01*
X142497142Y-55506750D01*
X142497142Y-55678178D01*
X142440000Y-55792464D01*
X142382857Y-55849607D01*
X142497142Y-54935321D02*
X142497142Y-54478178D01*
X142897142Y-54763892D02*
X141868571Y-54763892D01*
X141754285Y-54706750D01*
X141697142Y-54592464D01*
X141697142Y-54478178D01*
X141754285Y-54021035D02*
X141697142Y-54021035D01*
X141582857Y-54078178D01*
X141525714Y-54135321D01*
X141811428Y-51906750D02*
X141754285Y-51963892D01*
X141697142Y-52135321D01*
X141697142Y-52249607D01*
X141754285Y-52421035D01*
X141868571Y-52535321D01*
X141982857Y-52592464D01*
X142211428Y-52649607D01*
X142382857Y-52649607D01*
X142611428Y-52592464D01*
X142725714Y-52535321D01*
X142840000Y-52421035D01*
X142897142Y-52249607D01*
X142897142Y-52135321D01*
X142840000Y-51963892D01*
X142782857Y-51906750D01*
X141697142Y-51221035D02*
X141754285Y-51335321D01*
X141811428Y-51392464D01*
X141925714Y-51449607D01*
X142268571Y-51449607D01*
X142382857Y-51392464D01*
X142440000Y-51335321D01*
X142497142Y-51221035D01*
X142497142Y-51049607D01*
X142440000Y-50935321D01*
X142382857Y-50878178D01*
X142268571Y-50821035D01*
X141925714Y-50821035D01*
X141811428Y-50878178D01*
X141754285Y-50935321D01*
X141697142Y-51049607D01*
X141697142Y-51221035D01*
X141697142Y-50306750D02*
X142497142Y-50306750D01*
X142382857Y-50306750D02*
X142440000Y-50249607D01*
X142497142Y-50135321D01*
X142497142Y-49963892D01*
X142440000Y-49849607D01*
X142325714Y-49792464D01*
X141697142Y-49792464D01*
X142325714Y-49792464D02*
X142440000Y-49735321D01*
X142497142Y-49621035D01*
X142497142Y-49449607D01*
X142440000Y-49335321D01*
X142325714Y-49278178D01*
X141697142Y-49278178D01*
X142497142Y-48706750D02*
X141297142Y-48706750D01*
X142440000Y-48706750D02*
X142497142Y-48592464D01*
X142497142Y-48363892D01*
X142440000Y-48249607D01*
X142382857Y-48192464D01*
X142268571Y-48135321D01*
X141925714Y-48135321D01*
X141811428Y-48192464D01*
X141754285Y-48249607D01*
X141697142Y-48363892D01*
X141697142Y-48592464D01*
X141754285Y-48706750D01*
X141697142Y-47449607D02*
X141754285Y-47563892D01*
X141811428Y-47621035D01*
X141925714Y-47678178D01*
X142268571Y-47678178D01*
X142382857Y-47621035D01*
X142440000Y-47563892D01*
X142497142Y-47449607D01*
X142497142Y-47278178D01*
X142440000Y-47163892D01*
X142382857Y-47106750D01*
X142268571Y-47049607D01*
X141925714Y-47049607D01*
X141811428Y-47106750D01*
X141754285Y-47163892D01*
X141697142Y-47278178D01*
X141697142Y-47449607D01*
X142497142Y-46535321D02*
X141697142Y-46535321D01*
X142382857Y-46535321D02*
X142440000Y-46478178D01*
X142497142Y-46363892D01*
X142497142Y-46192464D01*
X142440000Y-46078178D01*
X142325714Y-46021035D01*
X141697142Y-46021035D01*
X141754285Y-44992464D02*
X141697142Y-45106750D01*
X141697142Y-45335321D01*
X141754285Y-45449607D01*
X141868571Y-45506750D01*
X142325714Y-45506750D01*
X142440000Y-45449607D01*
X142497142Y-45335321D01*
X142497142Y-45106750D01*
X142440000Y-44992464D01*
X142325714Y-44935321D01*
X142211428Y-44935321D01*
X142097142Y-45506750D01*
X142497142Y-44421035D02*
X141697142Y-44421035D01*
X142382857Y-44421035D02*
X142440000Y-44363892D01*
X142497142Y-44249607D01*
X142497142Y-44078178D01*
X142440000Y-43963892D01*
X142325714Y-43906750D01*
X141697142Y-43906750D01*
X142497142Y-43506750D02*
X142497142Y-43049607D01*
X142897142Y-43335321D02*
X141868571Y-43335321D01*
X141754285Y-43278178D01*
X141697142Y-43163892D01*
X141697142Y-43049607D01*
X141754285Y-42706750D02*
X141697142Y-42592464D01*
X141697142Y-42363892D01*
X141754285Y-42249607D01*
X141868571Y-42192464D01*
X141925714Y-42192464D01*
X142040000Y-42249607D01*
X142097142Y-42363892D01*
X142097142Y-42535321D01*
X142154285Y-42649607D01*
X142268571Y-42706750D01*
X142325714Y-42706750D01*
X142440000Y-42649607D01*
X142497142Y-42535321D01*
X142497142Y-42363892D01*
X142440000Y-42249607D01*
X141697142Y-40763892D02*
X142897142Y-40763892D01*
X142897142Y-40478178D01*
X142840000Y-40306750D01*
X142725714Y-40192464D01*
X142611428Y-40135321D01*
X142382857Y-40078178D01*
X142211428Y-40078178D01*
X141982857Y-40135321D01*
X141868571Y-40192464D01*
X141754285Y-40306750D01*
X141697142Y-40478178D01*
X141697142Y-40763892D01*
X141697142Y-39392464D02*
X141754285Y-39506750D01*
X141811428Y-39563892D01*
X141925714Y-39621035D01*
X142268571Y-39621035D01*
X142382857Y-39563892D01*
X142440000Y-39506750D01*
X142497142Y-39392464D01*
X142497142Y-39221035D01*
X142440000Y-39106750D01*
X142382857Y-39049607D01*
X142268571Y-38992464D01*
X141925714Y-38992464D01*
X141811428Y-39049607D01*
X141754285Y-39106750D01*
X141697142Y-39221035D01*
X141697142Y-39392464D01*
X142497142Y-38592464D02*
X141697142Y-38363892D01*
X142268571Y-38135321D01*
X141697142Y-37906750D01*
X142497142Y-37678178D01*
X142497142Y-37221035D02*
X141697142Y-37221035D01*
X142382857Y-37221035D02*
X142440000Y-37163892D01*
X142497142Y-37049607D01*
X142497142Y-36878178D01*
X142440000Y-36763892D01*
X142325714Y-36706750D01*
X141697142Y-36706750D01*
D11*
X148024809Y-56539607D02*
X147910523Y-56577702D01*
X147872428Y-56615797D01*
X147834333Y-56691988D01*
X147834333Y-56806273D01*
X147872428Y-56882464D01*
X147910523Y-56920559D01*
X147986714Y-56958654D01*
X148291476Y-56958654D01*
X148291476Y-56158654D01*
X148024809Y-56158654D01*
X147948619Y-56196750D01*
X147910523Y-56234845D01*
X147872428Y-56311035D01*
X147872428Y-56387226D01*
X147910523Y-56463416D01*
X147948619Y-56501511D01*
X148024809Y-56539607D01*
X148291476Y-56539607D01*
X147567666Y-56158654D02*
X147072428Y-56158654D01*
X147339095Y-56463416D01*
X147224809Y-56463416D01*
X147148619Y-56501511D01*
X147110523Y-56539607D01*
X147072428Y-56615797D01*
X147072428Y-56806273D01*
X147110523Y-56882464D01*
X147148619Y-56920559D01*
X147224809Y-56958654D01*
X147453380Y-56958654D01*
X147529571Y-56920559D01*
X147567666Y-56882464D01*
X140290476Y-60468654D02*
X140290476Y-59668654D01*
X140100000Y-59668654D01*
X139985714Y-59706750D01*
X139909523Y-59782940D01*
X139871428Y-59859130D01*
X139833333Y-60011511D01*
X139833333Y-60125797D01*
X139871428Y-60278178D01*
X139909523Y-60354369D01*
X139985714Y-60430559D01*
X140100000Y-60468654D01*
X140290476Y-60468654D01*
X139109523Y-59668654D02*
X139490476Y-59668654D01*
X139528571Y-60049607D01*
X139490476Y-60011511D01*
X139414285Y-59973416D01*
X139223809Y-59973416D01*
X139147619Y-60011511D01*
X139109523Y-60049607D01*
X139071428Y-60125797D01*
X139071428Y-60316273D01*
X139109523Y-60392464D01*
X139147619Y-60430559D01*
X139223809Y-60468654D01*
X139414285Y-60468654D01*
X139490476Y-60430559D01*
X139528571Y-60392464D01*
X137388523Y-40956750D02*
X137464714Y-40918654D01*
X137579000Y-40918654D01*
X137693285Y-40956750D01*
X137769476Y-41032940D01*
X137807571Y-41109130D01*
X137845666Y-41261511D01*
X137845666Y-41375797D01*
X137807571Y-41528178D01*
X137769476Y-41604369D01*
X137693285Y-41680559D01*
X137579000Y-41718654D01*
X137502809Y-41718654D01*
X137388523Y-41680559D01*
X137350428Y-41642464D01*
X137350428Y-41375797D01*
X137502809Y-41375797D01*
X137007571Y-41718654D02*
X137007571Y-40918654D01*
X136550428Y-41718654D01*
X136550428Y-40918654D01*
X136169476Y-41718654D02*
X136169476Y-40918654D01*
X135979000Y-40918654D01*
X135864714Y-40956750D01*
X135788523Y-41032940D01*
X135750428Y-41109130D01*
X135712333Y-41261511D01*
X135712333Y-41375797D01*
X135750428Y-41528178D01*
X135788523Y-41604369D01*
X135864714Y-41680559D01*
X135979000Y-41718654D01*
X136169476Y-41718654D01*
X138023333Y-60256750D02*
X137923333Y-60290083D01*
X137890000Y-60323416D01*
X137856666Y-60390083D01*
X137856666Y-60490083D01*
X137890000Y-60556750D01*
X137923333Y-60590083D01*
X137990000Y-60623416D01*
X138256666Y-60623416D01*
X138256666Y-59923416D01*
X138023333Y-59923416D01*
X137956666Y-59956750D01*
X137923333Y-59990083D01*
X137890000Y-60056750D01*
X137890000Y-60123416D01*
X137923333Y-60190083D01*
X137956666Y-60223416D01*
X138023333Y-60256750D01*
X138256666Y-60256750D01*
X137623333Y-59923416D02*
X137156666Y-59923416D01*
X137456666Y-60623416D01*
X140858604Y-33298654D02*
X140401461Y-33298654D01*
X140630032Y-34098654D02*
X140630032Y-33298654D01*
X140210985Y-33298654D02*
X139677651Y-34098654D01*
X139677651Y-33298654D02*
X140210985Y-34098654D01*
X139220508Y-33298654D02*
X139144318Y-33298654D01*
X139068128Y-33336750D01*
X139030032Y-33374845D01*
X138991937Y-33451035D01*
X138953842Y-33603416D01*
X138953842Y-33793892D01*
X138991937Y-33946273D01*
X139030032Y-34022464D01*
X139068128Y-34060559D01*
X139144318Y-34098654D01*
X139220508Y-34098654D01*
X139296699Y-34060559D01*
X139334794Y-34022464D01*
X139372889Y-33946273D01*
X139410985Y-33793892D01*
X139410985Y-33603416D01*
X139372889Y-33451035D01*
X139334794Y-33374845D01*
X139296699Y-33336750D01*
X139220508Y-33298654D01*
X138039556Y-33260559D02*
X138725270Y-34289130D01*
X137772889Y-34098654D02*
X137772889Y-33298654D01*
X137582413Y-33298654D01*
X137468128Y-33336750D01*
X137391937Y-33412940D01*
X137353842Y-33489130D01*
X137315747Y-33641511D01*
X137315747Y-33755797D01*
X137353842Y-33908178D01*
X137391937Y-33984369D01*
X137468128Y-34060559D01*
X137582413Y-34098654D01*
X137772889Y-34098654D01*
X137049080Y-33298654D02*
X136553842Y-33298654D01*
X136820508Y-33603416D01*
X136706223Y-33603416D01*
X136630032Y-33641511D01*
X136591937Y-33679607D01*
X136553842Y-33755797D01*
X136553842Y-33946273D01*
X136591937Y-34022464D01*
X136630032Y-34060559D01*
X136706223Y-34098654D01*
X136934794Y-34098654D01*
X137010985Y-34060559D01*
X137049080Y-34022464D01*
X148310523Y-35876750D02*
X148386714Y-35838654D01*
X148501000Y-35838654D01*
X148615285Y-35876750D01*
X148691476Y-35952940D01*
X148729571Y-36029130D01*
X148767666Y-36181511D01*
X148767666Y-36295797D01*
X148729571Y-36448178D01*
X148691476Y-36524369D01*
X148615285Y-36600559D01*
X148501000Y-36638654D01*
X148424809Y-36638654D01*
X148310523Y-36600559D01*
X148272428Y-36562464D01*
X148272428Y-36295797D01*
X148424809Y-36295797D01*
X147929571Y-36638654D02*
X147929571Y-35838654D01*
X147472428Y-36638654D01*
X147472428Y-35838654D01*
X147091476Y-36638654D02*
X147091476Y-35838654D01*
X146901000Y-35838654D01*
X146786714Y-35876750D01*
X146710523Y-35952940D01*
X146672428Y-36029130D01*
X146634333Y-36181511D01*
X146634333Y-36295797D01*
X146672428Y-36448178D01*
X146710523Y-36524369D01*
X146786714Y-36600559D01*
X146901000Y-36638654D01*
X147091476Y-36638654D01*
X136912333Y-51802464D02*
X136950428Y-51840559D01*
X137064714Y-51878654D01*
X137140904Y-51878654D01*
X137255190Y-51840559D01*
X137331380Y-51764369D01*
X137369476Y-51688178D01*
X137407571Y-51535797D01*
X137407571Y-51421511D01*
X137369476Y-51269130D01*
X137331380Y-51192940D01*
X137255190Y-51116750D01*
X137140904Y-51078654D01*
X137064714Y-51078654D01*
X136950428Y-51116750D01*
X136912333Y-51154845D01*
X136226619Y-51078654D02*
X136379000Y-51078654D01*
X136455190Y-51116750D01*
X136493285Y-51154845D01*
X136569476Y-51269130D01*
X136607571Y-51421511D01*
X136607571Y-51726273D01*
X136569476Y-51802464D01*
X136531380Y-51840559D01*
X136455190Y-51878654D01*
X136302809Y-51878654D01*
X136226619Y-51840559D01*
X136188523Y-51802464D01*
X136150428Y-51726273D01*
X136150428Y-51535797D01*
X136188523Y-51459607D01*
X136226619Y-51421511D01*
X136302809Y-51383416D01*
X136455190Y-51383416D01*
X136531380Y-51421511D01*
X136569476Y-51459607D01*
X136607571Y-51535797D01*
X137369476Y-49338654D02*
X137369476Y-48538654D01*
X137179000Y-48538654D01*
X137064714Y-48576750D01*
X136988523Y-48652940D01*
X136950428Y-48729130D01*
X136912333Y-48881511D01*
X136912333Y-48995797D01*
X136950428Y-49148178D01*
X136988523Y-49224369D01*
X137064714Y-49300559D01*
X137179000Y-49338654D01*
X137369476Y-49338654D01*
X136226619Y-48805321D02*
X136226619Y-49338654D01*
X136417095Y-48500559D02*
X136607571Y-49071988D01*
X136112333Y-49071988D01*
X147967666Y-48919607D02*
X148234333Y-48919607D01*
X148234333Y-49338654D02*
X148234333Y-48538654D01*
X147853380Y-48538654D01*
X147205761Y-48538654D02*
X147358142Y-48538654D01*
X147434333Y-48576750D01*
X147472428Y-48614845D01*
X147548619Y-48729130D01*
X147586714Y-48881511D01*
X147586714Y-49186273D01*
X147548619Y-49262464D01*
X147510523Y-49300559D01*
X147434333Y-49338654D01*
X147281952Y-49338654D01*
X147205761Y-49300559D01*
X147167666Y-49262464D01*
X147129571Y-49186273D01*
X147129571Y-48995797D01*
X147167666Y-48919607D01*
X147205761Y-48881511D01*
X147281952Y-48843416D01*
X147434333Y-48843416D01*
X147510523Y-48881511D01*
X147548619Y-48919607D01*
X147586714Y-48995797D01*
X148767666Y-40918654D02*
X148501000Y-41718654D01*
X148234333Y-40918654D01*
X147510523Y-41642464D02*
X147548619Y-41680559D01*
X147662904Y-41718654D01*
X147739095Y-41718654D01*
X147853380Y-41680559D01*
X147929571Y-41604369D01*
X147967666Y-41528178D01*
X148005761Y-41375797D01*
X148005761Y-41261511D01*
X147967666Y-41109130D01*
X147929571Y-41032940D01*
X147853380Y-40956750D01*
X147739095Y-40918654D01*
X147662904Y-40918654D01*
X147548619Y-40956750D01*
X147510523Y-40994845D01*
X146710523Y-41642464D02*
X146748619Y-41680559D01*
X146862904Y-41718654D01*
X146939095Y-41718654D01*
X147053380Y-41680559D01*
X147129571Y-41604369D01*
X147167666Y-41528178D01*
X147205761Y-41375797D01*
X147205761Y-41261511D01*
X147167666Y-41109130D01*
X147129571Y-41032940D01*
X147053380Y-40956750D01*
X146939095Y-40918654D01*
X146862904Y-40918654D01*
X146748619Y-40956750D01*
X146710523Y-40994845D01*
X147967666Y-51459607D02*
X148234333Y-51459607D01*
X148234333Y-51878654D02*
X148234333Y-51078654D01*
X147853380Y-51078654D01*
X147624809Y-51078654D02*
X147091476Y-51078654D01*
X147434333Y-51878654D01*
X137369476Y-46798654D02*
X137369476Y-45998654D01*
X137179000Y-45998654D01*
X137064714Y-46036750D01*
X136988523Y-46112940D01*
X136950428Y-46189130D01*
X136912333Y-46341511D01*
X136912333Y-46455797D01*
X136950428Y-46608178D01*
X136988523Y-46684369D01*
X137064714Y-46760559D01*
X137179000Y-46798654D01*
X137369476Y-46798654D01*
X136417095Y-45998654D02*
X136340904Y-45998654D01*
X136264714Y-46036750D01*
X136226619Y-46074845D01*
X136188523Y-46151035D01*
X136150428Y-46303416D01*
X136150428Y-46493892D01*
X136188523Y-46646273D01*
X136226619Y-46722464D01*
X136264714Y-46760559D01*
X136340904Y-46798654D01*
X136417095Y-46798654D01*
X136493285Y-46760559D01*
X136531380Y-46722464D01*
X136569476Y-46646273D01*
X136607571Y-46493892D01*
X136607571Y-46303416D01*
X136569476Y-46151035D01*
X136531380Y-46074845D01*
X136493285Y-46036750D01*
X136417095Y-45998654D01*
X148804991Y-60171047D02*
X148757851Y-60265328D01*
X148757851Y-60312469D01*
X148781421Y-60383179D01*
X148852132Y-60453890D01*
X148922842Y-60477460D01*
X148969983Y-60477460D01*
X149040693Y-60453890D01*
X149229255Y-60265328D01*
X148734280Y-59770353D01*
X148569289Y-59935345D01*
X148545719Y-60006056D01*
X148545719Y-60053196D01*
X148569289Y-60123907D01*
X148616429Y-60171047D01*
X148687140Y-60194617D01*
X148734280Y-60194617D01*
X148804991Y-60171047D01*
X148969983Y-60006056D01*
X148027174Y-60477460D02*
X148121455Y-60383179D01*
X148192165Y-60359609D01*
X148239306Y-60359609D01*
X148357157Y-60383179D01*
X148475008Y-60453890D01*
X148663570Y-60642452D01*
X148687140Y-60713162D01*
X148687140Y-60760303D01*
X148663570Y-60831014D01*
X148569289Y-60925294D01*
X148498578Y-60948865D01*
X148451438Y-60948865D01*
X148380727Y-60925294D01*
X148262876Y-60807443D01*
X148239306Y-60736733D01*
X148239306Y-60689592D01*
X148262876Y-60618882D01*
X148357157Y-60524601D01*
X148427867Y-60501030D01*
X148475008Y-60501030D01*
X148545719Y-60524601D01*
X137388523Y-38416750D02*
X137464714Y-38378654D01*
X137579000Y-38378654D01*
X137693285Y-38416750D01*
X137769476Y-38492940D01*
X137807571Y-38569130D01*
X137845666Y-38721511D01*
X137845666Y-38835797D01*
X137807571Y-38988178D01*
X137769476Y-39064369D01*
X137693285Y-39140559D01*
X137579000Y-39178654D01*
X137502809Y-39178654D01*
X137388523Y-39140559D01*
X137350428Y-39102464D01*
X137350428Y-38835797D01*
X137502809Y-38835797D01*
X137007571Y-39178654D02*
X137007571Y-38378654D01*
X136550428Y-39178654D01*
X136550428Y-38378654D01*
X136169476Y-39178654D02*
X136169476Y-38378654D01*
X135979000Y-38378654D01*
X135864714Y-38416750D01*
X135788523Y-38492940D01*
X135750428Y-38569130D01*
X135712333Y-38721511D01*
X135712333Y-38835797D01*
X135750428Y-38988178D01*
X135788523Y-39064369D01*
X135864714Y-39140559D01*
X135979000Y-39178654D01*
X136169476Y-39178654D01*
X147967666Y-46379607D02*
X148234333Y-46379607D01*
X148234333Y-46798654D02*
X148234333Y-45998654D01*
X147853380Y-45998654D01*
X147167666Y-45998654D02*
X147548619Y-45998654D01*
X147586714Y-46379607D01*
X147548619Y-46341511D01*
X147472428Y-46303416D01*
X147281952Y-46303416D01*
X147205761Y-46341511D01*
X147167666Y-46379607D01*
X147129571Y-46455797D01*
X147129571Y-46646273D01*
X147167666Y-46722464D01*
X147205761Y-46760559D01*
X147281952Y-46798654D01*
X147472428Y-46798654D01*
X147548619Y-46760559D01*
X147586714Y-46722464D01*
X145046666Y-60049607D02*
X145313333Y-60049607D01*
X145313333Y-60468654D02*
X145313333Y-59668654D01*
X144932380Y-59668654D01*
X144208571Y-60468654D02*
X144665714Y-60468654D01*
X144437142Y-60468654D02*
X144437142Y-59668654D01*
X144513333Y-59782940D01*
X144589523Y-59859130D01*
X144665714Y-59897226D01*
X148024809Y-33679607D02*
X147910523Y-33717702D01*
X147872428Y-33755797D01*
X147834333Y-33831988D01*
X147834333Y-33946273D01*
X147872428Y-34022464D01*
X147910523Y-34060559D01*
X147986714Y-34098654D01*
X148291476Y-34098654D01*
X148291476Y-33298654D01*
X148024809Y-33298654D01*
X147948619Y-33336750D01*
X147910523Y-33374845D01*
X147872428Y-33451035D01*
X147872428Y-33527226D01*
X147910523Y-33603416D01*
X147948619Y-33641511D01*
X148024809Y-33679607D01*
X148291476Y-33679607D01*
X147339095Y-33298654D02*
X147262904Y-33298654D01*
X147186714Y-33336750D01*
X147148619Y-33374845D01*
X147110523Y-33451035D01*
X147072428Y-33603416D01*
X147072428Y-33793892D01*
X147110523Y-33946273D01*
X147148619Y-34022464D01*
X147186714Y-34060559D01*
X147262904Y-34098654D01*
X147339095Y-34098654D01*
X147415285Y-34060559D01*
X147453380Y-34022464D01*
X147491476Y-33946273D01*
X147529571Y-33793892D01*
X147529571Y-33603416D01*
X147491476Y-33451035D01*
X147453380Y-33374845D01*
X147415285Y-33336750D01*
X147339095Y-33298654D01*
X142373333Y-60392464D02*
X142411428Y-60430559D01*
X142525714Y-60468654D01*
X142601904Y-60468654D01*
X142716190Y-60430559D01*
X142792380Y-60354369D01*
X142830476Y-60278178D01*
X142868571Y-60125797D01*
X142868571Y-60011511D01*
X142830476Y-59859130D01*
X142792380Y-59782940D01*
X142716190Y-59706750D01*
X142601904Y-59668654D01*
X142525714Y-59668654D01*
X142411428Y-59706750D01*
X142373333Y-59744845D01*
X142106666Y-59668654D02*
X141573333Y-59668654D01*
X141916190Y-60468654D01*
X147813333Y-39120559D02*
X147699047Y-39158654D01*
X147508571Y-39158654D01*
X147432380Y-39120559D01*
X147394285Y-39082464D01*
X147356190Y-39006273D01*
X147356190Y-38930083D01*
X147394285Y-38853892D01*
X147432380Y-38815797D01*
X147508571Y-38777702D01*
X147660952Y-38739607D01*
X147737142Y-38701511D01*
X147775238Y-38663416D01*
X147813333Y-38587226D01*
X147813333Y-38511035D01*
X147775238Y-38434845D01*
X147737142Y-38396750D01*
X147660952Y-38358654D01*
X147470476Y-38358654D01*
X147356190Y-38396750D01*
X147127619Y-38358654D02*
X146670476Y-38358654D01*
X146899047Y-39158654D02*
X146899047Y-38358654D01*
X148024809Y-59079607D02*
X147910523Y-59117702D01*
X147872428Y-59155797D01*
X147834333Y-59231988D01*
X147834333Y-59346273D01*
X147872428Y-59422464D01*
X147910523Y-59460559D01*
X147986714Y-59498654D01*
X148291476Y-59498654D01*
X148291476Y-58698654D01*
X148024809Y-58698654D01*
X147948619Y-58736750D01*
X147910523Y-58774845D01*
X147872428Y-58851035D01*
X147872428Y-58927226D01*
X147910523Y-59003416D01*
X147948619Y-59041511D01*
X148024809Y-59079607D01*
X148291476Y-59079607D01*
X147529571Y-58774845D02*
X147491476Y-58736750D01*
X147415285Y-58698654D01*
X147224809Y-58698654D01*
X147148619Y-58736750D01*
X147110523Y-58774845D01*
X147072428Y-58851035D01*
X147072428Y-58927226D01*
X147110523Y-59041511D01*
X147567666Y-59498654D01*
X147072428Y-59498654D01*
X147967666Y-43839607D02*
X148234333Y-43839607D01*
X148234333Y-44258654D02*
X148234333Y-43458654D01*
X147853380Y-43458654D01*
X147205761Y-43725321D02*
X147205761Y-44258654D01*
X147396238Y-43420559D02*
X147586714Y-43991988D01*
X147091476Y-43991988D01*
X135604297Y-60241758D02*
X135698578Y-60288898D01*
X135745719Y-60288898D01*
X135816429Y-60265328D01*
X135887140Y-60194617D01*
X135910710Y-60123907D01*
X135910710Y-60076766D01*
X135887140Y-60006056D01*
X135698578Y-59817494D01*
X135203603Y-60312469D01*
X135368595Y-60477460D01*
X135439306Y-60501030D01*
X135486446Y-60501030D01*
X135557157Y-60477460D01*
X135604297Y-60430320D01*
X135627867Y-60359609D01*
X135627867Y-60312469D01*
X135604297Y-60241758D01*
X135439306Y-60076766D01*
X135934280Y-61043146D02*
X135698578Y-60807443D01*
X135910710Y-60548171D01*
X135910710Y-60595311D01*
X135934280Y-60666022D01*
X136052132Y-60783873D01*
X136122842Y-60807443D01*
X136169983Y-60807443D01*
X136240693Y-60783873D01*
X136358544Y-60666022D01*
X136382115Y-60595311D01*
X136382115Y-60548171D01*
X136358544Y-60477460D01*
X136240693Y-60359609D01*
X136169983Y-60336039D01*
X136122842Y-60336039D01*
X146973333Y-60256750D02*
X147206666Y-60256750D01*
X147206666Y-60623416D02*
X147206666Y-59923416D01*
X146873333Y-59923416D01*
X146473333Y-59923416D02*
X146406666Y-59923416D01*
X146340000Y-59956750D01*
X146306666Y-59990083D01*
X146273333Y-60056750D01*
X146240000Y-60190083D01*
X146240000Y-60356750D01*
X146273333Y-60490083D01*
X146306666Y-60556750D01*
X146340000Y-60590083D01*
X146406666Y-60623416D01*
X146473333Y-60623416D01*
X146540000Y-60590083D01*
X146573333Y-60556750D01*
X146606666Y-60490083D01*
X146640000Y-60356750D01*
X146640000Y-60190083D01*
X146606666Y-60056750D01*
X146573333Y-59990083D01*
X146540000Y-59956750D01*
X146473333Y-59923416D01*
X137369476Y-54418654D02*
X137369476Y-53618654D01*
X137179000Y-53618654D01*
X137064714Y-53656750D01*
X136988523Y-53732940D01*
X136950428Y-53809130D01*
X136912333Y-53961511D01*
X136912333Y-54075797D01*
X136950428Y-54228178D01*
X136988523Y-54304369D01*
X137064714Y-54380559D01*
X137179000Y-54418654D01*
X137369476Y-54418654D01*
X136645666Y-53618654D02*
X136112333Y-53618654D01*
X136455190Y-54418654D01*
X137369476Y-36638654D02*
X137369476Y-35838654D01*
X137179000Y-35838654D01*
X137064714Y-35876750D01*
X136988523Y-35952940D01*
X136950428Y-36029130D01*
X136912333Y-36181511D01*
X136912333Y-36295797D01*
X136950428Y-36448178D01*
X136988523Y-36524369D01*
X137064714Y-36600559D01*
X137179000Y-36638654D01*
X137369476Y-36638654D01*
X136607571Y-35914845D02*
X136569476Y-35876750D01*
X136493285Y-35838654D01*
X136302809Y-35838654D01*
X136226619Y-35876750D01*
X136188523Y-35914845D01*
X136150428Y-35991035D01*
X136150428Y-36067226D01*
X136188523Y-36181511D01*
X136645666Y-36638654D01*
X136150428Y-36638654D01*
X137102809Y-59079607D02*
X136988523Y-59117702D01*
X136950428Y-59155797D01*
X136912333Y-59231988D01*
X136912333Y-59346273D01*
X136950428Y-59422464D01*
X136988523Y-59460559D01*
X137064714Y-59498654D01*
X137369476Y-59498654D01*
X137369476Y-58698654D01*
X137102809Y-58698654D01*
X137026619Y-58736750D01*
X136988523Y-58774845D01*
X136950428Y-58851035D01*
X136950428Y-58927226D01*
X136988523Y-59003416D01*
X137026619Y-59041511D01*
X137102809Y-59079607D01*
X137369476Y-59079607D01*
X136226619Y-58965321D02*
X136226619Y-59498654D01*
X136417095Y-58660559D02*
X136607571Y-59231988D01*
X136112333Y-59231988D01*
X137369476Y-44258654D02*
X137369476Y-43458654D01*
X137179000Y-43458654D01*
X137064714Y-43496750D01*
X136988523Y-43572940D01*
X136950428Y-43649130D01*
X136912333Y-43801511D01*
X136912333Y-43915797D01*
X136950428Y-44068178D01*
X136988523Y-44144369D01*
X137064714Y-44220559D01*
X137179000Y-44258654D01*
X137369476Y-44258654D01*
X136150428Y-44258654D02*
X136607571Y-44258654D01*
X136379000Y-44258654D02*
X136379000Y-43458654D01*
X136455190Y-43572940D01*
X136531380Y-43649130D01*
X136607571Y-43687226D01*
X148024809Y-53999607D02*
X147910523Y-54037702D01*
X147872428Y-54075797D01*
X147834333Y-54151988D01*
X147834333Y-54266273D01*
X147872428Y-54342464D01*
X147910523Y-54380559D01*
X147986714Y-54418654D01*
X148291476Y-54418654D01*
X148291476Y-53618654D01*
X148024809Y-53618654D01*
X147948619Y-53656750D01*
X147910523Y-53694845D01*
X147872428Y-53771035D01*
X147872428Y-53847226D01*
X147910523Y-53923416D01*
X147948619Y-53961511D01*
X148024809Y-53999607D01*
X148291476Y-53999607D01*
X147072428Y-54418654D02*
X147529571Y-54418654D01*
X147301000Y-54418654D02*
X147301000Y-53618654D01*
X147377190Y-53732940D01*
X147453380Y-53809130D01*
X147529571Y-53847226D01*
X137331380Y-56539607D02*
X137064714Y-56539607D01*
X136950428Y-56958654D02*
X137331380Y-56958654D01*
X137331380Y-56158654D01*
X136950428Y-56158654D01*
X136264714Y-56158654D02*
X136417095Y-56158654D01*
X136493285Y-56196750D01*
X136531380Y-56234845D01*
X136607571Y-56349130D01*
X136645666Y-56501511D01*
X136645666Y-56806273D01*
X136607571Y-56882464D01*
X136569476Y-56920559D01*
X136493285Y-56958654D01*
X136340904Y-56958654D01*
X136264714Y-56920559D01*
X136226619Y-56882464D01*
X136188523Y-56806273D01*
X136188523Y-56615797D01*
X136226619Y-56539607D01*
X136264714Y-56501511D01*
X136340904Y-56463416D01*
X136493285Y-56463416D01*
X136569476Y-56501511D01*
X136607571Y-56539607D01*
X136645666Y-56615797D01*
%TO.C,R_SW__T1*%
X138194476Y-128263973D02*
X138766896Y-128162958D01*
X138598537Y-128668034D02*
X139305644Y-127960928D01*
X139036270Y-127691554D01*
X138935255Y-127657882D01*
X138867911Y-127657882D01*
X138766896Y-127691554D01*
X138665881Y-127792569D01*
X138632209Y-127893584D01*
X138632209Y-127960928D01*
X138665881Y-128061943D01*
X138935255Y-128331317D01*
X138699552Y-127354836D02*
X138295491Y-126950775D01*
X137790415Y-127859912D02*
X138497522Y-127152805D01*
X136982293Y-127051790D02*
X137386354Y-127455851D01*
X137184323Y-127253821D02*
X137891430Y-126546714D01*
X137857758Y-126715073D01*
X137857758Y-126849760D01*
X137891430Y-126950775D01*
%TO.C,R_SW__03*%
X101321904Y-79954380D02*
X101655238Y-79478190D01*
X101893333Y-79954380D02*
X101893333Y-78954380D01*
X101512380Y-78954380D01*
X101417142Y-79002000D01*
X101369523Y-79049619D01*
X101321904Y-79144857D01*
X101321904Y-79287714D01*
X101369523Y-79382952D01*
X101417142Y-79430571D01*
X101512380Y-79478190D01*
X101893333Y-79478190D01*
X100702857Y-78954380D02*
X100607619Y-78954380D01*
X100512380Y-79002000D01*
X100464761Y-79049619D01*
X100417142Y-79144857D01*
X100369523Y-79335333D01*
X100369523Y-79573428D01*
X100417142Y-79763904D01*
X100464761Y-79859142D01*
X100512380Y-79906761D01*
X100607619Y-79954380D01*
X100702857Y-79954380D01*
X100798095Y-79906761D01*
X100845714Y-79859142D01*
X100893333Y-79763904D01*
X100940952Y-79573428D01*
X100940952Y-79335333D01*
X100893333Y-79144857D01*
X100845714Y-79049619D01*
X100798095Y-79002000D01*
X100702857Y-78954380D01*
X100036190Y-78954380D02*
X99417142Y-78954380D01*
X99750476Y-79335333D01*
X99607619Y-79335333D01*
X99512380Y-79382952D01*
X99464761Y-79430571D01*
X99417142Y-79525809D01*
X99417142Y-79763904D01*
X99464761Y-79859142D01*
X99512380Y-79906761D01*
X99607619Y-79954380D01*
X99893333Y-79954380D01*
X99988571Y-79906761D01*
X100036190Y-79859142D01*
X97940952Y-80335333D02*
X97988571Y-80287714D01*
X98083809Y-80144857D01*
X98131428Y-80049619D01*
X98179047Y-79906761D01*
X98226666Y-79668666D01*
X98226666Y-79478190D01*
X98179047Y-79240095D01*
X98131428Y-79097238D01*
X98083809Y-79002000D01*
X97988571Y-78859142D01*
X97940952Y-78811523D01*
X97560000Y-79954380D02*
X97560000Y-78954380D01*
X97226666Y-79668666D01*
X96893333Y-78954380D01*
X96893333Y-79954380D01*
X96512380Y-80335333D02*
X96464761Y-80287714D01*
X96369523Y-80144857D01*
X96321904Y-80049619D01*
X96274285Y-79906761D01*
X96226666Y-79668666D01*
X96226666Y-79478190D01*
X96274285Y-79240095D01*
X96321904Y-79097238D01*
X96369523Y-79002000D01*
X96464761Y-78859142D01*
X96512380Y-78811523D01*
%TO.C,R_SW__T2*%
X120497061Y-114025198D02*
X121023831Y-113779472D01*
X120991933Y-114310913D02*
X121491933Y-113444887D01*
X121162018Y-113254411D01*
X121055730Y-113248031D01*
X120990681Y-113265461D01*
X120901823Y-113324130D01*
X120830394Y-113447848D01*
X120824015Y-113554136D01*
X120841444Y-113619185D01*
X120900113Y-113708043D01*
X121230028Y-113898520D01*
X120749625Y-113016316D02*
X120254754Y-112730602D01*
X120002189Y-113739484D02*
X120502189Y-112873459D01*
X119959699Y-112670223D02*
X119942269Y-112605174D01*
X119883600Y-112516316D01*
X119677403Y-112397268D01*
X119571115Y-112390889D01*
X119506066Y-112408318D01*
X119417208Y-112466987D01*
X119369589Y-112549466D01*
X119339400Y-112696993D01*
X119548557Y-113477579D01*
X119012446Y-113168056D01*
%TO.C,R_SW__22*%
X80668571Y-36774380D02*
X81001904Y-36298190D01*
X81240000Y-36774380D02*
X81240000Y-35774380D01*
X80859047Y-35774380D01*
X80763809Y-35822000D01*
X80716190Y-35869619D01*
X80668571Y-35964857D01*
X80668571Y-36107714D01*
X80716190Y-36202952D01*
X80763809Y-36250571D01*
X80859047Y-36298190D01*
X81240000Y-36298190D01*
X80287619Y-35869619D02*
X80240000Y-35822000D01*
X80144761Y-35774380D01*
X79906666Y-35774380D01*
X79811428Y-35822000D01*
X79763809Y-35869619D01*
X79716190Y-35964857D01*
X79716190Y-36060095D01*
X79763809Y-36202952D01*
X80335238Y-36774380D01*
X79716190Y-36774380D01*
X79335238Y-35869619D02*
X79287619Y-35822000D01*
X79192380Y-35774380D01*
X78954285Y-35774380D01*
X78859047Y-35822000D01*
X78811428Y-35869619D01*
X78763809Y-35964857D01*
X78763809Y-36060095D01*
X78811428Y-36202952D01*
X79382857Y-36774380D01*
X78763809Y-36774380D01*
X77287619Y-37155333D02*
X77335238Y-37107714D01*
X77430476Y-36964857D01*
X77478095Y-36869619D01*
X77525714Y-36726761D01*
X77573333Y-36488666D01*
X77573333Y-36298190D01*
X77525714Y-36060095D01*
X77478095Y-35917238D01*
X77430476Y-35822000D01*
X77335238Y-35679142D01*
X77287619Y-35631523D01*
X76906666Y-36774380D02*
X76906666Y-35774380D01*
X76525714Y-37155333D02*
X76478095Y-37107714D01*
X76382857Y-36964857D01*
X76335238Y-36869619D01*
X76287619Y-36726761D01*
X76240000Y-36488666D01*
X76240000Y-36298190D01*
X76287619Y-36060095D01*
X76335238Y-35917238D01*
X76382857Y-35822000D01*
X76478095Y-35679142D01*
X76525714Y-35631523D01*
%TO.C,R_SW__21*%
X55365075Y-40377106D02*
X55655637Y-39873676D01*
X55934329Y-40327303D02*
X55847173Y-39331108D01*
X55467670Y-39364310D01*
X55376945Y-39420049D01*
X55333657Y-39471637D01*
X55294520Y-39570663D01*
X55306971Y-39712976D01*
X55362709Y-39803702D01*
X55414297Y-39846989D01*
X55513323Y-39886127D01*
X55892826Y-39852925D01*
X54906717Y-39508989D02*
X54855129Y-39465702D01*
X54756103Y-39426565D01*
X54518914Y-39447316D01*
X54428188Y-39503054D01*
X54384901Y-39554642D01*
X54345763Y-39653668D01*
X54354064Y-39748544D01*
X54413952Y-39886707D01*
X55033010Y-40406158D01*
X54416318Y-40460112D01*
X53467561Y-40543117D02*
X54036815Y-40493314D01*
X53752188Y-40518216D02*
X53665032Y-39522021D01*
X53772359Y-39656034D01*
X53875535Y-39742609D01*
X53974561Y-39781746D01*
X52030190Y-41051278D02*
X52073478Y-40999690D01*
X52155903Y-40849076D01*
X52195040Y-40750050D01*
X52230027Y-40603586D01*
X52256713Y-40362247D01*
X52240112Y-40172496D01*
X52171923Y-39939457D01*
X52112034Y-39801293D01*
X52056296Y-39710568D01*
X51948970Y-39576555D01*
X51897381Y-39533267D01*
X51340578Y-39725384D02*
X51150827Y-39741985D01*
X51060101Y-39797724D01*
X50973526Y-39900900D01*
X50942689Y-40094802D01*
X50971741Y-40426867D01*
X51035780Y-40612468D01*
X51138957Y-40699043D01*
X51237982Y-40738180D01*
X51427734Y-40721579D01*
X51518459Y-40665841D01*
X51605034Y-40562664D01*
X51635871Y-40368763D01*
X51606819Y-40036698D01*
X51542780Y-39851097D01*
X51439604Y-39764522D01*
X51340578Y-39725384D01*
X50701931Y-41167486D02*
X50650342Y-41124199D01*
X50543016Y-40990186D01*
X50487278Y-40899460D01*
X50427389Y-40761297D01*
X50359200Y-40528258D01*
X50342599Y-40338507D01*
X50369285Y-40097167D01*
X50404272Y-39950703D01*
X50443409Y-39851677D01*
X50525834Y-39701063D01*
X50569122Y-39649475D01*
%TO.C,R_SW__01*%
X58636448Y-78502008D02*
X58927010Y-77998578D01*
X59205702Y-78452205D02*
X59118546Y-77456010D01*
X58739043Y-77489212D01*
X58648318Y-77544951D01*
X58605030Y-77596539D01*
X58565893Y-77695565D01*
X58578344Y-77837878D01*
X58634082Y-77928604D01*
X58685670Y-77971891D01*
X58784696Y-78011028D01*
X59164199Y-77977826D01*
X57932600Y-77559767D02*
X57837724Y-77568067D01*
X57746999Y-77623806D01*
X57703711Y-77675394D01*
X57664574Y-77774420D01*
X57633737Y-77968321D01*
X57654489Y-78205511D01*
X57718528Y-78391112D01*
X57774266Y-78481837D01*
X57825854Y-78525125D01*
X57924880Y-78564262D01*
X58019756Y-78555961D01*
X58110481Y-78500223D01*
X58153769Y-78448635D01*
X58192906Y-78349609D01*
X58223743Y-78155707D01*
X58202991Y-77918518D01*
X58138952Y-77732917D01*
X58083214Y-77642192D01*
X58031626Y-77598904D01*
X57932600Y-77559767D01*
X56738934Y-78668019D02*
X57308188Y-78618216D01*
X57023561Y-78643117D02*
X56936405Y-77646923D01*
X57043732Y-77780936D01*
X57146908Y-77867511D01*
X57245934Y-77906648D01*
X55301563Y-79176180D02*
X55344851Y-79124592D01*
X55427276Y-78973978D01*
X55466413Y-78874952D01*
X55501400Y-78728488D01*
X55528086Y-78487149D01*
X55511485Y-78297397D01*
X55443296Y-78064358D01*
X55383407Y-77926195D01*
X55327669Y-77835470D01*
X55220342Y-77701457D01*
X55168754Y-77658169D01*
X54880558Y-78735004D02*
X54837270Y-78786592D01*
X54888858Y-78829880D01*
X54932146Y-78778291D01*
X54880558Y-78735004D01*
X54888858Y-78829880D01*
X54542558Y-79242584D02*
X54490969Y-79199297D01*
X54383643Y-79065284D01*
X54327905Y-78974559D01*
X54268016Y-78836395D01*
X54199827Y-78603356D01*
X54183226Y-78413605D01*
X54209912Y-78172265D01*
X54244899Y-78025802D01*
X54284036Y-77926776D01*
X54366461Y-77776162D01*
X54409749Y-77724573D01*
%TO.C,R_SW__12*%
X80930476Y-55824380D02*
X81263809Y-55348190D01*
X81501904Y-55824380D02*
X81501904Y-54824380D01*
X81120952Y-54824380D01*
X81025714Y-54872000D01*
X80978095Y-54919619D01*
X80930476Y-55014857D01*
X80930476Y-55157714D01*
X80978095Y-55252952D01*
X81025714Y-55300571D01*
X81120952Y-55348190D01*
X81501904Y-55348190D01*
X79978095Y-55824380D02*
X80549523Y-55824380D01*
X80263809Y-55824380D02*
X80263809Y-54824380D01*
X80359047Y-54967238D01*
X80454285Y-55062476D01*
X80549523Y-55110095D01*
X79597142Y-54919619D02*
X79549523Y-54872000D01*
X79454285Y-54824380D01*
X79216190Y-54824380D01*
X79120952Y-54872000D01*
X79073333Y-54919619D01*
X79025714Y-55014857D01*
X79025714Y-55110095D01*
X79073333Y-55252952D01*
X79644761Y-55824380D01*
X79025714Y-55824380D01*
X77549523Y-56205333D02*
X77597142Y-56157714D01*
X77692380Y-56014857D01*
X77740000Y-55919619D01*
X77787619Y-55776761D01*
X77835238Y-55538666D01*
X77835238Y-55348190D01*
X77787619Y-55110095D01*
X77740000Y-54967238D01*
X77692380Y-54872000D01*
X77597142Y-54729142D01*
X77549523Y-54681523D01*
X77168571Y-55824380D02*
X77168571Y-54824380D01*
X76597142Y-55824380D02*
X77025714Y-55252952D01*
X76597142Y-54824380D02*
X77168571Y-55395809D01*
X76263809Y-56205333D02*
X76216190Y-56157714D01*
X76120952Y-56014857D01*
X76073333Y-55919619D01*
X76025714Y-55776761D01*
X75978095Y-55538666D01*
X75978095Y-55348190D01*
X76025714Y-55110095D01*
X76073333Y-54967238D01*
X76120952Y-54872000D01*
X76216190Y-54729142D01*
X76263809Y-54681523D01*
%TO.C,R_SW__20*%
X31511139Y-51830971D02*
X31756718Y-51304132D01*
X32073886Y-51731743D02*
X31900238Y-50746935D01*
X31525073Y-50813087D01*
X31439551Y-50876521D01*
X31400924Y-50931685D01*
X31370566Y-51033745D01*
X31395373Y-51174432D01*
X31458807Y-51259954D01*
X31513971Y-51298581D01*
X31616031Y-51328939D01*
X31991196Y-51262787D01*
X30978863Y-51006106D02*
X30923699Y-50967479D01*
X30821639Y-50937121D01*
X30587161Y-50978466D01*
X30501638Y-51041900D01*
X30463012Y-51097064D01*
X30432654Y-51199124D01*
X30449192Y-51292916D01*
X30520894Y-51425334D01*
X31182869Y-51888853D01*
X30573226Y-51996350D01*
X29789935Y-51119039D02*
X29696144Y-51135576D01*
X29610622Y-51199010D01*
X29571995Y-51254175D01*
X29541638Y-51356235D01*
X29527818Y-51552086D01*
X29569163Y-51786564D01*
X29649134Y-51965878D01*
X29712568Y-52051400D01*
X29767732Y-52090027D01*
X29869792Y-52120384D01*
X29963584Y-52103846D01*
X30049106Y-52040413D01*
X30087732Y-51985248D01*
X30118090Y-51883188D01*
X30131910Y-51687337D01*
X30090565Y-51452859D01*
X30010594Y-51273545D01*
X29947160Y-51188023D01*
X29891996Y-51149396D01*
X29789935Y-51119039D01*
X28247702Y-52793232D02*
X28286329Y-52738067D01*
X28355313Y-52580842D01*
X28385671Y-52478782D01*
X28407760Y-52329826D01*
X28413310Y-52087079D01*
X28380234Y-51899497D01*
X28291994Y-51673288D01*
X28220292Y-51540870D01*
X28156858Y-51455348D01*
X28038260Y-51331199D01*
X27983095Y-51292572D01*
X27806386Y-52484218D02*
X27632737Y-51499411D01*
X27257573Y-51565562D01*
X27172050Y-51628996D01*
X27133424Y-51684161D01*
X27103066Y-51786221D01*
X27127873Y-51926908D01*
X27191306Y-52012430D01*
X27246471Y-52051056D01*
X27348531Y-52081414D01*
X27723696Y-52015262D01*
X26981521Y-53016494D02*
X26926356Y-52977867D01*
X26807758Y-52853718D01*
X26744325Y-52768196D01*
X26672622Y-52635778D01*
X26584382Y-52409569D01*
X26551306Y-52221986D01*
X26556857Y-51979239D01*
X26578945Y-51830284D01*
X26609303Y-51728223D01*
X26678287Y-51570999D01*
X26716914Y-51515834D01*
%TO.C,R_SW__13*%
X101131428Y-60784380D02*
X101464761Y-60308190D01*
X101702857Y-60784380D02*
X101702857Y-59784380D01*
X101321904Y-59784380D01*
X101226666Y-59832000D01*
X101179047Y-59879619D01*
X101131428Y-59974857D01*
X101131428Y-60117714D01*
X101179047Y-60212952D01*
X101226666Y-60260571D01*
X101321904Y-60308190D01*
X101702857Y-60308190D01*
X100179047Y-60784380D02*
X100750476Y-60784380D01*
X100464761Y-60784380D02*
X100464761Y-59784380D01*
X100560000Y-59927238D01*
X100655238Y-60022476D01*
X100750476Y-60070095D01*
X99845714Y-59784380D02*
X99226666Y-59784380D01*
X99560000Y-60165333D01*
X99417142Y-60165333D01*
X99321904Y-60212952D01*
X99274285Y-60260571D01*
X99226666Y-60355809D01*
X99226666Y-60593904D01*
X99274285Y-60689142D01*
X99321904Y-60736761D01*
X99417142Y-60784380D01*
X99702857Y-60784380D01*
X99798095Y-60736761D01*
X99845714Y-60689142D01*
X97750476Y-61165333D02*
X97798095Y-61117714D01*
X97893333Y-60974857D01*
X97940952Y-60879619D01*
X97988571Y-60736761D01*
X98036190Y-60498666D01*
X98036190Y-60308190D01*
X97988571Y-60070095D01*
X97940952Y-59927238D01*
X97893333Y-59832000D01*
X97798095Y-59689142D01*
X97750476Y-59641523D01*
X97083809Y-59784380D02*
X97083809Y-60498666D01*
X97131428Y-60641523D01*
X97226666Y-60736761D01*
X97369523Y-60784380D01*
X97464761Y-60784380D01*
X96702857Y-61165333D02*
X96655238Y-61117714D01*
X96560000Y-60974857D01*
X96512380Y-60879619D01*
X96464761Y-60736761D01*
X96417142Y-60498666D01*
X96417142Y-60308190D01*
X96464761Y-60070095D01*
X96512380Y-59927238D01*
X96560000Y-59832000D01*
X96655238Y-59689142D01*
X96702857Y-59641523D01*
%TO.C,R_SW__23*%
X101274285Y-41854380D02*
X101607619Y-41378190D01*
X101845714Y-41854380D02*
X101845714Y-40854380D01*
X101464761Y-40854380D01*
X101369523Y-40902000D01*
X101321904Y-40949619D01*
X101274285Y-41044857D01*
X101274285Y-41187714D01*
X101321904Y-41282952D01*
X101369523Y-41330571D01*
X101464761Y-41378190D01*
X101845714Y-41378190D01*
X100893333Y-40949619D02*
X100845714Y-40902000D01*
X100750476Y-40854380D01*
X100512380Y-40854380D01*
X100417142Y-40902000D01*
X100369523Y-40949619D01*
X100321904Y-41044857D01*
X100321904Y-41140095D01*
X100369523Y-41282952D01*
X100940952Y-41854380D01*
X100321904Y-41854380D01*
X99988571Y-40854380D02*
X99369523Y-40854380D01*
X99702857Y-41235333D01*
X99560000Y-41235333D01*
X99464761Y-41282952D01*
X99417142Y-41330571D01*
X99369523Y-41425809D01*
X99369523Y-41663904D01*
X99417142Y-41759142D01*
X99464761Y-41806761D01*
X99560000Y-41854380D01*
X99845714Y-41854380D01*
X99940952Y-41806761D01*
X99988571Y-41759142D01*
X97893333Y-42235333D02*
X97940952Y-42187714D01*
X98036190Y-42044857D01*
X98083809Y-41949619D01*
X98131428Y-41806761D01*
X98179047Y-41568666D01*
X98179047Y-41378190D01*
X98131428Y-41140095D01*
X98083809Y-40997238D01*
X98036190Y-40902000D01*
X97940952Y-40759142D01*
X97893333Y-40711523D01*
X97512380Y-40854380D02*
X97512380Y-41663904D01*
X97464761Y-41759142D01*
X97417142Y-41806761D01*
X97321904Y-41854380D01*
X97131428Y-41854380D01*
X97036190Y-41806761D01*
X96988571Y-41759142D01*
X96940952Y-41663904D01*
X96940952Y-40854380D01*
X96560000Y-42235333D02*
X96512380Y-42187714D01*
X96417142Y-42044857D01*
X96369523Y-41949619D01*
X96321904Y-41806761D01*
X96274285Y-41568666D01*
X96274285Y-41378190D01*
X96321904Y-41140095D01*
X96369523Y-40997238D01*
X96417142Y-40902000D01*
X96512380Y-40759142D01*
X96560000Y-40711523D01*
%TO.C,R_SW__02*%
X80668571Y-74874380D02*
X81001904Y-74398190D01*
X81240000Y-74874380D02*
X81240000Y-73874380D01*
X80859047Y-73874380D01*
X80763809Y-73922000D01*
X80716190Y-73969619D01*
X80668571Y-74064857D01*
X80668571Y-74207714D01*
X80716190Y-74302952D01*
X80763809Y-74350571D01*
X80859047Y-74398190D01*
X81240000Y-74398190D01*
X80049523Y-73874380D02*
X79954285Y-73874380D01*
X79859047Y-73922000D01*
X79811428Y-73969619D01*
X79763809Y-74064857D01*
X79716190Y-74255333D01*
X79716190Y-74493428D01*
X79763809Y-74683904D01*
X79811428Y-74779142D01*
X79859047Y-74826761D01*
X79954285Y-74874380D01*
X80049523Y-74874380D01*
X80144761Y-74826761D01*
X80192380Y-74779142D01*
X80240000Y-74683904D01*
X80287619Y-74493428D01*
X80287619Y-74255333D01*
X80240000Y-74064857D01*
X80192380Y-73969619D01*
X80144761Y-73922000D01*
X80049523Y-73874380D01*
X79335238Y-73969619D02*
X79287619Y-73922000D01*
X79192380Y-73874380D01*
X78954285Y-73874380D01*
X78859047Y-73922000D01*
X78811428Y-73969619D01*
X78763809Y-74064857D01*
X78763809Y-74160095D01*
X78811428Y-74302952D01*
X79382857Y-74874380D01*
X78763809Y-74874380D01*
X77287619Y-75255333D02*
X77335238Y-75207714D01*
X77430476Y-75064857D01*
X77478095Y-74969619D01*
X77525714Y-74826761D01*
X77573333Y-74588666D01*
X77573333Y-74398190D01*
X77525714Y-74160095D01*
X77478095Y-74017238D01*
X77430476Y-73922000D01*
X77335238Y-73779142D01*
X77287619Y-73731523D01*
X76859047Y-74826761D02*
X76859047Y-74874380D01*
X76906666Y-74969619D01*
X76954285Y-75017238D01*
X76525714Y-75255333D02*
X76478095Y-75207714D01*
X76382857Y-75064857D01*
X76335238Y-74969619D01*
X76287619Y-74826761D01*
X76240000Y-74588666D01*
X76240000Y-74398190D01*
X76287619Y-74160095D01*
X76335238Y-74017238D01*
X76382857Y-73922000D01*
X76478095Y-73779142D01*
X76525714Y-73731523D01*
%TO.C,R_SW__00*%
X38138586Y-89418836D02*
X38384166Y-88891997D01*
X38701334Y-89319609D02*
X38527685Y-88334801D01*
X38152521Y-88400952D01*
X38066998Y-88464386D01*
X38028372Y-88519551D01*
X37998014Y-88621611D01*
X38022821Y-88762298D01*
X38086254Y-88847820D01*
X38141419Y-88886446D01*
X38243479Y-88916804D01*
X38618644Y-88850652D01*
X37355295Y-88541525D02*
X37261504Y-88558063D01*
X37175982Y-88621496D01*
X37137355Y-88676661D01*
X37106997Y-88778721D01*
X37093178Y-88974572D01*
X37134523Y-89209050D01*
X37214494Y-89388364D01*
X37277928Y-89473886D01*
X37333092Y-89512513D01*
X37435152Y-89542871D01*
X37528943Y-89526333D01*
X37614466Y-89462899D01*
X37653092Y-89407734D01*
X37683450Y-89305674D01*
X37697270Y-89109823D01*
X37655925Y-88875345D01*
X37575954Y-88696031D01*
X37512520Y-88610509D01*
X37457355Y-88571883D01*
X37355295Y-88541525D01*
X36417383Y-88706904D02*
X36323592Y-88723442D01*
X36238070Y-88786875D01*
X36199443Y-88842040D01*
X36169085Y-88944100D01*
X36155266Y-89139952D01*
X36196610Y-89374430D01*
X36276582Y-89553743D01*
X36340015Y-89639265D01*
X36395180Y-89677892D01*
X36497240Y-89708250D01*
X36591031Y-89691712D01*
X36676554Y-89628278D01*
X36715180Y-89573114D01*
X36745538Y-89471054D01*
X36759358Y-89275202D01*
X36718013Y-89040724D01*
X36638041Y-88861411D01*
X36574608Y-88775888D01*
X36519443Y-88737262D01*
X36417383Y-88706904D01*
X34875150Y-90381097D02*
X34913777Y-90325933D01*
X34982761Y-90168708D01*
X35013119Y-90066648D01*
X35035207Y-89917692D01*
X35040758Y-89674945D01*
X35007682Y-89487362D01*
X34919442Y-89261153D01*
X34847739Y-89128736D01*
X34784306Y-89043213D01*
X34665708Y-88919064D01*
X34610543Y-88880438D01*
X33548482Y-89164415D02*
X34615865Y-90281755D01*
X33562073Y-90612628D02*
X33506908Y-90574001D01*
X33388310Y-90449853D01*
X33324877Y-90364330D01*
X33253174Y-90231912D01*
X33164934Y-90005703D01*
X33131858Y-89818121D01*
X33137409Y-89575374D01*
X33159498Y-89426418D01*
X33189855Y-89324358D01*
X33258840Y-89167133D01*
X33297466Y-89111969D01*
%TO.C,R_SW__10*%
X34555213Y-70672450D02*
X34800792Y-70145611D01*
X35117960Y-70573222D02*
X34944312Y-69588415D01*
X34569147Y-69654566D01*
X34483625Y-69718000D01*
X34444998Y-69773164D01*
X34414640Y-69875225D01*
X34439447Y-70015911D01*
X34502881Y-70101434D01*
X34558045Y-70140060D01*
X34660106Y-70170418D01*
X35035270Y-70104266D01*
X33617301Y-70837829D02*
X34180048Y-70738602D01*
X33898674Y-70788215D02*
X33725026Y-69803408D01*
X33843624Y-69927556D01*
X33953953Y-70004810D01*
X34056013Y-70035167D01*
X32834010Y-69960518D02*
X32740218Y-69977056D01*
X32654696Y-70040489D01*
X32616069Y-70095654D01*
X32585712Y-70197714D01*
X32571892Y-70393565D01*
X32613237Y-70628043D01*
X32693208Y-70807357D01*
X32756642Y-70892879D01*
X32811806Y-70931506D01*
X32913866Y-70961863D01*
X33007658Y-70945326D01*
X33093180Y-70881892D01*
X33131807Y-70826727D01*
X33162164Y-70724667D01*
X33175984Y-70528816D01*
X33134639Y-70294338D01*
X33054668Y-70115024D01*
X32991234Y-70029502D01*
X32936070Y-69990875D01*
X32834010Y-69960518D01*
X31291776Y-71634711D02*
X31330403Y-71579546D01*
X31399387Y-71422322D01*
X31429745Y-71320261D01*
X31451834Y-71171306D01*
X31457384Y-70928559D01*
X31424309Y-70740976D01*
X31336068Y-70514767D01*
X31264366Y-70382349D01*
X31200932Y-70296827D01*
X31082334Y-70172678D01*
X31027170Y-70134052D01*
X30795295Y-71287071D02*
X30803564Y-71333967D01*
X30866998Y-71419489D01*
X30922162Y-71458116D01*
X30742963Y-70716055D02*
X30704337Y-70771219D01*
X30759501Y-70809846D01*
X30798128Y-70754682D01*
X30742963Y-70716055D01*
X30759501Y-70809846D01*
X30541447Y-71767014D02*
X30486282Y-71728388D01*
X30367684Y-71604239D01*
X30304250Y-71518717D01*
X30232548Y-71386299D01*
X30144307Y-71160090D01*
X30111232Y-70972507D01*
X30116782Y-70729760D01*
X30138871Y-70580804D01*
X30169229Y-70478744D01*
X30238213Y-70321519D01*
X30276840Y-70266355D01*
%TO.C,R_SW__11*%
X57024480Y-59437482D02*
X57315042Y-58934052D01*
X57593734Y-59387679D02*
X57506579Y-58391484D01*
X57127076Y-58424686D01*
X57036350Y-58480425D01*
X56993063Y-58532013D01*
X56953926Y-58631039D01*
X56966376Y-58773352D01*
X57022115Y-58864078D01*
X57073703Y-58907365D01*
X57172729Y-58946502D01*
X57552232Y-58913300D01*
X56075723Y-59520487D02*
X56644977Y-59470684D01*
X56360350Y-59495586D02*
X56273195Y-58499391D01*
X56380521Y-58633404D01*
X56483697Y-58719979D01*
X56582723Y-58759117D01*
X55126966Y-59603493D02*
X55696221Y-59553690D01*
X55411594Y-59578591D02*
X55324438Y-58582397D01*
X55431764Y-58716410D01*
X55534941Y-58802985D01*
X55633966Y-58842122D01*
X53689596Y-60111654D02*
X53732883Y-60060066D01*
X53815308Y-59909452D01*
X53854445Y-59810426D01*
X53889432Y-59663962D01*
X53916119Y-59422623D01*
X53899518Y-59232871D01*
X53831328Y-58999832D01*
X53771440Y-58861669D01*
X53715701Y-58770944D01*
X53608375Y-58636931D01*
X53556787Y-58593643D01*
X52802512Y-59806856D02*
X53276891Y-59765354D01*
X53189735Y-58769159D01*
X52598525Y-60207110D02*
X52546937Y-60163823D01*
X52439611Y-60029810D01*
X52383872Y-59939084D01*
X52323983Y-59800921D01*
X52255794Y-59567882D01*
X52239193Y-59378131D01*
X52265880Y-59136791D01*
X52300867Y-58990328D01*
X52340004Y-58891302D01*
X52422429Y-58740688D01*
X52465716Y-58689099D01*
%TO.C,R_SW__14*%
X121594285Y-63444380D02*
X121927619Y-62968190D01*
X122165714Y-63444380D02*
X122165714Y-62444380D01*
X121784761Y-62444380D01*
X121689523Y-62492000D01*
X121641904Y-62539619D01*
X121594285Y-62634857D01*
X121594285Y-62777714D01*
X121641904Y-62872952D01*
X121689523Y-62920571D01*
X121784761Y-62968190D01*
X122165714Y-62968190D01*
X120641904Y-63444380D02*
X121213333Y-63444380D01*
X120927619Y-63444380D02*
X120927619Y-62444380D01*
X121022857Y-62587238D01*
X121118095Y-62682476D01*
X121213333Y-62730095D01*
X119784761Y-62777714D02*
X119784761Y-63444380D01*
X120022857Y-62396761D02*
X120260952Y-63111047D01*
X119641904Y-63111047D01*
X118213333Y-63825333D02*
X118260952Y-63777714D01*
X118356190Y-63634857D01*
X118403809Y-63539619D01*
X118451428Y-63396761D01*
X118499047Y-63158666D01*
X118499047Y-62968190D01*
X118451428Y-62730095D01*
X118403809Y-62587238D01*
X118356190Y-62492000D01*
X118260952Y-62349142D01*
X118213333Y-62301523D01*
X117832380Y-63444380D02*
X117832380Y-62444380D01*
X117832380Y-62920571D02*
X117260952Y-62920571D01*
X117260952Y-63444380D02*
X117260952Y-62444380D01*
X116880000Y-63825333D02*
X116832380Y-63777714D01*
X116737142Y-63634857D01*
X116689523Y-63539619D01*
X116641904Y-63396761D01*
X116594285Y-63158666D01*
X116594285Y-62968190D01*
X116641904Y-62730095D01*
X116689523Y-62587238D01*
X116737142Y-62492000D01*
X116832380Y-62349142D01*
X116880000Y-62301523D01*
%TO.C,R_SW__04*%
X121594285Y-82494380D02*
X121927619Y-82018190D01*
X122165714Y-82494380D02*
X122165714Y-81494380D01*
X121784761Y-81494380D01*
X121689523Y-81542000D01*
X121641904Y-81589619D01*
X121594285Y-81684857D01*
X121594285Y-81827714D01*
X121641904Y-81922952D01*
X121689523Y-81970571D01*
X121784761Y-82018190D01*
X122165714Y-82018190D01*
X120975238Y-81494380D02*
X120880000Y-81494380D01*
X120784761Y-81542000D01*
X120737142Y-81589619D01*
X120689523Y-81684857D01*
X120641904Y-81875333D01*
X120641904Y-82113428D01*
X120689523Y-82303904D01*
X120737142Y-82399142D01*
X120784761Y-82446761D01*
X120880000Y-82494380D01*
X120975238Y-82494380D01*
X121070476Y-82446761D01*
X121118095Y-82399142D01*
X121165714Y-82303904D01*
X121213333Y-82113428D01*
X121213333Y-81875333D01*
X121165714Y-81684857D01*
X121118095Y-81589619D01*
X121070476Y-81542000D01*
X120975238Y-81494380D01*
X119784761Y-81827714D02*
X119784761Y-82494380D01*
X120022857Y-81446761D02*
X120260952Y-82161047D01*
X119641904Y-82161047D01*
X118213333Y-82875333D02*
X118260952Y-82827714D01*
X118356190Y-82684857D01*
X118403809Y-82589619D01*
X118451428Y-82446761D01*
X118499047Y-82208666D01*
X118499047Y-82018190D01*
X118451428Y-81780095D01*
X118403809Y-81637238D01*
X118356190Y-81542000D01*
X118260952Y-81399142D01*
X118213333Y-81351523D01*
X117832380Y-82494380D02*
X117832380Y-81494380D01*
X117260952Y-82494380D01*
X117260952Y-81494380D01*
X116880000Y-82875333D02*
X116832380Y-82827714D01*
X116737142Y-82684857D01*
X116689523Y-82589619D01*
X116641904Y-82446761D01*
X116594285Y-82208666D01*
X116594285Y-82018190D01*
X116641904Y-81780095D01*
X116689523Y-81637238D01*
X116737142Y-81542000D01*
X116832380Y-81399142D01*
X116880000Y-81351523D01*
%TO.C,R_SW__T3*%
X99257254Y-104768187D02*
X99702477Y-104394496D01*
X99809212Y-104916084D02*
X100068031Y-103950158D01*
X99700059Y-103851560D01*
X99595741Y-103872907D01*
X99537420Y-103906579D01*
X99466774Y-103986247D01*
X99429800Y-104124237D01*
X99451147Y-104228554D01*
X99484819Y-104286875D01*
X99564487Y-104357521D01*
X99932459Y-104456119D01*
X99240094Y-103728313D02*
X98688137Y-103580416D01*
X98705296Y-104620291D02*
X98964116Y-103654365D01*
X98458154Y-103518793D02*
X97860200Y-103358572D01*
X98083578Y-103812816D01*
X97945588Y-103775842D01*
X97841271Y-103797189D01*
X97782950Y-103830861D01*
X97712304Y-103910529D01*
X97650680Y-104140512D01*
X97672027Y-104244829D01*
X97705699Y-104303150D01*
X97785367Y-104373796D01*
X98061346Y-104447745D01*
X98165664Y-104426398D01*
X98223985Y-104392726D01*
%TO.C,R_SW__24*%
X121499047Y-44394380D02*
X121832380Y-43918190D01*
X122070476Y-44394380D02*
X122070476Y-43394380D01*
X121689523Y-43394380D01*
X121594285Y-43442000D01*
X121546666Y-43489619D01*
X121499047Y-43584857D01*
X121499047Y-43727714D01*
X121546666Y-43822952D01*
X121594285Y-43870571D01*
X121689523Y-43918190D01*
X122070476Y-43918190D01*
X121118095Y-43489619D02*
X121070476Y-43442000D01*
X120975238Y-43394380D01*
X120737142Y-43394380D01*
X120641904Y-43442000D01*
X120594285Y-43489619D01*
X120546666Y-43584857D01*
X120546666Y-43680095D01*
X120594285Y-43822952D01*
X121165714Y-44394380D01*
X120546666Y-44394380D01*
X119689523Y-43727714D02*
X119689523Y-44394380D01*
X119927619Y-43346761D02*
X120165714Y-44061047D01*
X119546666Y-44061047D01*
X118118095Y-44775333D02*
X118165714Y-44727714D01*
X118260952Y-44584857D01*
X118308571Y-44489619D01*
X118356190Y-44346761D01*
X118403809Y-44108666D01*
X118403809Y-43918190D01*
X118356190Y-43680095D01*
X118308571Y-43537238D01*
X118260952Y-43442000D01*
X118165714Y-43299142D01*
X118118095Y-43251523D01*
X117546666Y-43918190D02*
X117546666Y-44394380D01*
X117880000Y-43394380D02*
X117546666Y-43918190D01*
X117213333Y-43394380D01*
X116975238Y-44775333D02*
X116927619Y-44727714D01*
X116832380Y-44584857D01*
X116784761Y-44489619D01*
X116737142Y-44346761D01*
X116689523Y-44108666D01*
X116689523Y-43918190D01*
X116737142Y-43680095D01*
X116784761Y-43537238D01*
X116832380Y-43442000D01*
X116927619Y-43299142D01*
X116975238Y-43251523D01*
%TO.C,L_SW__20*%
X26165008Y-48316544D02*
X24464404Y-48616407D01*
X22713416Y-48925153D02*
X22338204Y-48991313D01*
X21676605Y-45239195D02*
X21742765Y-45614407D01*
X33263757Y-45130456D02*
X28260934Y-46012588D01*
X22272044Y-48616101D02*
X22338204Y-48991313D01*
X32491891Y-40752985D02*
X32558051Y-41128197D01*
X23736950Y-42296717D02*
X32491891Y-40752985D01*
X33087330Y-44129891D02*
X33263757Y-45130456D01*
X28260934Y-46012587D02*
G75*
G03*
X26168300Y-48335216I441066J-2501412D01*
G01*
X23736950Y-42296718D02*
G75*
G03*
X21676605Y-45239195I441067J-2501412D01*
G01*
%TO.C,L_SW__01*%
X51983715Y-68303643D02*
X60839886Y-67528829D01*
X53877871Y-74512182D02*
X52157604Y-74662686D01*
X60839886Y-67528829D02*
X60873093Y-67908379D01*
X61227293Y-71956914D02*
X56166624Y-72399665D01*
X61138743Y-70944780D02*
X61227293Y-71956914D01*
X49973613Y-74471305D02*
X50006820Y-74850855D01*
X50386370Y-74817649D02*
X50006820Y-74850855D01*
X49674756Y-71055354D02*
X49707963Y-71434904D01*
X51983715Y-68303644D02*
G75*
G03*
X49674756Y-71055354I221377J-2530335D01*
G01*
X56166624Y-72399664D02*
G75*
G03*
X53879523Y-74531070I221374J-2530333D01*
G01*
%TO.C,L_SW__04*%
X113411000Y-78105000D02*
X113030000Y-78105000D01*
X124460000Y-75184000D02*
X124460000Y-76200000D01*
X113030000Y-74295000D02*
X113030000Y-74676000D01*
X124460000Y-71755000D02*
X124460000Y-72136000D01*
X124460000Y-76200000D02*
X119380000Y-76200000D01*
X116915838Y-78105000D02*
X115189000Y-78105000D01*
X115570000Y-71755000D02*
X124460000Y-71755000D01*
X113030000Y-77724000D02*
X113030000Y-78105000D01*
X115570000Y-71755000D02*
G75*
G03*
X113030000Y-74295000I1J-2540001D01*
G01*
X119380000Y-76199999D02*
G75*
G03*
X116915838Y-78123960I0J-2540000D01*
G01*
%TO.C,L_SW__13*%
X104140000Y-54490000D02*
X99060000Y-54490000D01*
X96595838Y-56395000D02*
X94869000Y-56395000D01*
X104140000Y-53474000D02*
X104140000Y-54490000D01*
X92710000Y-52585000D02*
X92710000Y-52966000D01*
X93091000Y-56395000D02*
X92710000Y-56395000D01*
X95250000Y-50045000D02*
X104140000Y-50045000D01*
X92710000Y-56014000D02*
X92710000Y-56395000D01*
X104140000Y-50045000D02*
X104140000Y-50426000D01*
X95250000Y-50045000D02*
G75*
G03*
X92710000Y-52585000I1J-2540001D01*
G01*
X99060000Y-54489999D02*
G75*
G03*
X96595838Y-56413960I0J-2540000D01*
G01*
%TO.C,L_SW__T2*%
X116928739Y-106455118D02*
X116738239Y-106785074D01*
X117068194Y-106975574D02*
X116738239Y-106785074D01*
X120103473Y-108727993D02*
X118607988Y-107864574D01*
X128097409Y-109970414D02*
X127589409Y-110850295D01*
X129811909Y-107000813D02*
X129621409Y-107330768D01*
X127589409Y-110850295D02*
X123190000Y-108310295D01*
X118643239Y-103485517D02*
X118452739Y-103815473D01*
X122112943Y-102555813D02*
X129811909Y-107000813D01*
X123190000Y-108310295D02*
G75*
G03*
X120093993Y-108744413I-1270000J-2199704D01*
G01*
X122112944Y-102555812D02*
G75*
G03*
X118643239Y-103485517I-1270000J-2199706D01*
G01*
%TO.C,L_SW__23*%
X104140000Y-35560000D02*
X99060000Y-35560000D01*
X92710000Y-37084000D02*
X92710000Y-37465000D01*
X96595838Y-37465000D02*
X94869000Y-37465000D01*
X104140000Y-31115000D02*
X104140000Y-31496000D01*
X92710000Y-33655000D02*
X92710000Y-34036000D01*
X104140000Y-34544000D02*
X104140000Y-35560000D01*
X93091000Y-37465000D02*
X92710000Y-37465000D01*
X95250000Y-31115000D02*
X104140000Y-31115000D01*
X95250000Y-31115000D02*
G75*
G03*
X92710000Y-33655000I1J-2540001D01*
G01*
X99060000Y-35559999D02*
G75*
G03*
X96595838Y-37483960I0J-2540000D01*
G01*
%TO.C,L_TRRS1*%
X153148500Y-77732000D02*
X155148500Y-77732000D01*
X141048500Y-71882000D02*
X141048500Y-77982000D01*
X153148500Y-72132000D02*
X155148500Y-72132000D01*
X155148500Y-72132000D02*
X155148500Y-77732000D01*
X153148500Y-71882000D02*
X141048500Y-71882000D01*
X153148500Y-71882000D02*
X153148500Y-77982000D01*
X153148500Y-77982000D02*
X141048500Y-77982000D01*
%TO.C,L_SW__03*%
X96595838Y-75565000D02*
X94869000Y-75565000D01*
X95250000Y-69215000D02*
X104140000Y-69215000D01*
X104140000Y-69215000D02*
X104140000Y-69596000D01*
X104140000Y-73660000D02*
X99060000Y-73660000D01*
X92710000Y-75184000D02*
X92710000Y-75565000D01*
X104140000Y-72644000D02*
X104140000Y-73660000D01*
X93091000Y-75565000D02*
X92710000Y-75565000D01*
X92710000Y-71755000D02*
X92710000Y-72136000D01*
X95250000Y-69215000D02*
G75*
G03*
X92710000Y-71755000I1J-2540001D01*
G01*
X99060000Y-73659999D02*
G75*
G03*
X96595838Y-75583960I0J-2540000D01*
G01*
%TO.C,L_SW__10*%
X36421051Y-62925891D02*
X36597478Y-63926456D01*
X25010326Y-64035195D02*
X25076486Y-64410407D01*
X36597478Y-63926456D02*
X31594655Y-64808588D01*
X25605765Y-67412101D02*
X25671925Y-67787313D01*
X27070671Y-61092717D02*
X35825612Y-59548985D01*
X35825612Y-59548985D02*
X35891772Y-59924197D01*
X29498729Y-67112544D02*
X27798125Y-67412407D01*
X26047137Y-67721153D02*
X25671925Y-67787313D01*
X27070671Y-61092718D02*
G75*
G03*
X25010326Y-64035195I441067J-2501412D01*
G01*
X31594655Y-64808587D02*
G75*
G03*
X29502021Y-67131216I441066J-2501412D01*
G01*
%TO.C,L_SW__12*%
X72771000Y-51435000D02*
X72390000Y-51435000D01*
X76275838Y-51435000D02*
X74549000Y-51435000D01*
X83820000Y-49530000D02*
X78740000Y-49530000D01*
X83820000Y-48514000D02*
X83820000Y-49530000D01*
X72390000Y-47625000D02*
X72390000Y-48006000D01*
X83820000Y-45085000D02*
X83820000Y-45466000D01*
X74930000Y-45085000D02*
X83820000Y-45085000D01*
X72390000Y-51054000D02*
X72390000Y-51435000D01*
X78740000Y-49529999D02*
G75*
G03*
X76275838Y-51453960I0J-2540000D01*
G01*
X74930000Y-45085000D02*
G75*
G03*
X72390000Y-47625000I1J-2540001D01*
G01*
%TO.C,L_SW__11*%
X59061886Y-48478829D02*
X59095093Y-48858379D01*
X59360743Y-51894780D02*
X59449293Y-52906914D01*
X50205715Y-49253643D02*
X59061886Y-48478829D01*
X59449293Y-52906914D02*
X54388624Y-53349665D01*
X52099871Y-55462182D02*
X50379604Y-55612686D01*
X47896756Y-52005354D02*
X47929963Y-52384904D01*
X48195613Y-55421305D02*
X48228820Y-55800855D01*
X48608370Y-55767649D02*
X48228820Y-55800855D01*
X50205715Y-49253644D02*
G75*
G03*
X47896756Y-52005354I221377J-2530335D01*
G01*
X54388624Y-53349664D02*
G75*
G03*
X52101523Y-55481070I221374J-2530333D01*
G01*
D12*
%TO.C,L_EC1*%
X133350000Y-62946750D02*
X151130000Y-62946750D01*
X133350000Y-29926750D02*
X133350000Y-62946750D01*
X151130000Y-62946750D02*
X151130000Y-29926750D01*
X135890000Y-32466750D02*
X133350000Y-32466750D01*
X135890000Y-35006750D02*
X133350000Y-35006750D01*
X151130000Y-29926750D02*
X133350000Y-29926750D01*
X135890000Y-32466750D02*
X135890000Y-35006750D01*
G36*
X148584635Y-39155780D02*
G01*
X148484635Y-39155780D01*
X148484635Y-38355780D01*
X148584635Y-38355780D01*
X148584635Y-39155780D01*
G37*
D11*
X148584635Y-39155780D02*
X148484635Y-39155780D01*
X148484635Y-38355780D01*
X148584635Y-38355780D01*
X148584635Y-39155780D01*
G36*
X148584635Y-38455780D02*
G01*
X148084635Y-38455780D01*
X148084635Y-38355780D01*
X148584635Y-38355780D01*
X148584635Y-38455780D01*
G37*
X148584635Y-38455780D02*
X148084635Y-38455780D01*
X148084635Y-38355780D01*
X148584635Y-38355780D01*
X148584635Y-38455780D01*
G36*
X148184635Y-38655780D02*
G01*
X148084635Y-38655780D01*
X148084635Y-38355780D01*
X148184635Y-38355780D01*
X148184635Y-38655780D01*
G37*
X148184635Y-38655780D02*
X148084635Y-38655780D01*
X148084635Y-38355780D01*
X148184635Y-38355780D01*
X148184635Y-38655780D01*
G36*
X148384635Y-38855780D02*
G01*
X148284635Y-38855780D01*
X148284635Y-38755780D01*
X148384635Y-38755780D01*
X148384635Y-38855780D01*
G37*
X148384635Y-38855780D02*
X148284635Y-38855780D01*
X148284635Y-38755780D01*
X148384635Y-38755780D01*
X148384635Y-38855780D01*
G36*
X148184635Y-39155780D02*
G01*
X148084635Y-39155780D01*
X148084635Y-38955780D01*
X148184635Y-38955780D01*
X148184635Y-39155780D01*
G37*
X148184635Y-39155780D02*
X148084635Y-39155780D01*
X148084635Y-38955780D01*
X148184635Y-38955780D01*
X148184635Y-39155780D01*
%TO.C,L_SW__14*%
X113411000Y-59055000D02*
X113030000Y-59055000D01*
X124460000Y-57150000D02*
X119380000Y-57150000D01*
X124460000Y-56134000D02*
X124460000Y-57150000D01*
X116915838Y-59055000D02*
X115189000Y-59055000D01*
X124460000Y-52705000D02*
X124460000Y-53086000D01*
X115570000Y-52705000D02*
X124460000Y-52705000D01*
X113030000Y-58674000D02*
X113030000Y-59055000D01*
X113030000Y-55245000D02*
X113030000Y-55626000D01*
X119380000Y-57149999D02*
G75*
G03*
X116915838Y-59073960I0J-2540000D01*
G01*
X115570000Y-52705000D02*
G75*
G03*
X113030000Y-55245000I1J-2540001D01*
G01*
%TO.C,L_SW__T3*%
X93829331Y-98375118D02*
X93730721Y-98743136D01*
X105264304Y-99861349D02*
X100357400Y-98546548D01*
X94098739Y-98841746D02*
X93730721Y-98743136D01*
X97827674Y-93266908D02*
X106414754Y-95567809D01*
X97484152Y-99748865D02*
X95816155Y-99301926D01*
X105527264Y-98879969D02*
X105264304Y-99861349D01*
X106414754Y-95567809D02*
X106316144Y-95935827D01*
X94716822Y-95062959D02*
X94618212Y-95430977D01*
X97827674Y-93266907D02*
G75*
G03*
X94716822Y-95062959I-657400J-2453453D01*
G01*
X100357400Y-98546547D02*
G75*
G03*
X97479245Y-99767179I-657400J-2453452D01*
G01*
%TO.C,L_SW__00*%
X32821437Y-85902544D02*
X31120833Y-86202407D01*
X39743759Y-81715891D02*
X39920186Y-82716456D01*
X39148320Y-78338985D02*
X39214480Y-78714197D01*
X39920186Y-82716456D02*
X34917363Y-83598588D01*
X29369845Y-86511153D02*
X28994633Y-86577313D01*
X30393379Y-79882717D02*
X39148320Y-78338985D01*
X28333034Y-82825195D02*
X28399194Y-83200407D01*
X28928473Y-86202101D02*
X28994633Y-86577313D01*
X30393379Y-79882718D02*
G75*
G03*
X28333034Y-82825195I441067J-2501412D01*
G01*
X34917363Y-83598587D02*
G75*
G03*
X32824729Y-85921216I441066J-2501412D01*
G01*
%TO.C,L_SW__22*%
X74930000Y-26035000D02*
X83820000Y-26035000D01*
X83820000Y-29464000D02*
X83820000Y-30480000D01*
X76275838Y-32385000D02*
X74549000Y-32385000D01*
X72771000Y-32385000D02*
X72390000Y-32385000D01*
X72390000Y-28575000D02*
X72390000Y-28956000D01*
X72390000Y-32004000D02*
X72390000Y-32385000D01*
X83820000Y-26035000D02*
X83820000Y-26416000D01*
X83820000Y-30480000D02*
X78740000Y-30480000D01*
X74930000Y-26035000D02*
G75*
G03*
X72390000Y-28575000I1J-2540001D01*
G01*
X78740000Y-30479999D02*
G75*
G03*
X76275838Y-32403960I0J-2540000D01*
G01*
%TO.C,L_SW__24*%
X124460000Y-38100000D02*
X119380000Y-38100000D01*
X115570000Y-33655000D02*
X124460000Y-33655000D01*
X124460000Y-33655000D02*
X124460000Y-34036000D01*
X113411000Y-40005000D02*
X113030000Y-40005000D01*
X113030000Y-36195000D02*
X113030000Y-36576000D01*
X124460000Y-37084000D02*
X124460000Y-38100000D01*
X116915838Y-40005000D02*
X115189000Y-40005000D01*
X113030000Y-39624000D02*
X113030000Y-40005000D01*
X115570000Y-33655000D02*
G75*
G03*
X113030000Y-36195000I1J-2540001D01*
G01*
X119380000Y-38099999D02*
G75*
G03*
X116915838Y-40023960I0J-2540000D01*
G01*
%TO.C,L_SW__02*%
X72390000Y-70104000D02*
X72390000Y-70485000D01*
X74930000Y-64135000D02*
X83820000Y-64135000D01*
X72771000Y-70485000D02*
X72390000Y-70485000D01*
X83820000Y-68580000D02*
X78740000Y-68580000D01*
X72390000Y-66675000D02*
X72390000Y-67056000D01*
X83820000Y-64135000D02*
X83820000Y-64516000D01*
X76275838Y-70485000D02*
X74549000Y-70485000D01*
X83820000Y-67564000D02*
X83820000Y-68580000D01*
X78740000Y-68579999D02*
G75*
G03*
X76275838Y-70503960I0J-2540000D01*
G01*
X74930000Y-64135000D02*
G75*
G03*
X72390000Y-66675000I1J-2540001D01*
G01*
%TO.C,L_SW__T1*%
X136728292Y-120051451D02*
X136458885Y-120320859D01*
X139206587Y-123068562D02*
X137985528Y-121847503D01*
X146606574Y-126337631D02*
X145888154Y-127056051D01*
X139152962Y-117626782D02*
X138883554Y-117896190D01*
X142745064Y-117626782D02*
X149031243Y-123912962D01*
X136728292Y-120590267D02*
X136458885Y-120320859D01*
X145888154Y-127056051D02*
X142296051Y-123463949D01*
X149031243Y-123912962D02*
X148761836Y-124182369D01*
X142745064Y-117626782D02*
G75*
G03*
X139152962Y-117626782I-1796051J-1796053D01*
G01*
X142296052Y-123463948D02*
G75*
G03*
X139193180Y-123081968I-1796051J-1796051D01*
G01*
%TO.C,L_SW__21*%
X46118756Y-32955354D02*
X46151963Y-33334904D01*
X50321871Y-36412182D02*
X48601604Y-36562686D01*
X57283886Y-29428829D02*
X57317093Y-29808379D01*
X46417613Y-36371305D02*
X46450820Y-36750855D01*
X57671293Y-33856914D02*
X52610624Y-34299665D01*
X57582743Y-32844780D02*
X57671293Y-33856914D01*
X48427715Y-30203643D02*
X57283886Y-29428829D01*
X46830370Y-36717649D02*
X46450820Y-36750855D01*
X52610624Y-34299664D02*
G75*
G03*
X50323523Y-36431070I221374J-2530333D01*
G01*
X48427715Y-30203644D02*
G75*
G03*
X46118756Y-32955354I221377J-2530335D01*
G01*
%TO.C,R_SW__T1*%
X140462000Y-135121495D02*
X141169107Y-134414388D01*
X140462000Y-115322505D02*
X139754893Y-116029612D01*
X149654388Y-124514893D02*
X150361495Y-125222000D01*
X131269612Y-125929107D02*
X130562505Y-125222000D01*
X140462000Y-135121495D02*
X139754893Y-134414388D01*
X131269612Y-124514893D02*
X130562505Y-125222000D01*
X140462000Y-115322505D02*
X141169107Y-116029612D01*
X149654388Y-125929107D02*
X150361495Y-125222000D01*
%TO.C,R_SW__03*%
X93060000Y-83200000D02*
X92060000Y-83200000D01*
X106060000Y-70200000D02*
X106060000Y-69200000D01*
X92060000Y-69200000D02*
X93060000Y-69200000D01*
X92060000Y-82200000D02*
X92060000Y-83200000D01*
X106060000Y-83200000D02*
X106060000Y-82200000D01*
X92060000Y-69200000D02*
X92060000Y-70200000D01*
X106060000Y-83200000D02*
X105060000Y-83200000D01*
X105060000Y-69200000D02*
X106060000Y-69200000D01*
%TO.C,R_SW__T2*%
X119337822Y-100937822D02*
X118837822Y-101803848D01*
X130596152Y-107437822D02*
X131462178Y-107937822D01*
X124462178Y-120062178D02*
X124962178Y-119196152D01*
X130962178Y-108803848D02*
X131462178Y-107937822D01*
X113203848Y-113562178D02*
X112337822Y-113062178D01*
X112837822Y-112196152D02*
X112337822Y-113062178D01*
X124462178Y-120062178D02*
X123596152Y-119562178D01*
X119337822Y-100937822D02*
X120203848Y-101437822D01*
%TO.C,R_SW__22*%
X72740000Y-40020000D02*
X71740000Y-40020000D01*
X85740000Y-40020000D02*
X85740000Y-39020000D01*
X71740000Y-39020000D02*
X71740000Y-40020000D01*
X84740000Y-26020000D02*
X85740000Y-26020000D01*
X85740000Y-40020000D02*
X84740000Y-40020000D01*
X71740000Y-26020000D02*
X71740000Y-27020000D01*
X71740000Y-26020000D02*
X72740000Y-26020000D01*
X85740000Y-27020000D02*
X85740000Y-26020000D01*
%TO.C,R_SW__21*%
X58199078Y-29333703D02*
X59195273Y-29246547D01*
X60415453Y-43193273D02*
X60328297Y-42197078D01*
X60415453Y-43193273D02*
X59419258Y-43280428D01*
X46381572Y-43417258D02*
X46468727Y-44413453D01*
X59282428Y-30242742D02*
X59195273Y-29246547D01*
X47464922Y-44326297D02*
X46468727Y-44413453D01*
X45248547Y-30466727D02*
X46244742Y-30379572D01*
X45248547Y-30466727D02*
X45335703Y-31462922D01*
%TO.C,R_SW__01*%
X61755078Y-67433703D02*
X62751273Y-67346547D01*
X51020922Y-82426297D02*
X50024727Y-82513453D01*
X48804547Y-68566727D02*
X49800742Y-68479572D01*
X63971453Y-81293273D02*
X63884297Y-80297078D01*
X48804547Y-68566727D02*
X48891703Y-69562922D01*
X63971453Y-81293273D02*
X62975258Y-81380428D01*
X49937572Y-81517258D02*
X50024727Y-82513453D01*
X62838428Y-68342742D02*
X62751273Y-67346547D01*
%TO.C,R_SW__12*%
X85740000Y-46070000D02*
X85740000Y-45070000D01*
X71740000Y-45070000D02*
X71740000Y-46070000D01*
X85740000Y-59070000D02*
X84740000Y-59070000D01*
X84740000Y-45070000D02*
X85740000Y-45070000D01*
X85740000Y-59070000D02*
X85740000Y-58070000D01*
X71740000Y-45070000D02*
X72740000Y-45070000D01*
X71740000Y-58070000D02*
X71740000Y-59070000D01*
X72740000Y-59070000D02*
X71740000Y-59070000D01*
%TO.C,R_SW__20*%
X24008691Y-56449543D02*
X23023883Y-56623192D01*
X34553765Y-41389616D02*
X34380117Y-40404808D01*
X36811192Y-54192117D02*
X35826384Y-54365765D01*
X20592808Y-42835883D02*
X21577616Y-42662235D01*
X22850235Y-55638384D02*
X23023883Y-56623192D01*
X33395309Y-40578457D02*
X34380117Y-40404808D01*
X20592808Y-42835883D02*
X20766457Y-43820691D01*
X36811192Y-54192117D02*
X36637543Y-53207309D01*
%TO.C,R_SW__13*%
X106060000Y-64030000D02*
X105060000Y-64030000D01*
X92060000Y-50030000D02*
X92060000Y-51030000D01*
X105060000Y-50030000D02*
X106060000Y-50030000D01*
X106060000Y-64030000D02*
X106060000Y-63030000D01*
X92060000Y-63030000D02*
X92060000Y-64030000D01*
X93060000Y-64030000D02*
X92060000Y-64030000D01*
X92060000Y-50030000D02*
X93060000Y-50030000D01*
X106060000Y-51030000D02*
X106060000Y-50030000D01*
%TO.C,R_SW__23*%
X92060000Y-31100000D02*
X92060000Y-32100000D01*
X92060000Y-44100000D02*
X92060000Y-45100000D01*
X106060000Y-45100000D02*
X105060000Y-45100000D01*
X93060000Y-45100000D02*
X92060000Y-45100000D01*
X105060000Y-31100000D02*
X106060000Y-31100000D01*
X106060000Y-45100000D02*
X106060000Y-44100000D01*
X106060000Y-32100000D02*
X106060000Y-31100000D01*
X92060000Y-31100000D02*
X93060000Y-31100000D01*
%TO.C,R_SW__02*%
X85740000Y-78120000D02*
X85740000Y-77120000D01*
X71740000Y-77120000D02*
X71740000Y-78120000D01*
X71740000Y-64120000D02*
X71740000Y-65120000D01*
X71740000Y-64120000D02*
X72740000Y-64120000D01*
X72740000Y-78120000D02*
X71740000Y-78120000D01*
X85740000Y-65120000D02*
X85740000Y-64120000D01*
X85740000Y-78120000D02*
X84740000Y-78120000D01*
X84740000Y-64120000D02*
X85740000Y-64120000D01*
%TO.C,R_SW__00*%
X39999309Y-78170457D02*
X40984117Y-77996808D01*
X41157765Y-78981616D02*
X40984117Y-77996808D01*
X27196808Y-80427883D02*
X27370457Y-81412691D01*
X43415192Y-91784117D02*
X43241543Y-90799309D01*
X30612691Y-94041543D02*
X29627883Y-94215192D01*
X43415192Y-91784117D02*
X42430384Y-91957765D01*
X29454235Y-93230384D02*
X29627883Y-94215192D01*
X27196808Y-80427883D02*
X28181616Y-80254235D01*
%TO.C,R_SW__10*%
X36697309Y-59374457D02*
X37682117Y-59200808D01*
X26152235Y-74434384D02*
X26325883Y-75419192D01*
X27310691Y-75245543D02*
X26325883Y-75419192D01*
X23894808Y-61631883D02*
X24879616Y-61458235D01*
X37855765Y-60185616D02*
X37682117Y-59200808D01*
X23894808Y-61631883D02*
X24068457Y-62616691D01*
X40113192Y-72988117D02*
X39128384Y-73161765D01*
X40113192Y-72988117D02*
X39939543Y-72003309D01*
%TO.C,R_SW__11*%
X48159572Y-62467258D02*
X48246727Y-63463453D01*
X47026547Y-49516727D02*
X47113703Y-50512922D01*
X47026547Y-49516727D02*
X48022742Y-49429572D01*
X49242922Y-63376297D02*
X48246727Y-63463453D01*
X62193453Y-62243273D02*
X62106297Y-61247078D01*
X62193453Y-62243273D02*
X61197258Y-62330428D01*
X59977078Y-48383703D02*
X60973273Y-48296547D01*
X61060428Y-49292742D02*
X60973273Y-48296547D01*
%TO.C,R_SW__14*%
X112380000Y-52690000D02*
X112380000Y-53690000D01*
X113380000Y-66690000D02*
X112380000Y-66690000D01*
X126380000Y-66690000D02*
X125380000Y-66690000D01*
X126380000Y-53690000D02*
X126380000Y-52690000D01*
X112380000Y-52690000D02*
X113380000Y-52690000D01*
X126380000Y-66690000D02*
X126380000Y-65690000D01*
X125380000Y-52690000D02*
X126380000Y-52690000D01*
X112380000Y-65690000D02*
X112380000Y-66690000D01*
%TO.C,R_SW__04*%
X112380000Y-84740000D02*
X112380000Y-85740000D01*
X125380000Y-71740000D02*
X126380000Y-71740000D01*
X126380000Y-72740000D02*
X126380000Y-71740000D01*
X126380000Y-85740000D02*
X126380000Y-84740000D01*
X112380000Y-71740000D02*
X113380000Y-71740000D01*
X113380000Y-85740000D02*
X112380000Y-85740000D01*
X126380000Y-85740000D02*
X125380000Y-85740000D01*
X112380000Y-71740000D02*
X112380000Y-72740000D01*
%TO.C,R_SW__T3*%
X91385605Y-104983822D02*
X91126786Y-105949747D01*
X107307288Y-95791433D02*
X108273214Y-96050253D01*
X108014395Y-97016178D02*
X108273214Y-96050253D01*
X104649747Y-109573214D02*
X103683822Y-109314395D01*
X92092712Y-106208567D02*
X91126786Y-105949747D01*
X104649747Y-109573214D02*
X104908567Y-108607288D01*
X94750253Y-92426786D02*
X94491433Y-93392712D01*
X94750253Y-92426786D02*
X95716178Y-92685605D01*
%TO.C,R_SW__24*%
X112380000Y-33640000D02*
X112380000Y-34640000D01*
X125380000Y-33640000D02*
X126380000Y-33640000D01*
X113380000Y-47640000D02*
X112380000Y-47640000D01*
X126380000Y-34640000D02*
X126380000Y-33640000D01*
X126380000Y-47640000D02*
X126380000Y-46640000D01*
X112380000Y-33640000D02*
X113380000Y-33640000D01*
X112380000Y-46640000D02*
X112380000Y-47640000D01*
X126380000Y-47640000D02*
X125380000Y-47640000D01*
%TD*%
D13*
%TO.C,L_EC1*%
X134620000Y-33736750D03*
D14*
X134620000Y-36276750D03*
X134620000Y-38816750D03*
X134620000Y-41356750D03*
X134620000Y-43896750D03*
X134620000Y-46436750D03*
X134620000Y-48976750D03*
X134620000Y-51516750D03*
X134620000Y-54056750D03*
X134620000Y-56596750D03*
X134620000Y-59136750D03*
X134848600Y-61676750D03*
X149860000Y-61676750D03*
X149860000Y-59136750D03*
X149860000Y-56596750D03*
X149860000Y-54056750D03*
X149860000Y-51516750D03*
X149860000Y-48976750D03*
X149860000Y-46436750D03*
X149860000Y-43896750D03*
X149860000Y-41356750D03*
X149860000Y-38816750D03*
X149860000Y-36276750D03*
X149860000Y-33736750D03*
X137160000Y-61676750D03*
X139700000Y-61676750D03*
X142240000Y-61676750D03*
X144780000Y-61676750D03*
X147320000Y-61676750D03*
%TD*%
M02*
