M48
; DRILL file {KiCad (6.0.7)} date Sun Sep  4 15:55:52 2022
; FORMAT={-:-/ absolute / inch / decimal}
; #@! TF.CreationDate,2022-09-04T15:55:52+05:30
; #@! TF.GenerationSoftware,Kicad,Pcbnew,(6.0.7)
; #@! TF.FileFunction,NonPlated,1,2,NPTH
FMAT,2
INCH
; #@! TA.AperFunction,NonPlated,NPTH,ComponentDrill
T1C0.0315
; #@! TA.AperFunction,NonPlated,NPTH,ComponentDrill
T2C0.0670
; #@! TA.AperFunction,NonPlated,NPTH,ComponentDrill
T3C0.0866
; #@! TA.AperFunction,NonPlated,NPTH,ComponentDrill
T4C0.1181
; #@! TA.AperFunction,NonPlated,NPTH,ComponentDrill
T5C0.1570
%
G90
G05
T1
X5.6909Y-2.9501
X5.6927Y-2.95
X5.9665Y-2.9501
X5.9683Y-2.95
T2
X0.933Y-1.9447
X0.933Y-1.9447
X1.063Y-2.6847
X1.0643Y-2.6847
X1.193Y-3.4247
X1.1951Y-3.4245
X1.327Y-1.8753
X1.327Y-1.8753
X1.457Y-2.6153
X1.4582Y-2.6153
X1.587Y-3.3553
X1.589Y-3.355
X1.8808Y-1.4674
X1.8808Y-1.4674
X1.9508Y-2.2174
X1.9508Y-2.2174
X2.0208Y-2.9674
X2.0208Y-2.9674
X2.2792Y-1.4326
X2.2792Y-1.4326
X2.3492Y-2.1826
X2.3492Y-2.1826
X2.4192Y-2.9326
X2.4192Y-2.9326
X2.9Y-1.3
X2.9Y-1.3
X2.9Y-2.05
X2.9Y-2.05
X2.9Y-2.8
X2.9Y-2.8
X3.3Y-1.3
X3.3Y-1.3
X3.3Y-2.05
X3.3Y-2.05
X3.3Y-2.8
X3.3Y-2.8
X3.7Y-1.5
X3.7Y-1.5
X3.7Y-2.2453
X3.7Y-2.2453
X3.7Y-3.0
X3.7Y-3.0
X3.732Y-3.9246
X3.732Y-3.9246
X4.1Y-1.5
X4.1Y-1.5
X4.1Y-2.2453
X4.1Y-2.2453
X4.1Y-3.0
X4.1Y-3.0
X4.1184Y-4.0281
X4.1184Y-4.0281
X4.5Y-1.6
X4.5Y-1.6
X4.5Y-2.35
X4.5Y-2.35
X4.5Y-3.1
X4.5Y-3.1
X4.626Y-4.2504
X4.6268Y-4.2508
X4.9Y-1.6
X4.9Y-1.6
X4.9Y-2.35
X4.9Y-2.35
X4.9Y-3.1
X4.9Y-3.1
X4.9724Y-4.4504
X4.9732Y-4.4508
X5.3886Y-4.7886
X5.3901Y-4.7901
X5.6714Y-5.0714
X5.6729Y-5.0729
T3
X1.74Y-2.69
X2.59Y-1.64
X3.57Y-2.6
X4.31Y-1.94
X5.08Y-3.76
T4
X0.9649Y-1.8376
X0.9968Y-1.7304
X1.0962Y-2.5776
X1.1268Y-2.4704
X1.1938Y-1.6957
X1.227Y-3.3173
X1.2568Y-3.2104
X1.2604Y-1.7855
X1.325Y-2.4357
X1.3904Y-2.5255
X1.4558Y-3.1754
X1.5204Y-3.2655
X1.9219Y-1.3635
X1.9629Y-1.2595
X1.9919Y-2.1135
X2.0329Y-2.0095
X2.0619Y-2.8635
X2.1029Y-2.7595
X2.1622Y-1.242
X2.2207Y-1.3373
X2.2322Y-1.992
X2.2907Y-2.0873
X2.3022Y-2.742
X2.3607Y-2.8373
X2.95Y-1.2
X2.95Y-1.95
X2.95Y-2.7
X3.0Y-1.1
X3.0Y-1.85
X3.0Y-2.6
X3.2Y-1.1
X3.2Y-1.85
X3.2Y-2.6
X3.25Y-1.2
X3.25Y-1.95
X3.25Y-2.7
X3.75Y-1.4
X3.75Y-2.1453
X3.75Y-2.9
X3.8Y-1.3
X3.8Y-2.0453
X3.8Y-2.8
X3.8062Y-3.841
X3.8804Y-3.7573
X4.0Y-1.3
X4.0Y-2.0453
X4.0Y-2.8
X4.05Y-1.4
X4.05Y-2.1453
X4.05Y-2.9
X4.0736Y-3.8091
X4.096Y-3.9186
X4.55Y-1.5
X4.55Y-2.25
X4.55Y-3.0
X4.6Y-1.4
X4.6Y-2.15
X4.6Y-2.9
X4.7201Y-4.1892
X4.8Y-1.4
X4.8Y-2.15
X4.8Y-2.9
X4.8126Y-4.1272
X4.85Y-1.5
X4.85Y-2.25
X4.85Y-3.0
X4.9791Y-4.3388
X4.9866Y-4.2276
X5.4961Y-4.7547
X5.6007Y-4.7179
X5.7068Y-4.9654
X5.7436Y-4.8608
T5
X1.13Y-1.91
X1.13Y-1.91
X1.26Y-2.65
X1.2612Y-2.65
X1.39Y-3.39
X1.3921Y-3.3898
X2.08Y-1.45
X2.08Y-1.45
X2.15Y-2.2
X2.15Y-2.2
X2.22Y-2.95
X2.22Y-2.95
X3.1Y-1.3
X3.1Y-1.3
X3.1Y-2.05
X3.1Y-2.05
X3.1Y-2.8
X3.1Y-2.8
X3.9Y-1.5
X3.9Y-1.5
X3.9Y-2.2453
X3.9Y-2.2453
X3.9Y-3.0
X3.9Y-3.0
X3.9252Y-3.9764
X3.9252Y-3.9764
X4.7Y-1.6
X4.7Y-1.6
X4.7Y-2.35
X4.7Y-2.35
X4.7Y-3.1
X4.7Y-3.1
X4.7992Y-4.3504
X4.8Y-4.3508
X5.53Y-4.93
X5.5315Y-4.9315
T0
M30
